<svg width="169" height="80" viewBox="0 0 169 80" fill="none" xmlns="http://www.w3.org/2000/svg">
<path d="M7.39591 60.4853C6.50324 60.4853 5.67731 60.4853 4.8931 60.5062C4.10888 60.527 3.47067 60.5437 2.9117 60.5687L1.12219 60.6522V60.235C2.25958 60.235 3.05075 59.9917 3.49569 59.505C4.003 58.8682 4.29511 58.0868 4.32996 57.2734C4.38955 56.9994 4.41754 56.7195 4.41339 56.4391V29.5547C4.41788 29.0043 4.39003 28.4541 4.32996 27.907C4.28971 27.469 4.16205 27.0435 3.95454 26.6556C3.76165 26.309 3.47168 26.0262 3.12027 25.8422C2.66436 25.6283 2.1634 25.5281 1.6603 25.5502V25.1331C2.85887 25.2165 3.85304 25.2791 4.64282 25.3208C5.43955 25.3625 6.19456 25.3833 6.9162 25.3833C7.63785 25.3833 8.50132 25.3625 9.33559 25.3208C10.1699 25.2791 11.2294 25.2165 12.5058 25.1331V25.5502C12.005 25.5298 11.506 25.6224 11.0458 25.8213C10.6986 25.992 10.4087 26.2602 10.2116 26.593C10.0027 26.9803 9.87494 27.4061 9.83615 27.8444C9.77878 28.3778 9.75093 28.914 9.75273 29.4504V48.7638C9.93208 47.9349 10.169 47.1195 10.4619 46.3236C10.7302 45.6058 11.0508 44.9087 11.4213 44.2379C12.2022 42.7822 13.2168 41.4646 14.4246 40.3377C15.5926 39.2698 16.8162 38.2478 18.0954 37.2717C19.3747 36.2956 20.6692 35.2597 21.979 34.164C23.3782 32.9633 24.6113 31.5816 25.6456 30.0553C25.9151 29.6589 26.101 29.2118 26.192 28.7413C26.2729 28.2948 26.237 27.835 26.0878 27.4064C25.9219 26.9577 25.6483 26.5566 25.291 26.2385C24.8798 25.8723 24.3883 25.608 23.8561 25.4668V25.1331C24.4651 25.1915 24.9949 25.2332 25.437 25.2582C25.8792 25.2832 26.3005 25.2999 26.6884 25.2999C27.2182 25.2999 27.7313 25.2999 28.236 25.2582C28.7407 25.2165 29.3206 25.1915 29.9838 25.1331V25.4668C29.2612 25.8874 28.6358 26.456 28.1484 27.1353C27.652 27.8319 27.1348 28.5953 26.6092 29.4296C25.912 30.5535 25.1089 31.6081 24.2106 32.5789C23.3943 33.4592 22.531 34.2947 21.6244 35.0817C20.7442 35.8326 19.8641 36.5375 18.9714 37.1674C18.0788 37.7973 17.2236 38.4897 16.3894 39.1697C15.5613 39.8467 14.773 40.571 14.0284 41.3388C13.2744 42.1326 12.6099 43.0069 12.047 43.9459C12.678 43.43 13.3805 43.0085 14.1327 42.6945C15.0035 42.327 15.9406 42.1425 16.8857 42.1522C17.6143 42.1577 18.3381 42.2701 19.034 42.4859C19.841 42.7432 20.6066 43.1155 21.3074 43.5913C22.1688 44.18 22.9474 44.8815 23.6225 45.677C24.4802 46.6808 25.2413 47.7632 25.8959 48.9098C26.7301 50.3281 27.5644 51.6559 28.3987 52.8934C29.233 54.1309 30.0186 55.2433 30.7555 56.2305C31.402 57.1108 32.0984 57.9534 32.8412 58.7542C33.327 59.3099 33.8887 59.7943 34.5097 60.1933V60.6104C34.1718 60.6104 33.6463 60.6104 32.9204 60.6104C32.1946 60.6104 31.4438 60.5896 30.6512 60.5896H28.3987C27.6896 60.5896 27.1807 60.5896 26.872 60.6313C26.1795 59.5773 25.4023 58.3329 24.5402 56.8979C23.6781 55.463 22.7284 53.8779 21.6911 52.1426C21.0821 51.1415 20.4815 50.1362 19.9016 49.1184C19.3111 48.1032 18.6548 47.1278 17.9369 46.1984C17.4001 45.4817 16.7196 44.885 15.9388 44.4464C15.3232 44.1075 14.635 43.9215 13.9324 43.9042C13.3539 43.8755 12.7811 44.0292 12.2946 44.3435C11.8081 44.6578 11.4326 45.117 11.221 45.6561C10.8145 46.5752 10.5001 47.5324 10.2825 48.5135C10.0305 49.6755 9.85627 50.8531 9.76107 52.0383V55.8968C9.75371 56.5464 9.80255 57.1954 9.90707 57.8365C9.98819 58.3058 10.1657 58.7532 10.4285 59.1505C10.6742 59.51 11.0233 59.7864 11.4296 59.943C11.9627 60.1415 12.5296 60.2336 13.0982 60.2142V60.6313C12.1248 60.5785 11.1515 60.5368 10.1782 60.5062C9.21462 60.4853 8.28441 60.4853 7.39591 60.4853Z" fill="#534930"/>
<path d="M36.4245 52.4135C36.3952 51.2262 36.6832 50.0526 37.2588 49.0138C37.8244 48.0471 38.5929 47.2146 39.5113 46.5736C40.5224 45.875 41.6335 45.3336 42.8067 44.9676C44.1047 44.5544 45.4285 44.2269 46.7695 43.9873C45.6224 43.7948 44.5405 43.322 43.6201 42.6108C42.8479 42.0063 42.2504 41.2073 41.889 40.2957C41.5567 39.433 41.449 38.5 41.5761 37.5843C41.7044 36.6456 42.0706 35.7554 42.6398 34.9981C43.2747 34.1659 44.1021 33.5003 45.0509 33.0584C46.2076 32.5283 47.4707 32.2714 48.7425 32.3075C50.3746 32.2995 52.0032 32.4603 53.6022 32.7872C55.0245 33.0714 56.3865 33.6007 57.6275 34.3515C58.7892 35.0689 59.7675 36.0472 60.4849 37.2089C61.2672 38.535 61.718 40.0304 61.7989 41.568C61.856 42.0455 61.8839 42.5261 61.8823 43.0071V52.3718C61.8823 53.3729 61.8893 54.3462 61.9032 55.2917C61.9073 56.1262 61.9982 56.958 62.1743 57.7737C62.3024 58.4179 62.5891 59.0201 63.0086 59.5256C63.2337 59.7587 63.5074 59.9393 63.8102 60.0547C64.1129 60.17 64.4374 60.2173 64.7605 60.1931V60.6519C63.5147 60.6719 62.2703 60.5601 61.048 60.3182C60.1278 60.1448 59.2583 59.767 58.5035 59.2128C57.8151 58.67 57.3004 57.9378 57.0227 57.1062C56.6758 56.0289 56.5136 54.9006 56.543 53.7692C55.8823 55.808 54.5983 57.588 52.8722 58.8582C51.2036 60.054 49.0902 60.6658 46.5317 60.6936C43.2252 60.752 40.7224 60.029 39.0233 58.5245C37.3241 57.02 36.4579 54.983 36.4245 52.4135ZM41.7639 52.8306C41.7639 54.9441 42.238 56.6057 43.1863 57.8154C44.1346 59.0251 45.6641 59.6299 47.7748 59.6299C48.9358 59.6364 50.0896 59.446 51.187 59.0668C52.2489 58.6988 53.2043 58.0757 53.9692 57.2522C54.812 56.3111 55.4461 55.2023 55.8297 53.9986C56.3264 52.4065 56.5589 50.7437 56.5179 49.0764V43.9039C55.6531 43.9039 54.6909 43.9039 53.6314 43.9039C52.5461 43.9213 51.4633 44.0119 50.3902 44.175C49.3016 44.34 48.2305 44.6053 47.1908 44.9676C46.1864 45.315 45.2515 45.8375 44.4294 46.511C43.6014 47.2052 42.9375 48.0742 42.4855 49.0555C41.9671 50.2445 41.7206 51.5342 41.7639 52.8306ZM41.9307 38.5229C41.9716 39.1846 42.1283 39.8341 42.3937 40.4417C42.9134 41.5734 43.8266 42.4777 44.9633 42.9862C46.1038 43.489 47.3377 43.7448 48.584 43.7371C49.7576 43.598 50.9005 43.5076 52.0129 43.4659C53.1308 43.4242 54.2154 43.4033 55.2749 43.4033H56.5263C56.5124 41.9815 56.3658 40.564 56.0883 39.1694C55.8643 37.9836 55.417 36.8511 54.7701 35.8323C54.1635 34.9073 53.3364 34.1476 52.3633 33.6215C51.1976 33.0442 49.9095 32.758 48.6091 32.7872C47.7623 32.7873 46.9197 32.9067 46.1062 33.1418C45.3326 33.3629 44.6089 33.7312 43.9747 34.2264C43.3568 34.7192 42.8506 35.3377 42.4897 36.0409C42.1055 36.8109 41.9137 37.6625 41.9307 38.5229Z" fill="#534930"/>
<path d="M67.7513 60.2137C68.2524 60.2374 68.7521 60.1446 69.2113 59.9426C69.5609 59.7755 69.8518 59.5064 70.0456 59.1709C70.2561 58.7918 70.384 58.3724 70.421 57.9403C70.4806 57.4071 70.5084 56.8709 70.5044 56.3344V33.371C70.506 33.1757 70.5199 32.9806 70.5461 32.787H67.7513V32.3282H70.6296C70.7998 31.1279 71.1514 29.9605 71.6724 28.866C72.2047 27.7529 72.9485 26.7541 73.8624 25.9252C74.8685 25.0355 76.037 24.3485 77.3037 23.9021C78.8324 23.3744 80.4422 23.1202 82.0591 23.1512C84.0461 23.1916 86.0209 23.4717 87.9407 23.9855L86.1887 30.7431H85.855C85.7711 29.8807 85.6035 29.0285 85.3545 28.1986C85.1257 27.4083 84.7813 26.6563 84.3325 25.9669C83.9082 25.3206 83.3363 24.7844 82.6639 24.4026C81.9021 23.9937 81.0462 23.7923 80.182 23.8186C79.2225 23.7984 78.272 24.0057 77.408 24.4235C76.6509 24.8002 75.9772 25.325 75.4266 25.9669C74.9183 26.5616 74.5288 27.2484 74.2795 27.99C74.0548 28.6393 73.9696 29.3286 74.0292 30.0131C74.0859 30.607 74.3265 31.1684 74.7175 31.6191C74.9364 31.8513 75.2019 32.0345 75.4967 32.1567C75.7915 32.2789 76.1088 32.3374 76.4278 32.3282C77.1028 32.2651 77.7833 32.2932 78.4509 32.4116C78.8806 32.4944 79.2782 32.6968 79.598 32.9956C80.0019 33.3555 80.2551 33.8545 80.3071 34.393C80.3301 34.9119 80.2226 35.4282 79.9943 35.8947C79.7326 36.4561 79.4109 36.9876 79.0348 37.4798C78.6177 38.0221 78.2006 38.6019 77.7834 39.2109C77.3512 39.8276 76.9543 40.4682 76.5946 41.1298C76.2411 41.7834 75.988 42.4865 75.8438 43.2154V56.2301C75.8411 56.7804 75.869 57.3305 75.9272 57.8778C75.9701 58.3153 76.0976 58.7403 76.3026 59.1292C76.4922 59.4835 76.7825 59.7738 77.1369 59.9634C77.5924 60.1784 78.0937 60.2787 78.5969 60.2554V60.6726C77.4289 60.6197 76.4556 60.578 75.6769 60.5474C74.901 60.5224 74.1627 60.5057 73.4661 60.5057C72.6596 60.5057 71.8254 60.5266 70.9633 60.5683C70.129 60.61 69.0403 60.6475 67.7305 60.6726L67.7513 60.2137ZM75.8438 41.6512C76.1518 40.9003 76.5436 40.1867 77.0117 39.5238L78.3674 37.6258C78.7651 37.0895 79.1341 36.5326 79.4728 35.9573C79.7598 35.5101 79.9052 34.9867 79.89 34.4556C79.8845 34.0746 79.7355 33.7096 79.4728 33.4336C79.24 33.2008 78.9535 33.0289 78.6386 32.933C78.2788 32.8328 77.9067 32.7836 77.5332 32.787H76.386C76.2982 32.7597 76.2069 32.7456 76.1149 32.7453C76.0228 32.7465 75.9312 32.7324 75.8438 32.7036V41.6512Z" fill="#534930"/>
<path d="M89.7343 27.3851C89.3137 28.1631 89.1391 29.0504 89.2338 29.9296C89.3366 30.7164 89.6541 31.4596 90.1515 32.0779C90.6699 32.7165 91.3258 33.2298 92.0703 33.5796C92.8509 33.9551 93.7069 34.1477 94.5731 34.1427C96.0044 34.1224 97.4273 33.9191 98.807 33.5379C100.391 33.1219 101.942 32.5922 103.45 31.9528C105.01 31.302 106.525 30.5859 107.997 29.8045C109.468 29.0231 110.775 28.2583 111.918 27.5103C113.887 26.1934 115.743 24.7144 117.466 23.0886V48.9927C117.747 47.8811 118.25 46.838 118.946 45.9268C119.593 45.1177 120.327 44.3832 121.136 43.7368C121.951 43.0952 122.808 42.5098 123.702 41.9849C124.609 41.4566 125.486 40.8787 126.33 40.2538C127.191 39.6181 127.982 38.8908 128.686 38.0847C129.457 37.1898 130.065 36.1661 130.48 35.0604C130.578 34.8215 130.626 34.5654 130.622 34.3075C130.619 34.0495 130.563 33.7948 130.459 33.5587C130.251 33.1166 129.758 32.8079 128.978 32.641L129.02 32.3073C129.746 32.3657 130.355 32.3991 130.856 32.4116C131.356 32.4241 131.857 32.4116 132.357 32.4116C132.858 32.4116 133.325 32.4116 133.838 32.4116C134.351 32.4116 135.014 32.3657 135.819 32.3073H135.945V32.641C135.26 32.7015 134.582 32.8272 133.922 33.0165C133.416 33.1657 132.943 33.406 132.524 33.7256C132.107 34.0654 131.735 34.458 131.419 34.8936C131.074 35.3691 130.678 35.9531 130.23 36.6455C129.72 37.5896 129.065 38.4481 128.29 39.1901C127.569 39.8759 126.795 40.5036 125.975 41.0672C125.171 41.6233 124.358 42.1448 123.535 42.6314C122.727 43.1122 121.953 43.6488 121.22 44.2374C121.507 44.1587 121.8 44.103 122.096 44.0705C122.375 44.0455 122.667 44.0288 122.972 44.0288C123.67 44.0264 124.366 44.1247 125.037 44.3208C125.632 44.4903 126.201 44.7431 126.726 45.0717C127.528 45.5667 128.235 46.2027 128.812 46.9488C129.449 47.7646 130.021 48.6294 130.522 49.535C131.05 50.4833 131.572 51.4566 132.086 52.455C132.603 53.4728 133.15 54.4572 133.734 55.4166C134.305 56.3592 134.953 57.2522 135.673 58.0863C136.372 58.8995 137.196 59.5964 138.114 60.1511V60.5683C137.279 60.5432 136.591 60.5265 136.049 60.5265H134.485C133.984 60.5265 133.463 60.5265 132.92 60.5265C132.378 60.5265 131.69 60.5474 130.856 60.5474C130.38 59.7045 129.955 58.8339 129.583 57.9403C129.152 56.9253 128.714 55.8616 128.269 54.7492C127.827 53.6396 127.372 52.5175 126.914 51.4121C126.455 50.3067 125.992 49.2597 125.516 48.3253C125.108 47.4983 124.626 46.7095 124.077 45.9685C123.715 45.4269 123.199 45.0057 122.596 44.7588C122.455 44.7034 122.308 44.6615 122.158 44.6337C122.014 44.6078 121.867 44.5938 121.72 44.592C121.076 44.6176 120.465 44.8858 120.01 45.3428C119.265 46.1281 118.665 47.039 118.237 48.0333C117.739 49.2739 117.477 50.5967 117.466 51.9335V56.0215C117.496 57.4397 117.726 58.4826 118.154 59.15C118.582 59.8174 119.451 60.1511 120.761 60.1511V60.5683C120.177 60.514 119.426 60.4807 118.508 60.464C117.591 60.4473 116.577 60.4431 115.463 60.4431C114.349 60.4431 113.252 60.4431 112.084 60.464C110.916 60.4848 109.807 60.514 108.747 60.5683V60.1511C109.316 60.1745 109.884 60.0823 110.416 59.88C110.814 59.7182 111.155 59.4425 111.396 59.0874C111.659 58.6768 111.829 58.2144 111.897 57.7317C112.003 57.0837 112.052 56.4277 112.043 55.7712V32.8287C112.041 32.01 111.849 31.2028 111.48 30.4719C111.163 29.9296 110.488 29.6168 109.456 29.5334C108.344 30.1758 107.204 30.7667 106.036 31.3062C104.868 31.8457 103.658 32.3532 102.407 32.8287V56.0632C102.436 57.4564 102.666 58.4826 103.095 59.15C103.525 59.8174 104.397 60.1511 105.702 60.1511V60.5683C104.868 60.5154 103.895 60.4737 102.782 60.4431C101.656 60.4181 100.463 60.4014 99.1908 60.4014C98.3106 60.4014 97.4013 60.4014 96.4752 60.4431C95.5492 60.4848 94.6357 60.514 93.743 60.5683V60.1511C94.3185 60.1731 94.8927 60.081 95.4324 59.88C95.8387 59.7234 96.1878 59.447 96.4335 59.0874C96.6933 58.6831 96.8639 58.228 96.9341 57.7526C97.0406 57.1117 97.0894 56.4625 97.0801 55.8129V40.1078C97.0801 39.2485 97.0801 38.4809 97.0592 37.8135C97.0629 37.2461 96.9712 36.682 96.7881 36.145C96.6387 35.7235 96.3616 35.359 95.9955 35.1021C95.5151 34.816 94.9693 34.658 94.4104 34.6433C94.1217 34.5851 93.8287 34.5502 93.5344 34.539C92.8244 34.4338 92.1432 34.1855 91.5322 33.809C90.3936 33.2048 89.5175 32.2025 89.0711 30.9933C88.8577 30.3796 88.7771 29.7276 88.8347 29.0804C88.8922 28.4332 89.0865 27.8056 89.4048 27.2391C90.0106 25.9671 91.0655 24.9642 92.3664 24.4235C93.7135 23.8597 95.1611 23.5759 96.6212 23.5892C97.2808 23.5923 97.9396 23.6341 98.5943 23.7143C99.2587 23.783 99.9102 23.9445 100.53 24.194C101.105 24.4319 101.61 24.8123 101.998 25.2994C102.408 25.8603 102.613 26.5452 102.578 27.2391C102.604 28.0762 102.305 28.8907 101.744 29.5125C101.467 29.8215 101.126 30.0658 100.745 30.228C100.364 30.3903 99.9512 30.4664 99.537 30.4511C99.1347 30.4661 98.7334 30.4 98.3572 30.2567C97.9809 30.1133 97.6374 29.8957 97.347 29.6168C97.0495 29.3 96.8202 28.9255 96.6731 28.5166C96.526 28.1076 96.4643 27.6729 96.4919 27.2391C96.4803 26.563 96.6611 25.8975 97.0133 25.3203C97.3472 24.7795 97.8545 24.3678 98.4525 24.1523C97.8583 24.0681 97.2589 24.0263 96.6588 24.0272C95.2733 23.9876 93.8941 24.2289 92.6042 24.7363C91.3518 25.2322 90.3288 26.1764 89.7343 27.3851Z" fill="#534930"/>
<path d="M139.206 52.4135C139.177 51.2262 139.465 50.0526 140.04 49.0138C140.605 48.0463 141.374 47.2135 142.293 46.5736C143.304 45.875 144.415 45.3336 145.588 44.9676C146.886 44.5544 148.21 44.2269 149.551 43.9873C148.404 43.7948 147.322 43.322 146.402 42.6108C145.63 42.0063 145.032 41.2073 144.671 40.2957C144.338 39.433 144.231 38.5 144.358 37.5843C144.486 36.6456 144.852 35.7554 145.421 34.9981C146.053 34.1675 146.876 33.502 147.82 33.0584C148.977 32.5283 150.24 32.2714 151.512 32.3075C153.144 32.2997 154.772 32.4605 156.371 32.7872C157.794 33.0714 159.156 33.6007 160.397 34.3515C161.557 35.0701 162.535 36.0482 163.254 37.2089C164.036 38.535 164.487 40.0304 164.568 41.568C164.625 42.0455 164.653 42.5261 164.651 43.0071V52.3718C164.651 53.3729 164.651 54.3462 164.651 55.2917C164.656 56.1262 164.746 56.958 164.923 57.7737C165.051 58.4179 165.337 59.0201 165.757 59.5256C165.982 59.7589 166.255 59.9397 166.558 60.0551C166.861 60.1704 167.186 60.2176 167.509 60.1931V60.6519C166.263 60.6719 165.019 60.5601 163.796 60.3182C162.876 60.1448 162.007 59.767 161.252 59.2128C160.563 58.67 160.049 57.9378 159.771 57.1062C159.424 56.0289 159.262 54.9006 159.291 53.7692C158.631 55.808 157.347 57.588 155.62 58.8582C153.952 60.054 151.838 60.6658 149.28 60.6936C145.971 60.752 143.461 60.029 141.751 58.5245C140.04 57.02 139.192 54.983 139.206 52.4135ZM144.545 52.8306C144.545 54.9441 145.02 56.6057 145.968 57.8154C146.916 59.0251 148.455 59.6369 150.586 59.6508C151.747 59.6572 152.9 59.4668 153.998 59.0876C155.059 58.7187 156.014 58.0958 156.78 57.2731C157.621 56.3309 158.255 55.2224 158.64 54.0194C159.137 52.4273 159.37 50.7646 159.329 49.0972V43.9248C158.467 43.9248 157.504 43.9248 156.442 43.9248C155.357 43.9422 154.274 44.0328 153.201 44.1959C152.112 44.3608 151.041 44.6262 150.002 44.9885C148.997 45.3358 148.062 45.8583 147.24 46.5319C146.412 47.226 145.748 48.095 145.296 49.0764C144.771 50.2567 144.514 51.539 144.545 52.8306ZM144.712 38.5229C144.747 39.1909 144.899 39.8477 145.163 40.4625C145.681 41.5951 146.595 42.4998 147.732 43.0071C148.873 43.5098 150.107 43.7657 151.353 43.7579C152.527 43.6189 153.67 43.5285 154.782 43.4868C155.9 43.4451 156.984 43.4242 158.044 43.4242H159.295C159.277 42.0026 159.131 40.5855 158.857 39.1903C158.633 38.0044 158.186 36.872 157.539 35.8532C156.933 34.9282 156.105 34.1685 155.132 33.6424C153.967 33.0651 152.679 32.7788 151.378 32.8081C150.531 32.8082 149.689 32.9276 148.875 33.1627C148.102 33.3838 147.378 33.752 146.744 34.2472C146.125 34.739 145.618 35.3577 145.259 36.0618C144.882 36.8265 144.695 37.6706 144.712 38.5229Z" fill="#534930"/>
<path d="M51.1869 11.8716C51.2357 11.8698 51.2843 11.879 51.3291 11.8985C51.3738 11.9179 51.4136 11.9473 51.4455 11.9842C51.5096 12.0615 51.5437 12.1592 51.5415 12.2596C51.5433 12.3062 51.5357 12.3528 51.5192 12.3965C51.5027 12.4402 51.4777 12.4801 51.4455 12.514C51.4109 12.5463 51.3702 12.5714 51.3258 12.5878C51.2814 12.6043 51.2342 12.6118 51.1869 12.61C49.8663 12.6015 48.5534 12.4077 47.2867 12.0343C45.7222 11.5661 44.1896 10.9976 42.6982 10.3324C42.6565 10.395 42.5814 10.5243 42.473 10.7162C40.6546 13.4913 39.0869 16.4228 37.7885 19.476C36.6039 22.3431 36.2562 24.344 36.7457 25.4786C36.8717 25.7561 37.0827 25.9864 37.3481 26.1364C37.6134 26.2863 37.9196 26.3481 38.2223 26.3129C39.0566 26.3129 40.1273 25.6385 41.4343 24.2897C42.8025 22.8993 44.9201 20.2894 47.7873 16.4601C47.9124 16.2682 48.0793 16.2474 48.2837 16.3975C48.3293 16.4201 48.3689 16.4533 48.399 16.4943C48.4292 16.5354 48.449 16.5831 48.4567 16.6335C48.4645 16.6838 48.46 16.7353 48.4437 16.7835C48.4274 16.8318 48.3997 16.8754 48.3629 16.9106C47.2505 18.3873 46.3356 19.59 45.6182 20.5188C44.9049 21.4491 44.1206 22.4085 43.278 23.3929C42.5991 24.2021 41.8705 24.9684 41.0964 25.6872C40.533 26.1995 39.9131 26.646 39.2485 27.0178C38.7325 27.3307 38.1454 27.5073 37.5424 27.5309C36.2576 27.5309 35.4011 26.997 34.9729 25.9291C34.5696 24.9669 34.5599 23.5973 34.9437 21.8203C35.4413 19.7299 36.1833 17.7054 37.1545 15.7885C38.1928 13.6547 39.3949 11.6046 40.7502 9.65663C40.7754 9.61011 40.8077 9.56787 40.8461 9.53149C39.197 8.8029 37.8817 8.24671 36.9 7.86295C35.675 7.4012 34.4209 7.02078 33.1458 6.72417C31.7403 6.36318 30.2962 6.17409 28.8451 6.16104C27.8076 6.13926 26.7731 6.28001 25.7792 6.57817C24.9379 6.83641 24.1575 7.26207 23.4849 7.82958C22.8325 8.4027 22.3178 9.11562 21.9791 9.91526L21.9457 9.97783C21.9331 10.0285 21.9085 10.0753 21.8739 10.1144C21.8394 10.1536 21.796 10.1838 21.7473 10.2026C21.6986 10.2214 21.6462 10.2283 21.5943 10.2225C21.5424 10.2168 21.4927 10.1987 21.4493 10.1697C21.406 10.1552 21.3664 10.1313 21.3332 10.0998C21.3001 10.0683 21.2743 10.03 21.2576 9.98741C21.2409 9.94487 21.2337 9.89918 21.2366 9.85356C21.2394 9.80794 21.2522 9.76351 21.2741 9.72337L21.3033 9.65663C22.5464 6.85904 25.0603 5.45886 28.8451 5.45608C29.7474 5.4566 30.6482 5.52633 31.5398 5.66465C32.4617 5.8023 33.2835 5.96498 34.0134 6.14435C34.8774 6.37632 35.7282 6.65482 36.5621 6.97862C37.5327 7.3457 38.3085 7.6516 38.8898 7.89632C39.471 8.14104 40.2621 8.48865 41.2633 8.93916L41.3592 8.80985C43.4977 5.87878 45.4555 3.71801 47.2325 2.32756C47.404 2.18539 47.5933 2.06619 47.7956 1.973C48.0292 1.86276 48.2759 1.78285 48.5298 1.73523C48.6373 1.70196 48.7518 1.69754 48.8616 1.72244C48.9714 1.74733 49.0727 1.80065 49.1555 1.87705C49.4767 2.19825 49.3724 2.60704 48.8384 3.09509C46.8358 4.91894 45.041 6.95861 43.4866 9.17693C43.3781 9.3271 43.2613 9.51064 43.132 9.72337C46.5164 11.1555 49.2013 11.8716 51.1869 11.8716Z" fill="#B28E6A"/>
<path d="M66.3247 2.21531V2.44056C66.2685 3.20303 66.0837 3.95051 65.7783 4.65138C65.4342 5.46412 64.9809 6.22615 64.4309 6.91643C63.8276 7.68676 63.1391 8.38642 62.3786 9.00211C59.5393 11.3436 56.0549 12.5464 51.9252 12.6103C50.55 14.934 49.4004 17.3841 48.4922 19.9269C50.03 17.5325 51.6235 16.3354 53.2726 16.3354C53.6062 16.3293 53.9382 16.3829 54.2528 16.4939C54.5414 16.6021 54.7962 16.7849 54.9912 17.0236C55.169 17.2419 55.3321 17.4718 55.4792 17.7119C55.6329 17.9994 55.7412 18.309 55.8004 18.6296C55.8838 19.0217 55.9422 19.3346 55.9756 19.5598C56.009 19.7851 56.0549 20.1104 56.1216 20.5359C56.1877 21.2681 56.3375 21.9902 56.5679 22.6883C56.6232 22.8751 56.7377 23.0388 56.8943 23.1547C57.0508 23.2706 57.2408 23.3324 57.4356 23.3307C58.4402 23.2763 59.3894 22.853 60.1011 22.1419V22.1085C61.3767 20.7987 62.4965 19.3458 63.4382 17.7786L64.2724 16.4605C64.2972 16.4167 64.3318 16.3794 64.3737 16.3514C64.4155 16.3235 64.4633 16.3058 64.5132 16.2997C64.5631 16.2936 64.6137 16.2993 64.661 16.3164C64.7083 16.3334 64.751 16.3614 64.7855 16.3979C64.8287 16.4225 64.8659 16.4562 64.8948 16.4967C64.9236 16.5371 64.9432 16.5834 64.9524 16.6322C64.9615 16.6811 64.9599 16.7313 64.9476 16.7794C64.9354 16.8276 64.9128 16.8725 64.8814 16.911C64.7313 17.1029 64.4643 17.52 64.0472 18.1624C63.1557 19.638 62.1233 21.0238 60.9645 22.3004L60.9353 22.3338L60.5182 22.7509C59.2334 23.9272 57.9389 24.5154 56.6347 24.5154C56.2856 24.5281 55.9384 24.4594 55.6205 24.3146C55.3027 24.1697 55.0229 23.9529 54.8035 23.6811C54.6011 23.3937 54.45 23.0733 54.3571 22.7342C54.2493 22.415 54.1629 22.0889 54.0985 21.7581C54.0568 21.512 54.0151 21.1533 53.9692 20.6819C53.9066 20.1271 53.8482 19.7016 53.794 19.4305C53.7376 19.1292 53.651 18.8343 53.5354 18.5503C53.4539 18.2966 53.2912 18.0767 53.0723 17.9246C52.837 17.7938 52.5696 17.7317 52.3006 17.7453C51.2939 17.7453 50.2136 18.6226 49.0595 20.3774C49.0436 20.4124 49.0225 20.4447 48.9969 20.4733C48.9969 20.5401 48.9552 20.5693 48.9343 20.5693C48.2614 21.6582 47.6917 22.8075 47.2324 24.0023C47.2282 24.0687 47.217 24.1344 47.1991 24.1984C47.1896 24.2061 47.1818 24.2156 47.1761 24.2263C47.1704 24.237 47.1668 24.2488 47.1657 24.2609C47.0197 24.8825 46.7486 25.1911 46.3648 25.1911C46.3106 25.1881 46.2571 25.1768 46.2063 25.1578C46.06 25.121 45.9256 25.0471 45.816 24.9434C45.7064 24.8397 45.6254 24.7095 45.5806 24.5654C45.425 24.2533 45.3738 23.8994 45.4346 23.556C46.049 20.5431 47.0296 17.6168 48.3545 14.842C49.687 12.0289 51.3506 9.38501 53.3101 6.96648C54.8513 5.02118 56.6585 3.30241 58.6786 1.86074C60.4848 0.62185 62.0741 0.000317637 63.4465 0.000317637C63.8682 -0.00445658 64.2887 0.0446057 64.6979 0.146315C64.9959 0.217378 65.2785 0.341739 65.5322 0.513395C65.7293 0.659149 65.8929 0.845489 66.0119 1.05984C66.124 1.25085 66.2109 1.45556 66.2705 1.66886C66.3083 1.84851 66.3265 2.03173 66.3247 2.21531ZM52.3757 11.872C53.8778 11.8166 55.366 11.5627 56.8015 11.117C58.0976 10.733 59.3344 10.1715 60.4765 9.44844C61.4693 8.81443 62.3848 8.06689 63.2046 7.22094C63.9251 6.48836 64.5212 5.64295 64.969 4.71812C65.3423 3.96197 65.5553 3.13688 65.5948 2.29456C65.5725 1.50201 65.2513 1.10573 64.6312 1.10573C63.7161 1.15384 62.8255 1.41831 62.0324 1.87743C60.9108 2.48466 59.8614 3.2165 58.9039 4.05905C57.7329 5.07303 56.6436 6.17769 55.6461 7.36276C54.4414 8.77935 53.348 10.2869 52.3757 11.872Z" fill="#B28E6A"/>
<path d="M78.1087 16.4309C78.1484 16.4608 78.1807 16.4995 78.2029 16.5441C78.2251 16.5886 78.2366 16.6376 78.2366 16.6874C78.2366 16.7371 78.2251 16.7862 78.2029 16.8307C78.1807 16.8752 78.1484 16.914 78.1087 16.9439C76.7497 18.3346 75.2369 19.5662 73.5994 20.6147C72.0035 21.6653 70.3122 22.5633 68.5479 23.2969L68.4812 23.3595H68.4103C67.8068 23.6283 67.1851 23.8541 66.5498 24.0352C65.8074 24.3081 65.0287 24.4698 64.2389 24.5149C64.0177 24.5164 63.7969 24.4954 63.5798 24.4524C63.3486 24.3991 63.1265 24.3119 62.9208 24.1937C62.6579 24.0565 62.4267 23.8657 62.242 23.6336C62.0574 23.4016 61.9234 23.1334 61.8487 22.8464C61.7229 22.43 61.6624 21.9966 61.6694 21.5616C61.6905 20.4667 61.9767 19.3932 62.5036 18.4331C63.0517 17.3761 63.8181 16.4477 64.752 15.7092C65.559 15.0147 66.5824 14.6224 67.6469 14.5996C68.276 14.559 68.8969 14.7604 69.3822 15.1628C69.7479 15.4656 69.9873 15.894 70.0538 16.3641V16.4934C70.0449 16.7038 69.9916 16.91 69.8975 17.0983C69.8033 17.2867 69.6703 17.453 69.5073 17.5863C68.8243 18.1917 68.0038 18.6212 67.1172 18.8377C66.2468 19.115 65.3488 19.2968 64.4391 19.38C64.0538 20.0575 63.8337 20.8164 63.7968 21.595C63.7968 22.3458 63.9428 22.8464 64.2139 23.105C64.5433 23.3743 64.9612 23.5111 65.386 23.4888C65.92 23.4888 66.8293 23.2218 68.1141 22.6879L68.1767 22.6545H68.2393C69.9493 21.9189 71.5932 21.0383 73.1531 20.0224C74.759 18.9923 76.2461 17.7878 77.5873 16.4309C77.617 16.3895 77.6562 16.3558 77.7015 16.3326C77.7468 16.3094 77.797 16.2973 77.848 16.2973C77.8989 16.2973 77.9491 16.3094 77.9944 16.3326C78.0398 16.3558 78.0789 16.3895 78.1087 16.4309ZM68.4103 16.1097C67.7181 16.1271 67.0516 16.3752 66.5165 16.8146C65.8756 17.3061 65.3227 17.9027 64.8813 18.5791C65.673 18.4798 66.4518 18.2966 67.2048 18.0327C67.8714 17.8446 68.4901 17.516 69.0193 17.0691C69.103 16.997 69.1715 16.9089 69.221 16.8101C69.2704 16.7113 69.2996 16.6037 69.3071 16.4934C69.3155 16.2348 69.0151 16.1097 68.4103 16.1097Z" fill="#B28E6A"/>
<path d="M0.79248 79.9074V74.4846H3.57895C3.92429 74.4781 4.26747 74.5405 4.58841 74.6681C4.8539 74.7666 5.08061 74.948 5.23498 75.1854C5.39479 75.4503 5.47312 75.7564 5.46023 76.0655C5.4674 76.2792 5.42604 76.4917 5.33926 76.6871C5.26294 76.8496 5.15017 76.9923 5.00972 77.1042C4.86226 77.2189 4.6956 77.3065 4.5175 77.3628C4.31952 77.4245 4.11523 77.4637 3.90848 77.4796L3.85008 77.4296C4.1316 77.431 4.41184 77.4674 4.68436 77.538C4.88876 77.5842 5.07039 77.7009 5.19743 77.8676C5.33212 78.0769 5.39507 78.3243 5.3768 78.5725V79.9074H4.55504V78.5976C4.56582 78.4212 4.52832 78.2453 4.44659 78.0886C4.40473 78.0224 4.34989 77.9653 4.28536 77.9209C4.22084 77.8764 4.14797 77.8455 4.07117 77.83C3.83068 77.7736 3.58393 77.7484 3.33701 77.7549H1.59338V79.9074H0.79248ZM1.59338 77.0542H3.57895C3.87207 77.0753 4.1616 76.9793 4.38402 76.7872C4.47526 76.6955 4.54646 76.5859 4.59314 76.4652C4.63981 76.3446 4.66093 76.2156 4.65516 76.0864C4.66289 75.9656 4.64242 75.8447 4.59536 75.7332C4.5483 75.6217 4.47595 75.5227 4.38402 75.444C4.15032 75.277 3.8654 75.1972 3.57895 75.2188H1.59338V77.0542Z" fill="#534930"/>
<path d="M18.1246 77.5628V79.1897H21.6119V79.9071H17.3237V74.4844H21.6035V75.2018H18.1246V76.8704H20.9695V77.5712L18.1246 77.5628Z" fill="#534930"/>
<path d="M33.6797 78.1297H34.4472C34.4612 78.3432 34.5382 78.5479 34.6683 78.7178C34.8064 78.9014 34.9906 79.0453 35.2022 79.135C35.4516 79.2398 35.7202 79.291 35.9906 79.2851C36.2124 79.2908 36.4333 79.254 36.6413 79.1767C36.7956 79.1159 36.93 79.0133 37.0293 78.8805C37.116 78.748 37.161 78.5925 37.1586 78.4342C37.1671 78.282 37.1163 78.1324 37.0167 78.017C36.9003 77.8989 36.7573 77.8102 36.5996 77.7584C36.3701 77.6771 36.1361 77.6089 35.8988 77.554C35.6527 77.4914 35.4108 77.4164 35.1772 77.3329C34.9494 77.2496 34.7312 77.1419 34.5264 77.0117C34.3369 76.8929 34.1748 76.735 34.0509 76.5487C33.9271 76.3532 33.8646 76.1251 33.8715 75.8938C33.8691 75.6278 33.9476 75.3674 34.0968 75.1471C34.2624 74.9076 34.4923 74.7196 34.76 74.6049C35.0954 74.4599 35.4585 74.3901 35.8237 74.4005C36.3566 74.3612 36.8833 74.5353 37.2879 74.8843C37.4554 75.0532 37.5849 75.256 37.6676 75.479C37.7503 75.702 37.7844 75.9402 37.7676 76.1775H37.0167C37.0269 76.02 36.9998 75.8623 36.9374 75.7173C36.8751 75.5723 36.7793 75.4441 36.658 75.3432C36.4034 75.1687 36.0987 75.0822 35.7904 75.0971C35.5169 75.0889 35.2462 75.1536 35.0062 75.2848C34.9019 75.3421 34.816 75.4278 34.7585 75.5318C34.7009 75.6359 34.6739 75.7542 34.6808 75.873C34.6784 75.9793 34.7043 76.0844 34.7559 76.1775C34.8202 76.2747 34.9058 76.356 35.0062 76.4152C35.1551 76.5019 35.3132 76.5719 35.4775 76.6238C35.6736 76.6905 35.9197 76.7615 36.2158 76.8407C36.4356 76.8895 36.6516 76.9536 36.8624 77.0326C37.0622 77.1045 37.2516 77.2027 37.4255 77.3246C37.5987 77.4391 37.7418 77.5936 37.8427 77.7751C37.9454 77.9852 37.9955 78.2171 37.9887 78.4509C37.991 78.7223 37.9189 78.9892 37.7801 79.2226C37.6247 79.4749 37.3963 79.6742 37.1252 79.794C36.7671 79.9413 36.3818 80.0109 35.9948 79.9984C35.6707 80.0039 35.348 79.956 35.0395 79.8566C34.7942 79.7755 34.5653 79.6512 34.3638 79.4895C34.1973 79.354 34.0561 79.1902 33.9466 79.0056C33.8511 78.8538 33.7807 78.6876 33.7381 78.5134C33.6934 78.3906 33.6736 78.2602 33.6797 78.1297Z" fill="#534930"/>
<path d="M49.7852 74.4924H54.5322V75.2099H49.7852V74.4924ZM51.754 75.1265H52.5591V79.9069H51.7499L51.754 75.1265Z" fill="#534930"/>
<path d="M65.8575 79.9071L68.0684 74.4844H68.9026L71.1301 79.9071H70.2625L68.327 75.0183H68.6273L66.7002 79.9071H65.8575ZM67.0339 78.564V77.8465H69.9538V78.564H67.0339Z" fill="#534930"/>
<path d="M86.522 77.6837V74.4468H87.3229V77.7171C87.3253 77.9997 87.2845 78.2811 87.2019 78.5514C87.128 78.7829 87.0105 78.9981 86.8557 79.1854C86.7066 79.3563 86.5269 79.4978 86.3259 79.6026C86.1127 79.7135 85.8853 79.7949 85.6501 79.8445C85.3907 79.8973 85.1265 79.9239 84.8618 79.9238C84.5901 79.9241 84.319 79.8975 84.0525 79.8445C83.8133 79.7949 83.5819 79.7135 83.3642 79.6026C83.1606 79.5 82.9791 79.3582 82.8303 79.1854C82.6768 78.9979 82.5607 78.7827 82.4883 78.5514C82.4057 78.2811 82.3649 77.9997 82.3673 77.7171V74.4468H83.1682V77.6837C83.1462 78.0194 83.2262 78.3538 83.3976 78.6432C83.5453 78.86 83.7611 79.0215 84.0108 79.102C84.2807 79.1869 84.5622 79.2291 84.8451 79.2271C85.1281 79.2312 85.4099 79.1889 85.6793 79.102C85.9261 79.0201 86.1388 78.8588 86.2842 78.6432C86.4585 78.3547 86.5414 78.0202 86.522 77.6837Z" fill="#534930"/>
<path d="M98.861 79.9074V74.4846H101.647C101.99 74.4751 102.332 74.5333 102.653 74.6557C102.918 74.7552 103.144 74.9363 103.299 75.1729C103.459 75.4379 103.537 75.7439 103.525 76.0531C103.53 76.2666 103.488 76.4787 103.404 76.6746C103.326 76.8363 103.213 76.9788 103.074 77.0917C102.926 77.2056 102.76 77.2931 102.582 77.3504C102.384 77.412 102.18 77.4512 101.973 77.4672L101.914 77.4171C102.196 77.4185 102.476 77.4549 102.749 77.5256C102.952 77.574 103.133 77.6902 103.262 77.8551C103.396 78.0644 103.459 78.3118 103.441 78.5601V79.8949H102.615V78.5851C102.624 78.4089 102.587 78.2335 102.507 78.0762C102.465 78.0099 102.41 77.9529 102.345 77.9084C102.281 77.864 102.208 77.8331 102.131 77.8176C101.885 77.7602 101.633 77.7349 101.38 77.7425H99.6535V79.8949L98.861 79.9074ZM99.6619 77.0542H101.647C101.94 77.0749 102.23 76.9789 102.453 76.7872C102.543 76.695 102.614 76.5852 102.66 76.4648C102.707 76.3443 102.728 76.2155 102.724 76.0864C102.731 75.9657 102.71 75.845 102.663 75.7336C102.616 75.6223 102.544 75.5232 102.453 75.4441C102.218 75.2789 101.934 75.1994 101.647 75.2188H99.6619V77.0542Z" fill="#534930"/>
<path d="M114.887 79.9071L117.098 74.4844H117.932L120.16 79.9071H119.3L117.365 75.0183H117.665L115.738 79.9071H114.887ZM116.064 78.564V77.8465H118.983V78.564H116.064Z" fill="#534930"/>
<path d="M135.878 79.0228L135.644 79.1062V74.4927H136.454V79.9155H135.644L131.865 75.4021L132.099 75.3186V79.9071H131.298V74.4844H132.099L135.878 79.0228Z" fill="#534930"/>
<path d="M147.845 74.4924H152.592V75.2099H147.845V74.4924ZM149.814 75.1265H150.623V79.9069H149.814V75.1265Z" fill="#534930"/>
<path d="M164.426 78.1298H165.186C165.202 78.3429 165.278 78.547 165.407 78.7179C165.546 78.9006 165.73 79.0443 165.941 79.1351C166.19 79.2399 166.459 79.2911 166.729 79.2852C166.951 79.2917 167.172 79.2548 167.38 79.1768C167.536 79.1189 167.671 79.0158 167.768 78.8806C167.856 78.749 167.902 78.5929 167.897 78.4343C167.902 78.3588 167.892 78.2831 167.868 78.2115C167.844 78.1399 167.805 78.0738 167.755 78.0171C167.64 77.8972 167.497 77.8083 167.338 77.7585C167.109 77.6761 166.875 77.6078 166.637 77.5541C166.395 77.4915 166.153 77.4165 165.916 77.333C165.689 77.248 165.471 77.1404 165.265 77.0118C165.077 76.8909 164.915 76.7334 164.789 76.5488C164.667 76.3525 164.605 76.125 164.61 75.8939C164.608 75.6279 164.686 75.3675 164.835 75.1472C165.001 74.9077 165.231 74.7197 165.499 74.605C165.834 74.46 166.197 74.3902 166.562 74.4006C166.826 74.3804 167.091 74.4128 167.343 74.4959C167.594 74.579 167.826 74.711 168.026 74.8845C168.194 75.0533 168.323 75.2561 168.406 75.4791C168.489 75.7022 168.523 75.9403 168.506 76.1776H167.755C167.766 76.02 167.739 75.8621 167.677 75.717C167.614 75.5719 167.518 75.4438 167.396 75.3433C167.142 75.1676 166.837 75.0811 166.529 75.0972C166.255 75.0894 165.985 75.1541 165.745 75.2849C165.64 75.3422 165.555 75.4279 165.497 75.532C165.439 75.636 165.412 75.7543 165.419 75.8731C165.417 75.9794 165.443 76.0845 165.494 76.1776C165.559 76.2748 165.644 76.3561 165.745 76.4153C165.894 76.5013 166.052 76.5712 166.216 76.6239C166.416 76.6906 166.662 76.7616 166.954 76.8408C167.174 76.889 167.39 76.9531 167.601 77.0327C167.801 77.1046 167.99 77.2028 168.164 77.3247C168.331 77.4405 168.467 77.5951 168.56 77.7752C168.665 77.9847 168.715 78.217 168.706 78.451C168.714 78.7319 168.636 79.0085 168.483 79.2445C168.331 79.4805 168.11 79.6648 167.851 79.7733C167.493 79.921 167.108 79.9907 166.721 79.9777C166.397 79.9828 166.074 79.9348 165.765 79.8358C165.521 79.7529 165.292 79.6288 165.09 79.4688C164.925 79.3311 164.785 79.1677 164.673 78.9849C164.581 78.8313 164.51 78.6656 164.464 78.4927C164.431 78.3747 164.418 78.252 164.426 78.1298Z" fill="#534930"/>
<path d="M168.669 66.2913H0V66.967H168.669V66.2913Z" fill="#534930"/>
</svg>
