<svg width="53" height="53" viewBox="0 0 53 53" fill="none" xmlns="http://www.w3.org/2000/svg">
<rect width="53" height="53" rx="12" fill="#B28E6A"/>
<path d="M16.5427 16.3623H21.846L23.5551 20.6357L20.809 22.4664C20.6472 22.5743 20.5147 22.7205 20.423 22.8919C20.3313 23.0633 20.2833 23.2547 20.2833 23.4492C20.2869 23.5602 20.2833 23.4503 20.2833 23.4503V23.4751C20.284 23.528 20.2864 23.5807 20.2904 23.6334C20.2975 23.7303 20.3093 23.8614 20.3318 24.0232C20.3778 24.3421 20.4664 24.7815 20.6389 25.2988C20.9861 26.3382 21.6665 27.6836 22.9917 29.0088C24.317 30.334 25.6623 31.0144 26.7005 31.3616C27.219 31.5341 27.6572 31.6215 27.9785 31.6687C28.1598 31.694 28.3424 31.7098 28.5254 31.716L28.5407 31.7172H28.5502C28.5502 31.7172 28.6825 31.7101 28.5514 31.7172C28.7706 31.717 28.9856 31.6559 29.1721 31.5405C29.3586 31.4252 29.5093 31.2602 29.6073 31.064L30.3987 29.4813L35.6382 30.3553V35.4578C33.1448 35.8181 26.4099 36.1736 21.1184 30.8821C15.8269 25.5906 16.1812 18.8545 16.5427 16.3623ZM22.7319 24.0232L24.8662 22.6011C25.3171 22.3003 25.6508 21.8537 25.8115 21.336C25.9721 20.8184 25.9499 20.2613 25.7485 19.7581L24.0394 15.4847C23.864 15.0464 23.5613 14.6707 23.1703 14.406C22.7794 14.1414 22.3181 14 21.846 14H16.4812C15.4076 14 14.3977 14.7453 14.2217 15.9099C13.8201 18.558 13.2756 26.3796 19.4483 32.5522C25.6209 38.7249 33.4425 38.1792 36.0906 37.7788C37.2552 37.6016 38.0005 36.5929 38.0005 35.5193V30.3553C38.0006 29.7961 37.8023 29.255 37.4409 28.8283C37.0795 28.4016 36.5784 28.1169 36.0268 28.0249L30.7873 27.152C30.2889 27.0689 29.7771 27.1476 29.3268 27.3768C28.8765 27.606 28.5116 27.9735 28.2856 28.4253L27.8769 29.2438C27.7324 29.2083 27.5894 29.1669 27.4482 29.1198C26.7159 28.8765 25.6989 28.3757 24.6618 27.3387C23.6248 26.3016 23.124 25.2846 22.8807 24.5512C22.8226 24.3778 22.7733 24.2016 22.733 24.0232H22.7319Z" fill="white"/>
</svg>
