<svg width="25" height="25" viewBox="0 0 25 25" fill="none" xmlns="http://www.w3.org/2000/svg">
<path d="M4.70639 4.70652C4.92573 -0.172045 0.000634246 0.000756248 0.000634246 0.000756248C0.000634246 0.000756248 -0.172172 4.92586 4.70639 4.70652Z" fill="#B28E6A"/>
<path d="M7.61934 7.61913C3.89867 4.45608 1.01687 8.45416 1.01687 8.45416C1.01687 8.45416 4.80296 11.6092 7.61934 7.61913Z" fill="#B28E6A"/>
<path d="M7.61934 7.61913C4.45628 3.89847 8.45433 1.01669 8.45433 1.01669C8.45433 1.01669 11.609 4.8031 7.61934 7.61913Z" fill="#B28E6A"/>
<path d="M11.4595 11.4598C7.73885 8.29678 4.85705 12.2945 4.85705 12.2945C4.85705 12.2945 8.64313 15.4495 11.4595 11.4598Z" fill="#B28E6A"/>
<path d="M11.4595 11.4598C8.29646 7.73917 12.2946 4.85732 12.2946 4.85732C12.2946 4.85732 15.4492 8.64345 11.4595 11.4598Z" fill="#B28E6A"/>
<path d="M15.2998 15.3C11.5792 12.137 8.69737 16.1347 8.69737 16.1347C8.69737 16.1347 12.4838 19.2897 15.2998 15.3Z" fill="#B28E6A"/>
<path d="M15.2998 15.3C12.1368 11.5793 16.1349 8.69765 16.1349 8.69765C16.1349 8.69765 19.2895 12.484 15.2998 15.3Z" fill="#B28E6A"/>
<path d="M19.1406 19.1407C15.42 15.9777 12.5382 19.9757 12.5382 19.9757C12.5382 19.9757 16.3242 23.1304 19.1406 19.1407Z" fill="#B28E6A"/>
<path d="M19.1406 19.1407C15.9776 15.4201 19.9756 12.5383 19.9756 12.5383C19.9756 12.5383 23.1303 16.3243 19.1406 19.1407Z" fill="#B28E6A"/>
<path d="M22.9808 22.981C19.2601 19.818 16.3783 23.8161 16.3783 23.8161C16.3783 23.8161 20.1648 26.9707 22.9808 22.981Z" fill="#B28E6A"/>
<path d="M22.9808 22.981C19.8177 19.2604 23.8159 16.3786 23.8159 16.3786C23.8159 16.3786 26.9705 20.1647 22.9808 22.981Z" fill="#B28E6A"/>
</svg>
