<svg width="53" height="53" viewBox="0 0 53 53" fill="none" xmlns="http://www.w3.org/2000/svg">
<rect width="53" height="53" rx="12" fill="#B28E6A"/>
<path d="M26.1055 16.5265C28.1381 16.5265 30.0468 17.3021 31.4793 18.7119C32.9017 20.1102 33.6849 21.9697 33.6849 23.9416C33.6849 25.9135 32.9017 27.7692 31.4806 29.1701L26.1055 34.4554L20.7318 29.1675C19.3107 27.7692 18.5275 25.9135 18.5275 23.9391C18.5275 21.9647 19.3107 20.109 20.7318 18.7081C22.1661 17.3019 24.097 16.518 26.1055 16.5265ZM26.1055 14C23.4332 13.9927 20.8657 15.0389 18.9595 16.9118C18.0227 17.8273 17.2783 18.9209 16.77 20.1282C16.2618 21.3356 16 22.6323 16 23.9422C16 25.2522 16.2618 26.5489 16.77 27.7562C17.2783 28.9635 18.0227 30.0571 18.9595 30.9727L26.1055 38L33.2516 30.9702C34.1884 30.0548 34.9327 28.9615 35.4409 27.7543C35.9491 26.5472 36.2109 25.2507 36.2109 23.941C36.2109 22.6312 35.9491 21.3347 35.4409 20.1276C34.9327 18.9205 34.1884 17.8271 33.2516 16.9118C31.3455 15.0387 28.7779 13.9925 26.1055 14ZM26.1055 20.9465C26.9494 20.9465 27.7427 21.2749 28.3389 21.8699C28.9311 22.4626 29.2638 23.2661 29.2638 24.1039C29.2638 24.9417 28.9311 25.7453 28.3389 26.3379C27.7414 26.9342 26.9494 27.2613 26.1055 27.2613C25.2617 27.2613 24.4697 26.9329 23.8722 26.3379C23.28 25.7453 22.9473 24.9417 22.9473 24.1039C22.9473 23.2661 23.28 22.4626 23.8722 21.8699C24.1652 21.5763 24.5133 21.3436 24.8966 21.1851C25.2799 21.0267 25.6908 20.9456 26.1055 20.9465ZM26.1055 19.6833C25.378 19.6828 24.6616 19.8619 24.0198 20.2045C23.3781 20.5472 22.8307 21.0429 22.4264 21.6477C22.022 22.2525 21.773 22.9477 21.7016 23.6717C21.6302 24.3957 21.7385 25.1262 22.0169 25.7983C22.2954 26.4704 22.7353 27.0635 23.2978 27.525C23.8602 27.9864 24.5278 28.302 25.2414 28.4437C25.955 28.5854 26.6925 28.5488 27.3886 28.3373C28.0847 28.1258 28.7179 27.7458 29.232 27.231C30.0607 26.4013 30.5262 25.2766 30.5262 24.1039C30.5262 22.9312 30.0607 21.8065 29.232 20.9768C28.8218 20.5659 28.3344 20.2401 27.7979 20.0181C27.2613 19.7961 26.6862 19.6823 26.1055 19.6833Z" fill="white"/>
</svg>
