<svg width="47" height="32" viewBox="0 0 47 32" fill="none" xmlns="http://www.w3.org/2000/svg">
<path d="M34.6683 18.5236C31.9626 18.5236 29.7599 17.7431 28.0602 16.1821C26.3604 14.6211 25.5106 12.4358 25.5106 9.62602C25.5106 6.81626 26.4472 4.50948 28.3203 2.70569C30.1935 0.901894 32.8472 -1.23728e-06 36.2813 -9.37058e-07C39.7154 -6.36836e-07 42.3691 1.12737 44.2423 3.38212C46.0808 5.67155 47 8.62006 47 12.2276C47 15.6618 46.1501 18.6623 44.4504 21.2293C42.716 23.7962 40.5827 25.9642 38.0504 27.7333C35.4835 29.5371 32.9686 30.9593 30.5057 32L28.3724 27.6813C29.968 27.0222 31.6157 26.1203 33.3154 24.9756C34.9805 23.8309 36.3854 22.5648 37.5301 21.1772C38.6748 19.8244 39.2645 18.4715 39.2992 17.1187C39.1604 17.2921 38.6921 17.5696 37.8943 17.9512C37.0618 18.3328 35.9865 18.5236 34.6683 18.5236ZM9.43252 18.5236C6.72683 18.5236 4.52412 17.7431 2.82439 16.1821C1.12466 14.6211 0.274793 12.4358 0.274794 9.62602C0.274794 6.81626 1.21138 4.50948 3.08456 2.70568C4.95772 0.901892 7.61138 -3.44346e-06 11.0455 -3.14324e-06C14.4797 -2.84302e-06 17.1333 1.12737 19.0065 3.38211C20.845 5.67155 21.7642 8.62006 21.7642 12.2276C21.7642 15.6618 20.9144 18.6623 19.2146 21.2293C17.4802 23.7962 15.3469 25.9642 12.8146 27.7333C10.2477 29.5371 7.73279 30.9593 5.26992 32L3.13658 27.6813C4.73225 27.0222 6.37994 26.1203 8.07967 24.9756C9.74471 23.8309 11.1496 22.5648 12.2943 21.1772C13.439 19.8244 14.0287 18.4715 14.0634 17.1187C13.9247 17.2921 13.4564 17.5696 12.6585 17.9512C11.826 18.3328 10.7507 18.5236 9.43252 18.5236Z" fill="#B28E6A"/>
</svg>
