<svg width="62" height="42" viewBox="0 0 62 42" fill="none" xmlns="http://www.w3.org/2000/svg">
<path d="M16.1854 17.6878C19.7366 17.6878 22.6276 18.7122 24.8585 20.761C27.0894 22.8098 28.2049 25.678 28.2049 29.3658C28.2049 33.0537 26.9756 36.0813 24.5171 38.4488C22.0585 40.8163 18.5756 42 14.0683 42C9.56098 42 6.07805 40.5203 3.61951 37.561C1.2065 34.5561 0 30.6862 0 25.9512C0 21.4439 1.11545 17.5057 3.34634 14.1366C5.62276 10.7675 8.42276 7.92195 11.7463 5.6C15.1154 3.23252 18.4163 1.36585 21.6488 0L24.4488 5.66829C22.3545 6.53333 20.1919 7.71707 17.961 9.21951C15.7756 10.7219 13.9317 12.3837 12.4293 14.2049C10.9268 15.9805 10.1528 17.7561 10.1073 19.5317C10.2894 19.3041 10.9041 18.9398 11.9512 18.439C13.0439 17.9382 14.4553 17.6878 16.1854 17.6878ZM49.3073 17.6878C52.8585 17.6878 55.7496 18.7122 57.9805 20.761C60.2114 22.8098 61.3268 25.678 61.3268 29.3658C61.3268 33.0537 60.0976 36.0813 57.639 38.4488C55.1805 40.8163 51.6976 42 47.1902 42C42.6829 42 39.2 40.5203 36.7415 37.561C34.3285 34.5561 33.1219 30.6862 33.1219 25.9512C33.1219 21.4439 34.2374 17.5057 36.4683 14.1366C38.7447 10.7675 41.5447 7.92195 44.8683 5.6C48.2374 3.23252 51.5382 1.36585 54.7707 0L57.5707 5.66829C55.4764 6.53333 53.3138 7.71707 51.0829 9.21951C48.8976 10.7219 47.0537 12.3837 45.5512 14.2049C44.0488 15.9805 43.2748 17.7561 43.2293 19.5317C43.4114 19.3041 44.026 18.9398 45.0732 18.439C46.1659 17.9382 47.5772 17.6878 49.3073 17.6878Z" fill="#B28E6A"/>
</svg>
