<svg width="25" height="25" viewBox="0 0 25 25" fill="none" xmlns="http://www.w3.org/2000/svg">
<path d="M20.2933 4.70652C20.074 -0.172045 24.9991 0.000756248 24.9991 0.000756248C24.9991 0.000756248 25.1719 4.92586 20.2933 4.70652Z" fill="#B28E6A"/>
<path d="M17.3803 7.61913C21.101 4.45608 23.9828 8.45416 23.9828 8.45416C23.9828 8.45416 20.1967 11.6092 17.3803 7.61913Z" fill="#B28E6A"/>
<path d="M17.3803 7.61913C20.5434 3.89847 16.5454 1.01669 16.5454 1.01669C16.5454 1.01669 13.3906 4.8031 17.3803 7.61913Z" fill="#B28E6A"/>
<path d="M13.54 11.4598C17.2606 8.29678 20.1424 12.2945 20.1424 12.2945C20.1424 12.2945 16.3564 15.4495 13.54 11.4598Z" fill="#B28E6A"/>
<path d="M13.54 11.4598C16.703 7.73917 12.705 4.85732 12.705 4.85732C12.705 4.85732 9.55029 8.64345 13.54 11.4598Z" fill="#B28E6A"/>
<path d="M9.69964 15.3C13.4203 12.137 16.3021 16.1347 16.3021 16.1347C16.3021 16.1347 12.5157 19.2897 9.69964 15.3Z" fill="#B28E6A"/>
<path d="M9.69964 15.3C12.8627 11.5793 8.8647 8.69765 8.8647 8.69765C8.8647 8.69765 5.70997 12.484 9.69964 15.3Z" fill="#B28E6A"/>
<path d="M5.85901 19.1407C9.57968 15.9777 12.4615 19.9757 12.4615 19.9757C12.4615 19.9757 8.6754 23.1304 5.85901 19.1407Z" fill="#B28E6A"/>
<path d="M5.85901 19.1407C9.02207 15.4201 5.02407 12.5383 5.02407 12.5383C5.02407 12.5383 1.86934 16.3243 5.85901 19.1407Z" fill="#B28E6A"/>
<path d="M2.01869 22.981C5.73936 19.818 8.62117 23.8161 8.62117 23.8161C8.62117 23.8161 4.83472 26.9707 2.01869 22.981Z" fill="#B28E6A"/>
<path d="M2.01869 22.981C5.18174 19.2604 1.18373 16.3786 1.18373 16.3786C1.18373 16.3786 -1.97099 20.1647 2.01869 22.981Z" fill="#B28E6A"/>
</svg>
