<svg width="167" height="183" viewBox="0 0 167 183" fill="none" xmlns="http://www.w3.org/2000/svg">
<g opacity="0.1">
<path fill-rule="evenodd" clip-rule="evenodd" d="M27.2484 132.288C25.5765 124.291 23.4048 116.429 22.3863 108.432C21.3293 100.742 21.3293 92.8992 20.8873 85.6135C36.1656 70.5037 55.2106 65.5441 74.6976 62.1223C80.8382 61.2862 87.0638 61.2862 93.2045 62.1223C101.045 62.9297 108.829 64.506 116.574 65.967C119.436 66.6618 122.219 67.6539 124.876 68.9274C126.151 69.3909 127.245 70.2477 128.002 71.3741C128.758 72.5006 129.138 73.8383 129.084 75.1943C129.458 78.6923 130.101 82.1564 131.006 85.5558C133.87 85.9595 136.522 86.4401 139.193 86.69C154.125 88.151 158.18 102.376 152.031 111.681C151.505 112.607 151.049 113.57 150.666 114.564C153.491 116.64 156.432 118.409 158.988 120.716C162.751 123.958 165.367 128.328 166.448 133.177C167.528 138.027 167.015 143.095 164.984 147.629C163.419 151.419 161.096 154.849 158.158 157.708C155.22 160.568 151.729 162.796 147.899 164.257C141.924 166.602 135.822 168.611 129.623 170.274C122.743 172.196 115.805 174.119 108.79 175.503C100.104 177.252 91.3403 178.848 82.5193 179.847C69.7586 181.289 56.9594 182.712 44.0834 183C35.463 182.981 26.8668 182.085 18.4274 180.328C14.3532 179.316 10.5491 177.427 7.28096 174.792C-0.656057 168.909 -2.17425 160.989 3.07225 152.627C8.31876 144.264 11.3936 139.209 27.2484 132.288ZM126.202 86.4208C117.515 94.6293 106.984 97.6282 96.3754 99.8773C87.909 101.731 79.3232 102.99 70.681 103.645C55.7871 104.722 40.7202 107.49 25.2306 100.627C26.3068 107.394 26.8448 113.257 28.2093 118.947C32.149 135.345 40.874 145.341 59.3809 147.36C76.8612 149.49 94.583 146.463 110.366 138.651C118.784 134.537 123.454 127.636 125.894 118.928C126.505 116.799 126.954 114.627 127.239 112.43C128.269 103.76 127.919 94.9814 126.202 86.4208ZM30.1119 136.863C22.6127 138.628 15.8168 142.607 10.6057 148.282C0.996709 158.355 3.05302 169.313 15.8522 174.657C25.4612 178.675 35.6467 179.386 45.64 178.944C68.6004 178.103 91.4363 175.169 113.864 170.178C117.188 169.428 120.398 168.102 123.703 167.179C130.603 165.257 137.617 163.719 144.382 161.412C148.315 160.255 151.932 158.214 154.956 155.446C157.98 152.677 160.332 149.254 161.832 145.437C164.061 139.766 164.599 133.768 160.487 128.559C153.376 119.601 148.11 118.082 137.425 122.234C134.235 123.465 130.026 122.792 127.355 126.886C128.988 127.636 130.237 128.232 131.506 128.809C138.924 132.019 140.116 135.845 135.349 142.592C133.92 144.911 131.94 146.839 129.584 148.205C124.266 150.757 118.728 152.822 113.037 154.376C105.639 156.298 98.009 157.26 90.514 158.797C75.0805 162.124 59.333 163.774 43.5453 163.719C39.1444 163.719 34.7819 162.892 33.0907 158.278C31.3995 153.665 33.6096 150.147 37.6069 147.629C37.9336 147.436 37.9913 146.84 38.2988 146.148C37.088 144.784 35.7812 143.361 34.4552 141.9L30.1119 136.863ZM30.8422 97.9742C58.0548 79.2505 86.4398 75.2519 117.131 89.1698C119.057 87.3316 120.837 85.3456 122.454 83.2297C125.856 78.0009 124.818 74.2908 118.88 72.4646C103.928 67.8893 88.7459 65.1596 72.9103 66.6975C61.8324 67.9205 51.0827 71.2135 41.2199 76.4054C36.8255 78.559 32.7084 81.2378 28.9588 84.3831C24.1351 88.7276 24.9423 93.4374 30.8806 97.9742H30.8422ZM135.08 135.575C128.508 131.596 126.221 131.404 122.896 134.691C112.057 145.456 98.1627 149.57 83.7877 152.3C71.9494 154.568 60.2072 152.3 48.4651 150.551C45.6171 150.215 42.7302 150.51 40.0092 151.416C39.2582 151.774 38.6075 152.313 38.1147 152.984C37.6219 153.654 37.3022 154.436 37.1841 155.26C37.1841 156.395 38.8753 158.086 40.2013 158.644C42.2636 159.449 44.4642 159.841 46.6778 159.797C52.6053 159.847 58.53 159.52 64.416 158.817C80.2708 156.375 96.1064 153.78 111.827 150.647C117.592 149.513 122.954 146.802 128.393 144.457C130.182 143.685 131.74 142.46 132.913 140.902C134.086 139.345 134.833 137.509 135.08 135.575ZM132.582 90.5924C131.025 94.5909 132.409 95.9365 135.926 97.359C143.075 100.262 143.402 107.298 136.964 111.546C135.753 112.353 134.254 112.699 132.986 113.468C132.472 113.712 132.019 114.066 131.658 114.506C131.298 114.945 131.039 115.459 130.901 116.011C130.764 116.562 130.75 117.138 130.861 117.695C130.972 118.253 131.205 118.779 131.544 119.235C134.939 118.456 138.262 117.395 141.48 116.064C146.169 113.699 150.07 110.412 150.166 104.376C150.301 94.9561 143.709 89.5543 132.582 90.65V90.5924ZM133.716 101.377L132.063 102.223C132.063 104.145 132.236 106.163 132.332 108.143L133.831 108.778C134.792 107.432 136.368 106.144 136.464 104.741C136.541 103.76 134.696 102.569 133.716 101.434V101.377Z" fill="#B28E6A"/>
<path d="M82.4806 10.2571C80.8662 15.582 76.0041 23.0984 78.0604 28.9424C79.0225 31.6492 80.5788 34.106 82.615 36.132C87.8808 41.7645 88.1498 47.3778 87.2082 54.6251C86.8046 57.6816 91.6091 57.6624 92.0126 54.6251C92.839 48.2813 92.7429 42.8025 89.7257 37.0931C87.0736 32.0566 81.5388 29.596 83.0955 22.8101C83.9795 18.9653 85.959 15.3129 87.112 11.5258C88.0345 8.56541 83.3838 7.29665 82.4806 10.2571Z" fill="#B28E6A"/>
<path d="M61.8214 1.83719C59.1501 10.7954 54.6531 19.2537 55.0183 28.7502C55.2205 31.8895 56.5919 34.839 58.8619 37.0163C60.2241 38.1943 61.7862 39.1188 63.4742 39.7461C69.6624 42.7257 69.8737 49.1079 69.9314 55.0288C69.9314 55.6661 70.1845 56.2773 70.635 56.7279C71.0855 57.1786 71.6965 57.4317 72.3336 57.4317C72.9707 57.4317 73.5818 57.1786 74.0323 56.7279C74.4828 56.2773 74.7359 55.6661 74.7359 55.0288C74.7359 45.1094 72.9871 39.0155 63.897 34.6326C53.6538 29.6921 64.3005 10.3148 66.4722 3.04829C66.5567 2.74409 66.5806 2.42621 66.5423 2.11281C66.504 1.7994 66.4044 1.49658 66.2491 1.22167C66.0939 0.946773 65.886 0.705191 65.6374 0.510647C65.3888 0.316103 65.1043 0.172413 64.8002 0.0878436C64.4961 0.00327369 64.1783 -0.0205415 63.865 0.0177381C63.5517 0.0560177 63.249 0.155648 62.9742 0.310949C62.6993 0.46625 62.4578 0.67421 62.2633 0.92289C62.0688 1.17157 61.9252 1.45614 61.8406 1.76034L61.8214 1.83719Z" fill="#B28E6A"/>
<path d="M43.0072 15.9473C44.0834 24.2903 34.2053 30.3073 33.821 38.9002C33.8287 40.2299 34.1328 41.5411 34.7113 42.7383C35.2898 43.9355 36.128 44.9886 37.1649 45.8207C43.0264 50.0499 50.4445 49.9537 50.4445 59.6809C50.4445 60.3182 50.6976 60.9294 51.1481 61.38C51.5986 61.8306 52.2096 62.0838 52.8468 62.0838C53.4839 62.0838 54.0949 61.8306 54.5454 61.38C54.9959 60.9294 55.249 60.3182 55.249 59.6809C55.249 48.4735 49.9833 47.224 41.0854 42.7449C33.5327 38.9002 48.7726 22.7716 47.8117 15.9473C47.4081 12.9099 42.6036 12.8715 43.0072 15.9473Z" fill="#B28E6A"/>
</g>
</svg>
