<svg width="178" height="203" viewBox="0 0 178 203" fill="none" xmlns="http://www.w3.org/2000/svg">
<g opacity="0.1">
<path d="M158.412 184.28L23.901 160.562L24.3859 157.812C30.3889 123.767 58.6037 98.5842 91.4761 97.9331C100.137 97.8018 108.25 99.2346 116.322 102.312C136.737 110.211 159.768 136.609 160.199 161.864C160.271 166.344 159.789 176.471 158.897 181.53L158.412 184.28ZM29.2679 156.823L154.623 178.927C155.274 173.899 155.648 165.787 155.587 161.94C155.188 138.516 133.701 113.984 114.668 106.618C107.162 103.76 99.6121 102.426 91.5573 102.545C61.4715 103.142 35.543 125.854 29.2679 156.823Z" fill="#B28E6A"/>
<path d="M167.447 181.188L16.4691 154.567L15.6679 159.11L166.646 185.732L167.447 181.188Z" fill="#B28E6A"/>
<path d="M165.048 202.433L11.8053 175.412L0.63723 167.538L3.29467 163.767L13.6225 171.047L164.802 197.704L176.64 194.318L177.91 198.754L165.048 202.433Z" fill="#B28E6A"/>
<path d="M103.317 103.458C97.0138 102.347 92.7907 96.3154 93.9021 90.0125C95.0135 83.7095 101.045 79.4854 107.348 80.5967C113.651 81.7081 117.874 87.7404 116.762 94.0433C115.651 100.346 109.62 104.569 103.317 103.458ZM106.547 85.1404C102.748 84.4706 99.1155 87.0155 98.4457 90.8136C97.7762 94.6107 100.32 98.2446 104.118 98.9143C107.916 99.584 111.549 97.0392 112.219 93.2422C112.888 89.444 110.345 85.8101 106.547 85.1404Z" fill="#B28E6A"/>
<path d="M146.511 167.565C145.5 167.387 144.697 166.543 144.614 165.47C144.397 162.64 143.603 158.231 142.844 155.642C142.486 154.42 143.188 153.138 144.411 152.78C145.636 152.42 146.912 153.122 147.273 154.346C148.119 157.238 148.973 161.97 149.214 165.117C149.311 166.388 148.36 167.496 147.089 167.594C146.892 167.609 146.698 167.598 146.511 167.565Z" fill="#B28E6A"/>
<path d="M141.276 148.361C140.539 148.231 139.879 147.747 139.558 147.008C132.911 131.723 119.936 124.346 119.804 124.272C118.694 123.652 118.292 122.249 118.912 121.136C119.531 120.023 120.935 119.623 122.044 120.239C122.631 120.564 136.497 128.397 143.79 145.17C144.297 146.338 143.763 147.696 142.593 148.205C142.162 148.392 141.706 148.437 141.276 148.361Z" fill="#B28E6A"/>
<path d="M72.2826 70.3704C71.8234 70.2895 71.3819 70.0686 71.0316 69.7072C70.1426 68.7944 70.1644 67.3342 71.0759 66.4461L82.9745 54.8681C83.671 53.2009 83.6191 51.2771 82.8191 49.6514L76.8759 37.5615C74.8185 33.3763 74.9424 28.4444 77.2071 24.3705L77.5332 23.9224L89.8018 10.6997C90.6667 9.76449 92.124 9.7115 93.0624 10.5781C93.9963 11.4439 94.05 12.9037 93.1831 13.8374L81.1148 26.8449C79.7066 29.551 79.6664 32.7762 81.0184 35.5263L86.9596 47.6147C88.4399 50.6231 88.4417 54.2194 86.9652 57.2348L86.7898 57.5939L74.2949 69.7519C73.7424 70.2904 72.9881 70.4948 72.2826 70.3704Z" fill="#B28E6A"/>
<path d="M128.259 80.2406C127.8 80.1596 127.359 79.9388 127.008 79.5774C126.119 78.6646 126.141 77.2044 127.053 76.3163L138.951 64.7383C139.65 63.0726 139.598 61.1488 138.796 59.5194L132.852 47.4317C130.797 43.2491 130.921 38.3183 133.183 34.2418L133.51 33.7926L145.778 20.5699C146.645 19.6351 148.103 19.5821 149.039 20.4483C149.973 21.3141 150.027 22.7738 149.16 23.7076L137.092 36.714C135.683 39.4234 135.643 42.6486 136.995 45.3965L142.938 57.4853C144.418 60.4981 144.42 64.0955 142.942 67.1061L142.764 67.4648L130.271 79.6221C129.719 80.1606 128.965 80.365 128.259 80.2406Z" fill="#B28E6A"/>
<path d="M104.486 60.4375C104.027 60.3565 103.585 60.1357 103.235 59.7743C102.346 58.8615 102.368 57.4013 103.279 56.5121L115.178 44.9352C115.886 43.2518 115.834 41.3702 115.022 39.7196L109.079 27.6297C107.022 23.4433 107.145 18.5126 109.41 14.4386L109.736 13.9906L122.005 0.766765C122.872 -0.166956 124.328 -0.224775 125.266 0.64514C126.199 1.51095 126.253 2.97072 125.386 3.90444L113.318 16.9131C111.91 19.6192 111.867 22.844 113.221 25.5945L119.163 37.6829C120.643 40.6912 120.645 44.2876 119.168 47.303L118.993 47.6621L106.498 59.8201C105.946 60.3575 105.191 60.5619 104.486 60.4375Z" fill="#B28E6A"/>
</g>
</svg>
