<svg width="203" height="107" viewBox="0 0 203 107" fill="none" xmlns="http://www.w3.org/2000/svg">
<g opacity="0.1">
<path d="M201.016 73.632C201.225 73.3151 201.414 72.9845 201.579 72.6424C204.217 67.076 202.116 59.5096 198.464 54.904C194.101 49.4006 187.196 46.7063 180.653 44.7592C171.331 42.0567 161.795 40.1542 152.151 39.0725C144.104 38.1141 135.191 37.22 127.564 40.56C124.473 41.9102 120.212 44.715 121.16 48.3226C115.202 44.8782 108.072 42.8536 102.194 41.2902C95.4526 39.4838 86.6887 37.3066 78.2961 37.168C79.0478 31.6663 74.4673 27.3594 70.8108 23.7562C65.406 18.3512 59.2516 13.7444 52.536 10.0768C41.7377 4.14937 26.0743 -2.45434 13.7385 2.57814C7.60417 5.09767 6.12821 8.97948 7.03347 13.1343C4.02109 22.0014 1.95124 31.1608 0.857826 40.4624C0.853893 40.6452 0.900822 40.8256 0.993377 40.9838C1.08593 41.142 1.22056 41.2717 1.38235 41.3587C1.54415 41.4458 1.72681 41.4866 1.91022 41.4769C2.09363 41.4671 2.2706 41.4071 2.42163 41.3035C3.68711 49.4215 11.853 54.6436 18.5742 58.4519C27.945 63.6999 38.361 66.822 49.0749 67.5941C48.1295 71.9345 47.4867 76.3356 47.1513 80.7659C47.0993 81.5162 48.2342 81.6036 48.4381 80.9283C50.9633 72.6169 52.8971 63.8163 54.6141 55.1401C55.6621 60.1316 59.0164 64.6917 62.7036 68.0522C73.9378 78.2596 90.9811 82.6667 105.807 83.0234C114.483 83.2154 126.252 80.814 130.781 73.1992C129.962 81.8369 128.07 90.3371 125.147 98.5053C124.911 98.4259 124.653 98.4384 124.426 98.5403C111.466 103.85 97.6629 105.969 83.7942 102.983C69.3283 99.8708 57.1736 91.6866 46.8874 81.3226C46.5699 81.0094 45.9886 81.4239 46.2541 81.803C63.3987 106.164 98.5509 113.484 124.976 101.026C125.06 101.077 125.154 101.111 125.252 101.125C125.349 101.139 125.449 101.133 125.544 101.107C125.639 101.082 125.728 101.037 125.805 100.975C125.881 100.914 125.945 100.837 125.99 100.75C127.745 97.3787 129.158 93.8409 130.208 90.1891C130.208 90.1891 130.283 90.2091 130.336 90.2235C145.549 97.5313 162.157 101.495 179.028 101.845C184.235 101.928 191.627 103.361 194.229 97.9334C197.797 90.255 200.089 82.048 201.016 73.632ZM55.9657 46.4573C55.9102 46.4328 55.8503 46.4199 55.7897 46.4194C55.729 46.4189 55.669 46.4308 55.6132 46.4543C55.5575 46.4779 55.5071 46.5126 55.4654 46.5563C55.4237 46.6 55.3916 46.6518 55.3709 46.7085C53.0328 52.7169 51.1168 58.8807 49.6367 65.1554L49.4334 65.1009C40.0623 64.3305 30.9239 61.7657 22.5209 57.5476C15.0822 53.7636 5.7799 48.374 3.07626 39.9733C5.14932 32.2365 6.74442 24.1436 8.08553 16.1423C10.2913 20.965 14.8768 25.8094 18.477 29.0667C28.8664 38.4889 42.2756 44.9447 56.3815 45.9756C56.2153 46.1249 56.0891 46.2964 55.9657 46.4573ZM57.2359 44.4137C57.1652 44.4861 57.1107 44.5726 57.0761 44.6675C46.705 42.3676 36.8673 38.7621 28.0094 32.7843C23.4294 29.686 19.2396 26.0512 15.5303 21.9581C13.3963 19.607 10.8199 17.0232 9.8685 13.9396C9.11906 11.5146 10.8261 7.45522 12.7618 5.79534C14.1898 4.83434 15.7992 4.17143 17.4931 3.84657C27.9738 1.15715 40.5397 6.39475 49.6471 11.1847C55.0991 14.078 60.2215 17.5501 64.9246 21.5402C69.069 25.0346 77.1544 30.9423 76.3302 37.143C68.987 37.2399 62.0536 39.1461 57.2359 44.4137ZM129.091 69.9177C123.214 84.916 98.1491 80.5268 86.4011 77.1166C79.1432 75.0121 71.8016 71.8929 65.8942 67.0593C60.5298 62.7248 50.1152 48.5168 61.7513 44.426C61.882 44.3746 61.9867 44.2737 62.0425 44.1454C62.0984 44.0172 62.1009 43.8721 62.0494 43.7417C72.892 37.9898 85.5379 40.1463 97.3814 42.9434C108.925 45.6602 135.92 52.5626 129.091 69.9177ZM132.705 65.3769C132.686 65.0183 132.678 64.6626 132.638 64.2983C132.022 57.4378 127.935 52.6586 122.547 49.1845C123.454 47.3973 124.355 45.601 125.252 43.7957C126.169 43.1979 127.145 42.6951 128.166 42.2953C129.667 41.6415 131.231 41.1396 132.834 40.7972C135.841 40.2196 138.907 39.9961 141.969 40.1313C148.769 40.407 155.54 41.1954 162.223 42.4898C173.656 44.5496 190.846 46.7377 197.855 57.2616C202.56 64.3164 201.976 73.7296 192.851 76.4516C186.859 78.2679 180.283 77.943 174.117 77.4543C159.652 76.203 145.574 72.0973 132.705 65.3769ZM188.021 99.2699C186.372 99.4874 184.705 99.545 183.044 99.4418C179.717 99.4858 176.39 99.4041 173.079 99.1784C158.642 98.1341 144.511 94.4827 131.375 88.403C131.172 88.3086 130.942 88.2874 130.726 88.3431C132.431 81.5197 133.096 74.4772 132.699 67.4513C148.673 76.0203 168.169 81.3353 186.297 79.7255C190.326 79.368 195.71 78.4951 199.116 75.7123C197.377 81.4741 196.154 87.5794 193.701 93.0128C192.471 95.7628 191.281 98.4895 188.021 99.2699Z" fill="#B28E6A"/>
<path d="M102.241 52.2867C96.505 49.8944 88.6189 50.0055 83.9765 54.5331C84.1183 54.0008 84.3108 53.4832 84.5512 52.9875C84.6113 52.8826 84.6269 52.7581 84.5947 52.6415C84.5625 52.5248 84.4851 52.4256 84.3796 52.3655C84.274 52.3054 84.1489 52.2896 84.0317 52.3213C83.9146 52.353 83.8151 52.4298 83.755 52.5347C75.8548 65.4967 100.879 75.2588 108.751 64.6729C112.825 59.1833 107.365 54.4354 102.241 52.2867ZM94.5875 66.2958C89.663 65.1131 83.066 61.2696 83.7555 55.6145C83.8754 55.8505 84.0829 56.0308 84.3339 56.1173C84.5849 56.2037 84.8596 56.1893 85.0996 56.0772C88.5983 54.4483 91.6305 53.1051 95.5732 53.3289C98.7348 53.5145 104.498 54.9903 106.29 58.1052C110.691 65.8657 98.907 67.3391 94.5875 66.2958Z" fill="#B28E6A"/>
<path d="M31.6607 16.4597C26.8065 17.1551 32.8258 25.1667 34.4175 26.8022C38.1411 30.5831 46.0901 35.4162 51.3376 31.7124C60.993 24.9123 38.2828 8.82405 31.6607 16.4597ZM46.3068 30.2845C43.1517 30.3744 39.4961 28.0946 37.1731 26.1491C36.648 25.7118 32.4106 21.4512 31.836 19.016C32.0744 19.0055 32.3028 18.9187 32.4872 18.7685C35.9593 16.0831 40.4016 17.6954 43.9081 19.5474C45.1896 20.2236 46.39 21.0427 47.4859 21.9889C48.5068 22.7382 49.3896 23.6579 50.0951 24.7069C50.1767 28.911 48.9032 30.7673 46.2747 30.2759L46.3068 30.2845Z" fill="#B28E6A"/>
<path d="M17.5112 8.18575C14.9854 9.26551 15.82 13.2987 18.659 12.8048C19.4187 12.6662 19.2195 11.4836 18.4726 11.4888C18.3296 11.4834 18.1898 11.4444 18.0647 11.3751C17.9395 11.3057 17.8325 11.2079 17.7523 11.0897C17.6722 10.9715 17.6212 10.8362 17.6036 10.6948C17.5859 10.5534 17.602 10.41 17.6506 10.2762C17.846 9.80387 18.5194 9.68775 18.9346 9.76478C20.1694 9.993 20.475 11.5919 20.7063 12.612C20.7507 12.7417 20.835 12.8543 20.9473 12.9337C21.0596 13.0131 21.1941 13.0553 21.3317 13.0542C21.4692 13.0531 21.6028 13.0089 21.7134 12.9278C21.824 12.8467 21.9059 12.7328 21.9475 12.6024C22.8715 10.0099 20.2695 7.00862 17.5112 8.18575Z" fill="#B28E6A"/>
<path d="M24.167 20.2004C23.6357 20.8565 22.2677 22.1096 21.3609 21.342C20.8251 20.9018 20.9283 19.7889 21.6452 19.6388C21.723 19.6297 21.7981 19.6054 21.8664 19.5673C21.9346 19.5293 21.9946 19.4782 22.043 19.417C22.0913 19.3558 22.1271 19.2857 22.1481 19.2107C22.1692 19.1357 22.1752 19.0573 22.1658 18.9798C22.1564 18.9024 22.1319 18.8276 22.0935 18.7595C22.055 18.6915 22.0035 18.6317 21.9419 18.5834C21.8803 18.5351 21.8098 18.4993 21.7344 18.4781C21.6589 18.4569 21.5801 18.4508 21.5024 18.4599C19.5828 18.5615 19.0368 21.0271 20.0499 22.3822C20.3953 22.8047 20.8587 23.1159 21.3814 23.2763C21.9041 23.4366 22.4624 23.4389 22.9855 23.2829C23.5728 23.1422 24.1124 22.8511 24.5509 22.4383C24.9894 22.0256 25.3116 21.5057 25.4854 20.9301C25.7478 20.2932 24.6976 19.5898 24.167 20.2004Z" fill="#B28E6A"/>
<path d="M29.1731 9.56532C28.7558 9.9668 28.1068 10.4202 27.5232 10.1156C27.3874 10.0407 27.2687 9.93845 27.175 9.81524C27.0814 9.69202 27.0147 9.55062 26.9793 9.40028C26.9439 9.24995 26.9406 9.09404 26.9696 8.94252C26.9986 8.79101 27.0593 8.64729 27.1477 8.52075C27.6854 7.62688 26.3613 6.91849 25.7686 7.7178C25.5481 8.03343 25.3941 8.39041 25.3159 8.76718C25.2378 9.14396 25.237 9.53275 25.3137 9.91025C25.3904 10.2877 25.543 10.6461 25.7623 10.9638C25.9815 11.2815 26.263 11.552 26.5897 11.7589C26.9307 11.9665 27.3143 12.0943 27.7118 12.1329C28.1092 12.1715 28.51 12.1198 28.884 11.9816C29.2579 11.8434 29.5951 11.6224 29.8702 11.3353C30.1453 11.0481 30.3512 10.7024 30.4722 10.3241C30.5112 10.161 30.4964 9.98954 30.4301 9.8351C30.3638 9.68067 30.2494 9.55137 30.1038 9.46635C29.9582 9.38133 29.7891 9.34507 29.6216 9.36289C29.454 9.38071 29.2968 9.45167 29.1731 9.56532Z" fill="#B28E6A"/>
<path d="M66.5124 31.3643C66.1496 31.0278 65.6886 30.8152 65.1967 30.7572C64.7047 30.6993 64.2075 30.799 63.7773 31.042C62.3879 31.9472 62.5524 34.5006 64.4199 34.636C65.2546 34.6886 65.3792 33.4103 64.598 33.201C64.5974 33.1411 64.6132 33.0823 64.6436 33.0307C64.6594 32.9054 64.7148 32.7884 64.8019 32.6967C64.8273 32.6643 64.8548 32.6336 64.884 32.6046C65.745 32.5159 65.885 33.8766 66.3752 34.3159C66.4541 34.3999 66.5516 34.4645 66.6599 34.5045C66.7682 34.5445 66.8842 34.5588 66.9989 34.5464C67.1136 34.5339 67.2237 34.495 67.3205 34.4327C67.4173 34.3704 67.4981 34.2865 67.5564 34.1876C68.0193 33.2736 67.2287 31.944 66.5124 31.3643Z" fill="#B28E6A"/>
<path d="M64.4885 26.9325C63.8416 27.4207 62.9814 27.9773 62.1368 27.7053C61.7017 27.5341 61.3504 27.2008 61.1579 26.7764C60.9653 26.3519 60.9465 25.87 61.1056 25.4329C61.3736 24.4326 59.9469 24.1073 59.5861 25.0258C59.2705 25.8308 59.2716 26.7254 59.5891 27.5313C59.9067 28.3372 60.5175 28.9953 61.2996 29.3744C61.684 29.5639 62.1035 29.6718 62.5316 29.6914C62.9597 29.711 63.3869 29.6417 63.7862 29.488C64.1855 29.3344 64.548 29.0996 64.8508 28.7987C65.1536 28.4978 65.3901 28.1374 65.5452 27.7403C65.7256 27.1955 64.9914 26.5539 64.4885 26.9325Z" fill="#B28E6A"/>
<path d="M67.5327 50.2865C66.9913 49.9917 66.3737 49.8659 65.7604 49.9253C65.1471 49.9848 64.5665 50.2269 64.0943 50.6199C62.8804 51.8116 63.1898 54.5521 65.2435 54.4637C65.2871 54.4602 65.3281 54.4418 65.3594 54.4116C65.3907 54.3814 65.4104 54.3412 65.4152 54.298C65.4201 54.2548 65.4096 54.2112 65.3857 54.1747C65.3618 54.1382 65.3259 54.1112 65.2841 54.0981C64.3425 53.8458 64.6532 52.1725 65.3836 51.8436C66.114 51.5146 66.7297 51.9989 67.1599 52.3195C67.7806 52.828 68.0397 53.616 68.8223 53.9056C69.0038 53.9513 69.1959 53.9249 69.3578 53.832C69.5197 53.7391 69.6387 53.5871 69.6896 53.408C70.1096 52.1404 68.5164 50.7668 67.5327 50.2865Z" fill="#B28E6A"/>
<path d="M74.7732 47.4475C74.6911 47.3155 74.5725 47.2099 74.4316 47.1433C74.2908 47.0767 74.1338 47.0519 73.9794 47.072C73.825 47.0921 73.6798 47.1561 73.5613 47.2564C73.4429 47.3568 73.3562 47.4892 73.3116 47.6376C73.2797 47.7653 73.2159 47.8828 73.1261 47.9793C73.0364 48.0758 72.9236 48.1481 72.7981 48.1896C72.6726 48.231 72.5386 48.2403 72.4084 48.2164C72.2782 48.1926 72.1561 48.1365 72.0533 48.0533C71.2935 47.3364 72.3169 45.9567 72.8404 45.4583C73.6065 44.7396 72.5048 43.7145 71.7217 44.3259C70.1689 45.5409 68.9639 48.5828 71.152 49.8763C71.5713 50.1063 72.0408 50.2302 72.5191 50.237C72.9973 50.2438 73.4696 50.1332 73.8941 49.9152C74.1269 49.8256 74.3375 49.687 74.5114 49.509C74.6854 49.3309 74.8186 49.1175 74.902 48.8833C74.9855 48.6491 75.0171 48.3996 74.9949 48.1518C74.9727 47.9041 74.8971 47.6638 74.7732 47.4475Z" fill="#B28E6A"/>
<path d="M72.789 59.9871C72.3615 59.4704 71.8163 59.0627 71.1988 58.7981C70.5814 58.5334 69.9096 58.4195 69.2398 58.4658C66.8772 58.7225 65.5988 61.8246 67.7626 63.294C68.2278 63.6126 68.7491 62.9082 68.3602 62.5189C68.2423 62.3804 68.1534 62.2199 68.0988 62.0468C68.0442 61.8738 68.0249 61.6916 68.0423 61.5112C68.0596 61.3308 68.1132 61.1558 68.1997 60.9966C68.2862 60.8373 68.404 60.697 68.5461 60.584C68.8631 60.3797 69.2346 60.2746 69.6127 60.2824C69.9908 60.2902 70.3582 60.4105 70.6676 60.6278C71.9846 61.4483 71.7145 63.2694 72.8981 64.0313C73.0595 64.1209 73.2491 64.1455 73.4278 64.1C73.6065 64.0545 73.7606 63.9423 73.8582 63.7867C74.6163 62.7124 73.5332 60.8481 72.789 59.9871Z" fill="#B28E6A"/>
<path d="M120.37 56.4941C119.757 56.6835 119.194 57.1144 118.527 56.8216C118.246 56.665 118.036 56.4071 117.941 56.1013C117.846 55.7954 117.872 55.4651 118.015 55.1789C118.123 54.9975 118.154 54.7808 118.101 54.5763C118.049 54.3718 117.917 54.1963 117.734 54.0884C117.552 53.9805 117.334 53.9491 117.128 54.001C116.923 54.053 116.747 54.184 116.639 54.3653C116.221 55.0061 116.063 55.7817 116.197 56.5355C116.331 57.2892 116.748 57.9649 117.363 58.4259C118.641 59.35 120.825 59.1597 121.446 57.5696C121.484 57.4215 121.483 57.2661 121.442 57.1185C121.402 56.9709 121.323 56.8363 121.214 56.7278C121.106 56.6193 120.971 56.5407 120.823 56.4998C120.675 56.4588 120.518 56.4568 120.37 56.4941Z" fill="#B28E6A"/>
<path d="M123.922 66.6507C123.826 64.4808 121.978 61.7498 119.463 62.4902C117.671 63.0138 117.318 65.999 119.411 66.3203C119.942 66.3941 120.413 65.6193 119.815 65.3679C119.666 65.2897 119.551 65.16 119.492 65.0032C119.432 64.8464 119.433 64.6734 119.493 64.5172C119.633 63.9958 120.221 63.9824 120.673 64.1376C121.824 64.5488 122.083 66.0666 122.66 66.9513C122.737 67.0713 122.85 67.1645 122.982 67.2179C123.115 67.2713 123.261 67.2822 123.4 67.2491C123.539 67.216 123.664 67.1405 123.757 67.0333C123.851 66.926 123.908 66.7922 123.922 66.6507Z" fill="#B28E6A"/>
<path d="M122.508 71.3704C122.6 70.4711 121.133 70.2949 120.921 71.1733C120.874 71.4152 120.774 71.6435 120.626 71.8412C120.479 72.039 120.289 72.2011 120.07 72.3155C119.851 72.4299 119.609 72.4937 119.361 72.5021C119.114 72.5106 118.867 72.4635 118.64 72.3644C118.445 72.234 118.279 72.0652 118.152 71.8686C118.025 71.672 117.94 71.4517 117.902 71.2213C117.864 70.9909 117.873 70.7553 117.93 70.529C117.987 70.3027 118.09 70.0905 118.233 69.9055C118.611 69.3911 117.772 68.7556 117.349 69.2238C117.015 69.573 116.772 69.9979 116.641 70.4618C116.51 70.9258 116.494 71.4148 116.594 71.8869C116.695 72.359 116.91 72.8 117.219 73.1718C117.529 73.5437 117.925 73.8353 118.372 74.0215C118.82 74.2077 119.306 74.2829 119.789 74.2408C120.271 74.1986 120.736 74.0403 121.143 73.7794C121.55 73.5186 121.887 73.1631 122.125 72.7434C122.362 72.3237 122.494 71.8525 122.508 71.3704Z" fill="#B28E6A"/>
<path d="M175.781 59.7303C176.308 54.1684 166.648 50.6677 162.628 49.8757C157.639 48.8925 147.106 46.857 144.319 52.6345C144.264 52.7331 144.23 52.8418 144.218 52.9541C144.207 53.0664 144.219 53.1798 144.254 53.2874C144.289 53.395 144.345 53.4944 144.42 53.5796C144.494 53.6648 144.585 53.7339 144.688 53.7827C146.472 59.9639 156.687 64.9023 162.419 65.8108C166.404 66.4337 175.258 65.1906 175.781 59.7303ZM172.128 60.2228C168.353 69.6023 148.866 59.5902 145.997 53.221C148.978 49.4574 158.319 50.9793 162.104 51.8338C164.09 52.2073 166.011 52.8681 167.806 53.7952C169.013 54.3841 170.127 55.1476 171.11 56.0606C173.392 57.2729 173.732 58.6603 172.128 60.2228Z" fill="#B28E6A"/>
<path d="M139.815 45.6448C139.23 46.1154 138.764 46.7432 137.903 46.4897C137.522 46.3561 137.205 46.0846 137.015 45.7295C136.825 45.3743 136.777 44.9614 136.879 44.573C136.917 44.4319 136.897 44.2815 136.823 44.1548C136.75 44.0282 136.629 43.9356 136.487 43.8976C136.345 43.8595 136.194 43.8792 136.067 43.9521C135.94 44.025 135.847 44.1452 135.809 44.2863C135.583 44.9405 135.616 45.6564 135.9 46.2892C136.183 46.9221 136.698 47.4248 137.339 47.6959C138.503 48.1447 140.566 47.6367 140.768 46.1967C140.789 46.0791 140.772 45.9579 140.722 45.8495C140.671 45.7411 140.588 45.6508 140.484 45.5906C140.38 45.5305 140.26 45.5034 140.141 45.5131C140.021 45.5228 139.907 45.5688 139.815 45.6448Z" fill="#B28E6A"/>
<path d="M133.465 49.2244C133.185 48.5866 132.841 47.9785 132.438 47.4093C132.324 47.1839 132.149 46.9949 131.932 46.8641C131.716 46.7334 131.467 46.6663 131.214 46.6706C130.743 46.6709 130.288 46.8348 129.928 47.1338C129.567 47.4329 129.323 47.8484 129.238 48.3084C129.165 48.8364 129.927 49.0748 130.072 48.5321C130.218 47.9893 131.006 47.4021 131.438 47.974C131.869 48.5459 132.147 49.1792 132.622 49.7171C132.939 50.0758 133.67 49.7013 133.465 49.2244Z" fill="#B28E6A"/>
<path d="M137.994 55.1371C137.82 54.9942 137.7 54.7964 137.655 54.5767C137.609 54.357 137.641 54.1286 137.744 53.9296C137.808 53.7215 137.933 53.5373 138.102 53.4C138.272 53.2627 138.479 53.1786 138.696 53.1582C139.286 53.0539 139.192 52.2074 138.693 52.0166C136.476 51.3428 135.39 55.1809 137.44 56.0494C138.074 56.3791 138.635 55.5257 137.994 55.1371Z" fill="#B28E6A"/>
<path d="M187.542 56.802C187.39 56.3394 187.26 55.8826 187.13 55.4258C186.931 54.7565 185.748 54.85 185.844 55.6056C185.875 55.8307 185.906 56.0559 185.927 56.2781C185.711 56.2764 185.502 56.205 185.33 56.0746C185.158 55.9442 185.033 55.7619 184.974 55.5551C184.75 54.7651 185.424 54.2613 186.059 53.9868C186.695 53.7122 186.226 53.1076 185.802 53.0625C184.33 52.9075 183.16 54.7042 183.505 56.0285C183.85 57.3527 185.827 58.5782 187.152 57.6558C187.301 57.5748 187.42 57.4477 187.49 57.2938C187.56 57.1398 187.578 56.9673 187.542 56.802Z" fill="#B28E6A"/>
<path d="M192.87 58.9143C192.167 58.8094 191.451 58.9638 190.856 59.3484C190.26 59.733 189.828 60.3213 189.639 61.0026C189.408 61.8646 190.745 62.4395 191.112 61.6254C191.218 61.3337 191.425 61.089 191.695 60.934C191.965 60.7791 192.281 60.7238 192.589 60.778C192.881 60.885 193.144 61.0605 193.354 61.2895C193.564 61.5185 193.716 61.7944 193.796 62.0938C194.019 62.6325 194.849 62.4444 194.986 61.9335C195.101 61.2558 194.943 60.5597 194.547 59.9951C194.152 59.4304 193.55 59.0423 192.87 58.9143Z" fill="#B28E6A"/>
<path d="M186.765 65.8214C186.126 65.9354 184.683 66.4841 184.244 65.6821C184.03 65.2826 184.305 64.5577 184.776 64.6839C184.893 64.6811 185.006 64.6407 185.098 64.5687C185.189 64.4967 185.255 64.397 185.286 64.2845C185.316 64.1719 185.308 64.0525 185.265 63.9442C185.221 63.8359 185.144 63.7444 185.044 63.6835C183.541 63.0414 182.339 64.7039 182.653 66.0997C183.146 68.2394 186.098 68.2661 187.528 67.1665C188.238 66.6153 187.454 65.6868 186.765 65.8214Z" fill="#B28E6A"/>
</g>
</svg>
