<svg width="292" height="175" viewBox="0 0 292 175" fill="none" xmlns="http://www.w3.org/2000/svg">
<g opacity="0.1">
<path d="M291.363 65.0459C287.016 65.6931 282.662 66.2936 278.322 66.9975C269.257 68.4621 262.388 73.096 256.76 80.4589C218.554 130.444 168.906 162.261 106.707 173.447C91.7742 176.133 76.5913 175.139 61.7288 171.966C41.5684 167.663 22.519 160.166 4.16018 150.875C2.64224 150.104 1.37116 148.843 0 147.819C8.77074 135.045 25.0979 132.479 41.3883 141.133C56.1074 132.186 71.457 132.736 87.3571 139.262C101.142 124.946 117.776 122.448 136.752 128.536C139.061 125.19 141.349 121.75 143.761 118.398C149.353 110.628 156.402 105.72 166.544 106.084C168.452 106.154 171.175 104.666 172.272 103.048C182.397 88.1387 196.416 81.9635 214.191 83.1145C216.546 83.2679 219.155 81.5265 221.447 80.2888C232.963 74.0735 244.516 68.4154 258.331 71.2244C260.19 71.6014 262.752 70.1202 264.56 68.8791C272.737 63.2544 281.691 62.2502 291.363 65.0459ZM256.146 74.3471C242.865 74.5306 232.626 78.5706 223.122 84.6157C219.635 86.8343 216.346 87.665 212.166 87.4381C197.233 86.6408 185.05 92.022 176.509 104.716C175.024 106.921 173.336 108.993 171.938 110.861C156.892 110.087 151.064 113.34 143.668 126.251C142.08 129.027 140.442 131.776 138.827 134.535C118.797 125.874 101.773 128.98 88.2111 144.73C71.6005 136.88 56.1841 136.049 41.0547 146.788C29.625 137.737 18.0686 138.448 5.121 146.375C6.73236 147.399 7.42627 148.023 8.23696 148.326C24.3105 154.368 40.1739 161.104 56.5544 166.165C71.3135 170.728 86.8467 172.233 102.253 169.841C164.669 160.143 213.947 128.253 253.127 79.6015C254.014 78.5006 254.565 77.1261 256.146 74.3471Z" fill="#B28E6A"/>
<path d="M38.0288 124.042C35.9703 113.674 39.9237 106.981 46.3157 102.11C52.1707 97.6467 56.6878 92.2788 61.255 86.6741C68.798 77.4196 78.9967 72.4587 90.6899 70.4637C94.5365 69.8065 98.2529 69.3394 100.451 65.1559C108.035 50.7137 120.665 43.204 136.258 40.3149C142.18 39.2173 146.177 36.2915 150.233 31.7644C154.05 27.5041 159.725 24.1513 165.223 22.3164C174.884 19.0937 184.913 17.0453 195.372 19.8376C198.648 20.7117 202.531 19.8477 206.037 19.2205C216.75 17.3022 227.048 18.0361 236.71 23.3873C238.438 24.3448 239.849 25.8827 241.574 27.2873C239.325 32.1647 234.835 32.8086 231.172 34.4133C198.631 48.6887 165.817 62.3702 133.546 77.2294C113.055 86.6641 93.3555 97.8135 73.2785 108.156C64.9815 112.429 56.6878 116.716 48.2707 120.746C45.3783 122.131 42.1255 122.755 38.0288 124.042ZM236.823 27.9378C226.768 20.6417 216.476 21.112 205.97 22.4965C202.144 23.0003 198.03 24.1013 194.454 23.2405C184.286 20.7918 174.527 22.3865 165.256 25.9462C160.175 27.8978 154.957 31.5142 151.775 35.8345C148.369 40.455 144.679 42.6002 139.408 43.4509C123.357 46.0431 110.507 53.5061 102.683 68.2919C100.989 71.4946 98.6232 72.8557 94.8534 73.2561C85.1085 74.2903 75.5671 77.0593 68.7046 84.2887C60.9214 92.489 53.6419 101.123 45.1181 108.653C42.289 111.151 39.7135 114.915 41.7419 120.943C63.2367 109.13 83.7573 97.1129 104.942 86.4105C126.433 75.5513 148.445 65.683 170.477 55.9415C192.129 46.3701 214.087 37.4992 236.823 27.9378Z" fill="#B28E6A"/>
<path d="M69.0916 156.763C71.5571 157.21 74.0191 157.661 78.0725 158.395C73.4153 161.727 71.2067 159.492 68.7914 158.685C68.8915 158.044 68.9916 157.404 69.0916 156.763Z" fill="#B28E6A"/>
<path d="M129.656 60.2485C131.071 58.3969 132.489 56.5453 133.906 54.6904C134.353 54.9807 134.797 55.2742 135.244 55.5645C134.07 57.5361 132.892 59.5078 131.718 61.4795C131.027 61.0725 130.343 60.6621 129.656 60.2485Z" fill="#B28E6A"/>
<path d="M242.672 73.6399C239.359 64.2887 229.487 58.0067 219.802 62.4471C211.132 66.4238 208.943 77.2162 214.928 84.4423C215.956 85.6834 217.717 83.9052 216.696 82.6742C211.242 76.0886 214.545 66.4838 222.595 64.0718C230.485 61.7098 237.677 67.0276 240.256 74.3038C240.793 75.8151 243.212 75.1645 242.672 73.6399Z" fill="#B28E6A"/>
<path d="M217.33 83.0844C215.896 73.4363 205.07 67.0076 195.765 69.4529C187.502 71.6248 183.011 81.6266 188.166 88.8126C189.096 90.1104 191.268 88.8627 190.327 87.5482C185.517 80.8426 190.748 72.1919 198.521 71.5514C206.117 70.9208 213.767 76.0218 214.918 83.7484C215.152 85.3364 217.564 84.6624 217.33 83.0844Z" fill="#B28E6A"/>
<path d="M191.722 88.7326C186.881 81.5198 176.309 79.0744 169.096 84.3356C161.306 90.017 161.383 102.151 168.115 108.549C169.283 109.657 171.054 107.892 169.883 106.781C164.425 101.593 163.942 91.7885 170.017 86.761C175.945 81.8568 185.413 83.8185 189.56 89.997C190.454 91.3248 192.623 90.0737 191.722 88.7326Z" fill="#B28E6A"/>
<path d="M169.483 108.209C167.942 97.2698 148.686 88.9862 139.761 96.1255C129.93 103.992 135.711 119.175 144.485 124.99C145.83 125.881 147.084 123.715 145.746 122.828C138.083 117.75 133.136 105.043 141.67 98.4508C149.183 92.6492 165.737 99.4216 167.064 108.87C167.295 110.464 169.703 109.787 169.483 108.209Z" fill="#B28E6A"/>
<path d="M137.086 129.01C146.58 118.921 135.631 105.063 123.718 105.55C111.878 106.034 104.335 120.816 113.352 129.68C114.5 130.811 116.271 129.043 115.12 127.912C107.714 120.633 114.016 108.412 123.714 108.056C133.262 107.702 143.418 118.631 135.311 127.245C134.217 128.413 135.981 130.184 137.086 129.01Z" fill="#B28E6A"/>
<path d="M114.186 127.365C114.07 117.71 104.228 110.941 95.2971 115.325C85.986 119.896 85.4088 132.043 92.715 138.698C93.9026 139.782 95.6775 138.018 94.4831 136.93C88.8117 131.762 88.3746 122.384 95.4306 118.097C102.767 113.64 111.584 119.012 111.684 127.365C111.701 128.973 114.203 128.977 114.186 127.365Z" fill="#B28E6A"/>
<path d="M91.0302 138.575C94.0661 129.2 86.8967 118.461 77.0351 117.55C65.0917 116.446 63.9107 129.347 66.2993 137.927C66.7297 139.475 69.1451 138.818 68.7114 137.263C66.7064 130.051 67.1067 118.091 77.9592 120.209C85.7791 121.737 91.0703 130.338 88.6182 137.911C88.1211 139.442 90.5365 140.103 91.0302 138.575Z" fill="#B28E6A"/>
<path d="M201.547 126.061C203.005 122.154 203.785 118.131 203.932 113.964C203.989 112.352 201.487 112.356 201.43 113.964C201.29 117.914 200.516 121.697 199.135 125.393C198.571 126.908 200.99 127.559 201.547 126.061Z" fill="#B28E6A"/>
<path d="M198.431 123.365C198.217 120.589 198.658 117.917 199.852 115.392C200.536 113.944 198.381 112.673 197.69 114.127C196.309 117.043 195.682 120.139 195.929 123.362C196.049 124.963 198.551 124.976 198.431 123.365Z" fill="#B28E6A"/>
<path d="M189.597 124.423C190.504 121.64 190.054 118.641 188.309 116.282C187.362 115.001 185.19 116.249 186.147 117.547C187.528 119.412 187.909 121.547 187.185 123.759C186.681 125.29 189.096 125.947 189.597 124.423Z" fill="#B28E6A"/>
<path d="M177.747 127.058C178.861 124.733 179.074 122.271 178.214 119.822C177.683 118.314 175.265 118.965 175.802 120.486C176.432 122.274 176.416 124.072 175.588 125.794C174.891 127.242 177.049 128.51 177.747 127.058Z" fill="#B28E6A"/>
<path d="M223.238 20.5417C227.385 11.1471 218.738 3.24711 209.52 3.41725C199.442 3.60074 192.189 12.9453 195.141 22.6568C195.608 24.1948 198.024 23.5375 197.553 21.9929C195.378 14.8335 199.598 7.90104 206.838 6.24297C214.247 4.54487 225.067 10.2497 221.08 19.284C220.433 20.7419 222.588 22.0163 223.238 20.5417Z" fill="#B28E6A"/>
<path d="M196.763 21.0554C198.611 16.3948 200.382 10.8368 197.91 6.04607C195.665 1.6924 190.628 -0.456065 185.9 0.0810556C176.079 1.19199 169.179 11.7509 172.349 21.1055C172.863 22.6234 175.281 21.9729 174.761 20.4416C172.155 12.7417 177.393 4.16782 185.403 2.71659C190.357 1.81917 195.322 4.34466 196.389 9.55907C197.146 13.2555 195.695 17.002 194.351 20.3949C193.757 21.8861 196.176 22.5367 196.763 21.0554Z" fill="#B28E6A"/>
<path d="M175.054 21.8795C179.258 10.1129 158.961 4.61156 151.164 8.69835C138.957 15.1038 145.713 30.2166 154.887 35.4376C156.289 36.235 157.55 34.0731 156.152 33.2758C149.076 29.249 142.53 18.6801 150.787 12.0445C156.202 7.69085 176.255 11.1071 172.646 21.2123C172.102 22.7335 174.517 23.3874 175.054 21.8795Z" fill="#B28E6A"/>
<path d="M133.736 34.0698C140.512 27.5043 140.926 15.9178 132.398 10.5533C124.322 5.469 114.754 9.82269 111.601 18.3999C108.328 27.3041 112.872 38.6837 122.834 40.3551C126.847 41.029 132.115 39.9949 135.001 36.8822C136.819 34.9239 137.473 32.1449 135.034 30.5568C133.68 29.6761 132.425 31.8413 133.77 32.7187C135.077 33.5694 131.574 36.3551 131.091 36.6153C129.386 37.5394 127.304 38.0198 125.366 38.0332C121.966 38.0599 118.67 36.6553 116.418 34.0865C112.101 29.1657 112.011 21.4192 115.538 16.0747C119.297 10.3699 126.797 9.23885 132.105 13.4658C138.273 18.3799 137.273 27.154 131.971 32.2917C130.807 33.4259 132.579 35.1941 133.736 34.0698Z" fill="#B28E6A"/>
<path d="M92.9618 61.4996C98.6866 58.1768 102.383 51.271 99.5206 44.7988C97.1186 39.3609 90.8667 36.0915 85.2085 38.5769C80.0942 40.8222 76.8682 46.7905 78.1059 52.2785C79.6305 59.0475 86.3662 63.0609 92.9784 62.9875C94.5865 62.9709 94.5931 60.4687 92.9784 60.4854C83.0167 60.5955 74.7097 47.768 85.1552 41.4093C89.9959 38.4602 95.8442 41.4727 97.549 46.587C99.2804 51.7814 96.0811 56.7923 91.6974 59.3378C90.3062 60.1485 91.5639 62.3103 92.9618 61.4996Z" fill="#B28E6A"/>
<path d="M158.587 60.2985C159.418 57.7397 159.568 55.1875 159.151 52.5386C158.901 50.9539 156.492 51.6245 156.739 53.2025C157.083 55.3944 156.859 57.5295 156.175 59.6346C155.675 61.1692 158.09 61.8265 158.587 60.2985Z" fill="#B28E6A"/>
<path d="M152.202 56.3318C152.465 54.7638 152.726 53.1991 152.986 51.6312C153.249 50.0565 150.837 49.3792 150.574 50.9672C150.31 52.5352 150.05 54.0999 149.79 55.6679C149.526 57.2426 151.938 57.9198 152.202 56.3318Z" fill="#B28E6A"/>
<path d="M188.926 38.9805C185.727 38.1365 182.654 37.0022 179.685 35.5343C178.247 34.8237 176.976 36.9822 178.421 37.6961C181.58 39.2574 184.853 40.4985 188.259 41.3926C189.817 41.8029 190.484 39.3909 188.926 38.9805Z" fill="#B28E6A"/>
<path d="M179.435 42.8406C177.8 40.7021 175.775 39.2042 173.223 38.3301C171.695 37.8063 171.041 40.2251 172.559 40.7422C174.441 41.386 176.065 42.517 177.276 44.1016C178.237 45.366 180.412 44.1183 179.435 42.8406Z" fill="#B28E6A"/>
<path d="M100.421 86.0869C100.815 83.8017 100.552 81.7266 99.6141 79.6114C98.9636 78.1435 96.8051 79.4146 97.4523 80.8759C98.0962 82.3271 98.2797 83.8584 98.0094 85.423C97.7359 86.9977 100.148 87.6749 100.421 86.0869Z" fill="#B28E6A"/>
<path d="M92.6315 84.6425C92.448 83.3047 92.9384 82.1037 93.8625 81.1595C94.9902 80.0086 93.222 78.2371 92.0944 79.3914C90.483 81.0361 89.9092 83.0511 90.2195 85.3097C90.4363 86.8977 92.8484 86.2205 92.6315 84.6425Z" fill="#B28E6A"/>
</g>
</svg>
