<svg width="251" height="250" viewBox="0 0 251 250" fill="none" xmlns="http://www.w3.org/2000/svg">
<path opacity="0.1" d="M110.727 48.1335C105.531 48.1335 101.304 52.3561 101.304 57.5469C101.304 62.7377 105.531 66.9603 110.727 66.9603C115.924 66.9603 120.151 62.7377 120.151 57.5469C120.151 52.3561 115.924 48.1335 110.727 48.1335ZM110.727 62.625C107.924 62.625 105.644 60.3446 105.644 57.5469C105.644 54.7492 107.927 52.4688 110.727 52.4688C113.528 52.4688 115.811 54.7492 115.811 57.5469C115.811 60.3446 113.531 62.625 110.727 62.625ZM125.286 44.6103C129.904 44.6103 133.659 40.8589 133.659 36.2432C133.659 31.6304 129.904 27.8789 125.286 27.8789C120.668 27.8789 116.913 31.6304 116.913 36.2432C116.913 40.856 120.668 44.6103 125.286 44.6103ZM125.286 32.2142C127.511 32.2142 129.319 34.0206 129.319 36.2432C129.319 38.4658 127.511 40.275 125.286 40.275C123.061 40.275 121.253 38.4687 121.253 36.2432C121.253 34.0235 123.061 32.2142 125.286 32.2142ZM144.051 65.0152C140.377 68.6858 140.377 74.6569 144.051 78.3275C145.889 80.1628 148.302 81.079 150.715 81.079C153.128 81.079 155.54 80.1628 157.378 78.3275C159.157 76.55 160.138 74.1829 160.138 71.6713C160.138 69.1569 159.157 66.7927 157.378 65.0152C153.825 61.4603 147.613 61.4574 144.051 65.0152ZM154.311 75.2639C152.329 77.2437 149.106 77.2437 147.121 75.2639C145.139 73.2812 145.139 70.0615 147.121 68.0817C148.082 67.1222 149.358 66.5933 150.717 66.5933C152.077 66.5933 153.353 67.1222 154.314 68.0817C155.274 69.0413 155.804 70.3158 155.804 71.6742C155.804 73.0326 155.271 74.3043 154.311 75.2639ZM170.166 60.9747C166.902 64.2348 166.902 69.5442 170.166 72.8043C171.797 74.4344 173.941 75.2494 176.085 75.2494C178.229 75.2494 180.373 74.4344 182.005 72.8043C185.268 69.5442 185.268 64.2348 182.005 60.9747C178.741 57.7145 173.432 57.7145 170.166 60.9747ZM178.941 69.7407C177.367 71.3101 174.809 71.3101 173.235 69.7407C171.664 68.1684 171.664 65.6135 173.235 64.0412C174.809 62.4718 177.367 62.4718 178.941 64.0412C180.512 65.6135 180.512 68.1684 178.941 69.7407ZM168.994 100.49C163.798 100.49 159.571 104.712 159.571 109.903C159.571 115.094 163.798 119.316 168.994 119.316C174.19 119.316 178.417 115.094 178.417 109.903C178.417 104.712 174.19 100.49 168.994 100.49ZM168.994 114.984C166.19 114.984 163.911 112.704 163.911 109.906C163.911 107.108 166.193 104.828 168.994 104.828C171.795 104.828 174.077 107.108 174.077 109.906C174.077 112.704 171.795 114.984 168.994 114.984ZM190.317 116.082C185.699 116.082 181.941 119.834 181.941 124.447C181.941 129.059 185.697 132.814 190.317 132.814C194.935 132.814 198.69 129.062 198.69 124.447C198.69 119.834 194.935 116.082 190.317 116.082ZM190.317 128.475C188.092 128.475 186.281 126.669 186.281 124.444C186.281 122.221 188.089 120.415 190.317 120.415C192.542 120.415 194.35 122.221 194.35 124.444C194.35 126.669 192.542 128.475 190.317 128.475ZM249.92 181.173C248.757 178.895 246.772 177.207 244.336 176.418C241.903 175.632 239.302 175.837 237.022 176.999C235.66 177.696 234.543 178.71 233.666 179.912L148.273 144.58C147.463 144.244 146.528 144.429 145.909 145.051C145.29 145.669 145.102 146.603 145.437 147.412L180.819 232.737C180.419 233.026 180.006 233.3 179.658 233.647C177.098 236.205 176.198 239.933 177.315 243.376C178.625 247.422 182.395 250 186.44 250C187.415 250 188.407 249.85 189.385 249.532C203.837 244.858 216.593 237.061 227.304 226.361C238.02 215.656 245.823 202.913 250.502 188.479C251.292 186.046 251.086 183.45 249.92 181.173ZM231.817 183.84C228.042 194.843 221.986 204.595 213.752 212.817C205.518 221.04 195.756 227.092 184.742 230.864L151.452 150.586L231.817 183.84ZM246.376 187.144C241.912 200.919 234.465 213.083 224.24 223.297C214.018 233.508 201.844 240.948 188.052 245.41C185.303 246.295 182.335 244.789 181.443 242.04C180.833 240.156 181.325 238.115 182.728 236.714C183.315 236.127 184.018 235.699 184.817 235.439C197.015 231.494 207.783 224.916 216.822 215.887C225.86 206.858 232.445 196.101 236.394 183.918C236.826 182.586 237.751 181.502 238.998 180.863C239.748 180.482 240.561 180.288 241.377 180.288C241.92 180.288 242.467 180.375 243 180.545C244.331 180.976 245.418 181.901 246.055 183.147C246.691 184.392 246.807 185.811 246.376 187.144ZM188.642 193.011C191.055 193.011 193.468 192.095 195.308 190.259C197.087 188.482 198.068 186.118 198.068 183.603C198.068 181.089 197.087 178.725 195.308 176.947C191.631 173.277 185.656 173.279 181.979 176.947C178.304 180.618 178.304 186.589 181.979 190.259C183.816 192.095 186.229 193.011 188.642 193.011ZM185.046 180.011C186.038 179.022 187.34 178.525 188.642 178.525C189.944 178.525 191.246 179.019 192.238 180.011C193.199 180.97 193.728 182.245 193.728 183.603C193.728 184.962 193.199 186.236 192.238 187.196C190.256 189.176 187.033 189.176 185.046 187.196C183.064 185.216 183.064 181.991 185.046 180.011ZM187.508 203.034C185.925 204.612 185.054 206.713 185.054 208.947C185.054 211.182 185.925 213.283 187.508 214.861C189.139 216.491 191.283 217.306 193.427 217.306C195.571 217.306 197.715 216.491 199.347 214.861C200.929 213.283 201.8 211.182 201.8 208.947C201.8 206.713 200.929 204.612 199.347 203.034C196.08 199.771 190.768 199.771 187.508 203.034ZM196.28 206.101C197.041 206.861 197.46 207.872 197.46 208.95C197.46 210.026 197.041 211.04 196.28 211.8C194.706 213.37 192.148 213.37 190.574 211.8C189.814 211.04 189.394 210.026 189.394 208.95C189.394 207.872 189.814 206.861 190.574 206.101C191.361 205.317 192.394 204.921 193.427 204.921C194.46 204.921 195.493 205.314 196.28 206.101ZM157.522 213.907C157.545 213.768 157.58 213.638 157.574 213.494C157.572 213.349 157.525 213.211 157.491 213.066C157.464 212.953 157.47 212.838 157.424 212.728L151.776 199.106C151.773 199.101 151.776 199.098 151.773 199.092C151.771 199.086 151.765 199.083 151.765 199.075L117.668 116.828L213.671 156.545C213.943 156.658 214.224 156.71 214.499 156.71C214.875 156.71 215.236 156.597 215.56 156.415C215.586 156.401 215.615 156.392 215.644 156.378C215.948 156.19 216.194 155.912 216.379 155.586C216.394 155.557 216.425 155.548 216.44 155.519C223.187 142.129 226.607 127.764 226.607 112.828C226.607 97.9578 223.198 83.631 216.489 70.2378C211.773 56.0642 204.045 43.5525 193.52 33.0553C183.012 22.5407 170.524 14.8383 156.397 10.1533C142.984 3.41622 128.605 0 113.664 0C98.7494 0 84.402 3.40177 71.0179 10.1042C56.8527 14.8123 44.3251 22.5321 33.7937 33.0524C23.2335 43.5843 15.4912 56.148 10.7753 70.3852L10.7724 70.3881C4.10351 83.6599 0.718445 97.9375 0.718445 112.825C0.718445 127.779 4.12377 142.097 10.8389 155.389C15.5028 169.516 23.2248 182.04 33.7937 192.615C44.3829 203.176 56.954 210.907 71.1539 215.601C84.4685 222.268 98.7697 225.653 113.664 225.653C128.636 225.653 143.016 222.237 156.403 215.497C156.513 215.442 156.585 215.346 156.683 215.277C156.799 215.193 156.923 215.118 157.016 215.014C157.111 214.91 157.172 214.789 157.245 214.67C157.317 214.552 157.398 214.442 157.447 214.309C157.491 214.179 157.502 214.043 157.522 213.907ZM119.332 112.825L168.783 92.3623L199.691 79.5732C204.809 90.0039 207.427 101.18 207.427 112.822C207.427 124.449 204.812 135.62 199.697 146.071L119.332 112.825ZM168.641 87.7293L117.665 108.819L117.798 108.498L150.955 28.5408C161.978 32.3212 171.737 38.3704 179.956 46.5786C188.24 54.8561 194.327 64.6828 198.048 75.5587L168.641 87.7293ZM113.655 107.163L80.3659 26.876C90.822 21.7661 102.01 19.1476 113.661 19.1476C125.295 19.1476 136.474 21.7633 146.945 26.8789L113.655 107.163ZM76.3472 28.5206L108.751 106.663L109.645 108.822L29.2861 75.5702C33.056 64.5585 39.1086 54.807 47.3456 46.5959C55.6144 38.3241 65.4485 32.2403 76.3472 28.5206ZM27.6254 79.579L107.985 112.828L27.6196 146.08C22.5044 135.635 19.886 124.461 19.886 112.825C19.8889 101.203 22.5044 90.0357 27.6254 79.579ZM108.236 117.415L109.645 116.831L76.3559 197.109C65.3472 193.346 55.5826 187.297 47.3427 179.066C39.1462 170.892 33.1109 161.19 29.2832 150.086L108.236 117.415ZM113.658 118.487L146.942 198.768C136.5 203.881 125.315 206.497 113.658 206.497C102.019 206.497 90.8365 203.884 80.3688 198.771L113.658 118.487ZM72.9246 211.638C72.8869 211.621 72.8435 211.627 72.8059 211.609C72.7423 211.583 72.6873 211.537 72.6179 211.517L72.6121 211.514C59.0168 207.037 46.9868 199.647 36.8606 189.546C26.7459 179.427 19.3653 167.441 14.9184 153.915C14.9184 153.909 14.9155 153.904 14.9126 153.898C14.9097 153.892 14.9068 153.886 14.9039 153.88C14.901 153.875 14.901 153.866 14.8981 153.86C14.8634 153.759 14.8229 153.658 14.7737 153.562C8.32472 140.846 5.05828 127.137 5.05828 112.822C5.05828 98.5734 8.30736 84.9085 14.7101 72.2147C14.7592 72.1164 14.8026 72.0153 14.8345 71.9112C14.8374 71.9055 14.8345 71.8968 14.8374 71.891C14.8403 71.8852 14.8431 71.8823 14.846 71.8766L14.8489 71.8708C19.3479 58.229 26.7516 46.2 36.8577 36.1189C46.9463 26.0408 58.9474 18.6563 72.5311 14.1649C72.5832 14.1476 72.6179 14.1071 72.6699 14.0869C72.722 14.0666 72.7741 14.0695 72.8262 14.0435C85.6345 7.59835 99.3744 4.33242 113.658 4.33242C127.893 4.33242 141.592 7.58101 154.377 13.9886C154.493 14.058 154.615 14.1129 154.742 14.1591C154.759 14.1649 154.771 14.1765 154.788 14.1822C154.817 14.1909 154.846 14.2025 154.875 14.2111C168.412 18.6736 180.379 26.0437 190.444 36.116C200.516 46.1624 207.905 58.1394 212.404 71.7176C212.436 71.8101 212.47 71.8997 212.514 71.9893C212.517 71.9979 212.525 72.0037 212.528 72.0124C212.531 72.0182 212.528 72.024 212.531 72.0297C212.534 72.0355 212.537 72.0384 212.54 72.0442C218.989 84.8651 222.258 98.585 222.258 112.822C222.258 126.406 219.258 139.484 213.408 151.747L203.707 147.736C209.033 136.767 211.762 125.036 211.762 112.825C211.762 100.042 208.805 87.7871 202.984 76.4286C202.923 76.2465 202.955 76.2783 202.848 76.1165C202.816 76.0211 202.648 75.5876 202.602 75.5009C198.644 63.3071 192.053 52.5469 183.014 43.5178C173.988 34.5004 163.222 27.9252 151.033 23.9974C150.9 23.9222 150.755 23.8587 150.608 23.8124C150.509 23.7662 150.396 23.7199 150.347 23.6997C150.229 23.6274 150.104 23.5696 149.974 23.5205C138.598 17.743 126.377 14.8152 113.652 14.8152C100.864 14.8152 88.5884 17.7661 77.1718 23.5928C77.166 23.5956 77.1602 23.5985 77.1544 23.6014C77.1544 23.6014 77.1544 23.6014 77.1053 23.6159C77.0242 23.6506 76.9432 23.6881 76.8651 23.7315C76.7552 23.772 76.5613 23.8471 76.4745 23.8905C76.4688 23.8933 76.4659 23.8962 76.4601 23.8991L76.272 23.9714C64.0539 27.931 53.2883 34.512 44.273 43.5352C35.2288 52.5526 28.6438 63.31 24.7351 75.4749C24.6627 75.602 24.602 75.735 24.5557 75.8737C24.5036 76.0269 24.4284 76.1685 24.3561 76.3101C24.3184 76.3853 24.2837 76.4633 24.2548 76.5414C18.4712 87.9056 15.5404 100.114 15.5404 112.825C15.5404 125.603 18.4944 137.866 24.4226 149.479C24.4776 149.586 24.521 149.692 24.5557 149.799C24.5875 149.895 24.6541 150.074 24.7004 150.164C28.6438 162.363 35.2288 173.12 44.2701 182.135C53.3056 191.161 64.0626 197.736 76.4803 201.762C76.489 201.765 76.4948 201.768 76.5035 201.771C76.5295 201.783 76.5498 201.788 76.5787 201.8C76.706 201.849 76.8333 201.898 76.9548 201.965C76.9751 201.973 76.9953 201.985 77.0156 201.997C77.111 202.049 77.2065 202.092 77.3078 202.13C88.6868 207.907 100.914 210.838 113.652 210.838C125.885 210.838 137.623 208.109 148.597 202.786L152.615 212.482C140.357 218.326 127.265 221.323 113.65 221.323C99.3831 221.315 85.6779 218.057 72.9246 211.638ZM116.58 177.525C121.777 177.525 126.004 173.303 126.004 168.112C126.004 162.921 121.777 158.698 116.58 158.698C111.384 158.698 107.157 162.921 107.157 168.112C107.157 173.303 111.384 177.525 116.58 177.525ZM116.58 163.031C119.384 163.031 121.664 165.311 121.664 168.109C121.664 170.907 119.381 173.187 116.58 173.187C113.78 173.187 111.497 170.907 111.497 168.109C111.497 165.311 113.777 163.031 116.58 163.031ZM102.025 181.045C97.407 181.045 93.6487 184.797 93.6487 189.41C93.6487 194.022 97.4041 197.774 102.025 197.774C106.642 197.774 110.398 194.022 110.398 189.41C110.398 184.797 106.639 181.045 102.025 181.045ZM102.025 193.439C99.7997 193.439 97.9885 191.632 97.9885 189.41C97.9885 187.187 99.7968 185.381 102.025 185.381C104.249 185.381 106.058 187.187 106.058 189.41C106.058 191.632 104.247 193.439 102.025 193.439ZM76.5932 163.392C79.0061 163.392 81.4191 162.476 83.2562 160.641C85.0356 158.863 86.0193 156.496 86.0193 153.984C86.0193 151.47 85.0385 149.106 83.2562 147.328C79.7005 143.776 73.4916 143.773 69.9301 147.328C66.2557 150.999 66.2557 156.97 69.9301 160.641C71.7673 162.476 74.1802 163.392 76.5932 163.392ZM72.9969 150.392C73.9574 149.432 75.2334 148.903 76.5932 148.903C77.953 148.903 79.2289 149.432 80.1894 150.392C81.15 151.351 81.6794 152.626 81.6794 153.984C81.6794 155.343 81.15 156.617 80.1894 157.577C78.2076 159.557 74.9845 159.56 72.9998 157.577C71.015 155.594 71.015 152.372 72.9969 150.392ZM57.142 164.678C60.4056 161.418 60.4056 156.112 57.142 152.849C53.9797 149.684 48.4624 149.687 45.3001 152.849C42.0365 156.109 42.0365 161.415 45.3001 164.678C46.8798 166.259 48.9832 167.129 51.2196 167.129C53.459 167.129 55.5623 166.259 57.142 164.678ZM48.3698 161.615C46.7988 160.045 46.7988 157.487 48.3698 155.915C49.1307 155.155 50.1433 154.736 51.2225 154.736C52.2988 154.736 53.3143 155.155 54.0752 155.915C55.6462 157.484 55.6462 160.042 54.0752 161.615C52.5505 163.135 49.8916 163.135 48.3698 161.615ZM58.3138 125.163C63.51 125.163 67.737 120.941 67.737 115.75C67.737 110.559 63.51 106.336 58.3138 106.336C53.1176 106.336 48.8906 110.559 48.8906 115.75C48.8906 120.941 53.1176 125.163 58.3138 125.163ZM58.3138 110.672C61.1173 110.672 63.3972 112.952 63.3972 115.75C63.3972 118.548 61.1144 120.828 58.3138 120.828C55.5132 120.828 53.2304 118.548 53.2304 115.75C53.2304 112.952 55.5132 110.672 58.3138 110.672ZM36.9908 109.574C41.6083 109.574 45.3637 105.822 45.3637 101.209C45.3637 96.5965 41.6083 92.845 36.9908 92.845C32.3732 92.845 28.6178 96.5965 28.6178 101.209C28.6178 105.822 32.3732 109.574 36.9908 109.574ZM36.9908 97.1803C39.2156 97.1803 41.0239 98.9867 41.0239 101.209C41.0239 103.432 39.2156 105.238 36.9908 105.238C34.7659 105.238 32.9576 103.432 32.9576 101.209C32.9576 98.9867 34.7688 97.1803 36.9908 97.1803ZM65.7899 69.1482C62.1155 72.8188 62.1155 78.7899 65.7899 82.4605C67.6271 84.2958 70.04 85.212 72.453 85.212C74.8659 85.212 77.2788 84.2958 79.116 82.4605C80.8954 80.683 81.8762 78.3159 81.8762 75.8043C81.8762 73.2899 80.8954 70.9257 79.116 69.1482C75.5632 65.5932 69.3514 65.5932 65.7899 69.1482ZM77.5392 75.8043C77.5392 77.1599 77.0098 78.4373 76.0492 79.3969C74.0674 81.3767 70.8443 81.3796 68.8596 79.3969C66.8777 77.4142 66.8777 74.1945 68.8596 72.2147C70.7807 70.2956 74.1281 70.2956 76.0492 72.2147C77.0098 73.1743 77.5392 74.4488 77.5392 75.8043ZM67.6705 58.8186C69.8143 58.8186 71.9582 58.0036 73.59 56.3735C76.8535 53.1133 76.8535 47.8069 73.59 44.5439C70.3264 41.2808 65.0116 41.2808 61.748 44.5439C58.4845 47.804 58.4845 53.1104 61.748 56.3735C63.3798 58.0065 65.5237 58.8186 67.6705 58.8186ZM64.8177 47.6104C65.6047 46.8271 66.6376 46.4312 67.6705 46.4312C68.7033 46.4312 69.7362 46.8242 70.5232 47.6104C72.0942 49.1798 72.0942 51.7376 70.5232 53.3099C68.9493 54.8792 66.3917 54.8792 64.8177 53.3099C63.2438 51.7376 63.2438 49.1798 64.8177 47.6104Z" fill="#B28E6A"/>
</svg>
