<svg width="200" height="200" viewBox="0 0 200 200" fill="none" xmlns="http://www.w3.org/2000/svg">
<g opacity="0.1">
<path d="M99.9917 200C45.0749 200 0.219759 155.318 0.000801335 100.398C-0.218157 45.2579 44.4623 0.220262 99.602 0.00130332L100.007 0C154.924 0 199.779 44.6818 199.998 99.6025C200.217 154.742 155.537 199.78 100.397 199.999L99.9917 200ZM100.007 5.33841L99.6228 5.33971C47.4274 5.54694 5.13198 48.1812 5.33921 100.377C5.54644 152.365 48.0061 194.662 99.9917 194.662L100.376 194.66C152.572 194.453 194.867 151.819 194.66 99.6233C194.453 47.6351 151.993 5.33841 100.007 5.33841Z" fill="#B28E6A"/>
<path d="M120.954 178.201H79.0445L42.7522 157.247L21.7987 120.955V79.0452L42.7522 42.7529L79.0445 21.7994H120.954L157.246 42.7529L178.2 79.0452V120.955L157.246 157.247L120.954 178.201ZM80.4756 172.862H119.523L153.339 153.34L172.862 119.524V80.4762L153.339 46.6602L119.523 27.1378H80.4756L46.6596 46.6602L27.1371 80.4762V119.524L46.6596 153.34L80.4756 172.862Z" fill="#B28E6A"/>
<path d="M49.3275 82.4599C44.1794 82.4599 39.9918 78.2723 39.9918 73.1242C39.9918 67.9761 44.1794 63.7872 49.3275 63.7872C54.4756 63.7872 58.6645 67.9761 58.6645 73.1242C58.6645 78.2723 54.4756 82.4599 49.3275 82.4599ZM49.3275 69.1256C47.1236 69.1256 45.3302 70.919 45.3302 73.1242C45.3302 75.3281 47.1236 77.1215 49.3275 77.1215C51.5327 77.1215 53.3261 75.3281 53.3261 73.1242C53.3261 70.919 51.5327 69.1256 49.3275 69.1256Z" fill="#B28E6A"/>
<path d="M99.9993 104.856C94.8512 104.856 90.6637 100.667 90.6637 95.5192C90.6637 90.3711 94.8512 86.1835 99.9993 86.1835C105.147 86.1835 109.335 90.3711 109.335 95.5192C109.335 100.667 105.147 104.856 99.9993 104.856ZM99.9993 91.5219C97.7954 91.5219 96.0021 93.3153 96.0021 95.5192C96.0021 97.7244 97.7954 99.5178 99.9993 99.5178C102.203 99.5178 103.997 97.7244 103.997 95.5192C103.997 93.3153 102.203 91.5219 99.9993 91.5219Z" fill="#B28E6A"/>
<path d="M76.5083 124.596C71.3601 124.596 67.1726 120.409 67.1726 115.261C67.1726 110.112 71.3601 105.925 76.5083 105.925C81.6564 105.925 85.8453 110.112 85.8453 115.261C85.8453 120.409 81.6564 124.596 76.5083 124.596ZM76.5083 111.263C74.3044 111.263 72.511 113.057 72.511 115.261C72.511 117.465 74.3044 119.258 76.5083 119.258C78.7135 119.258 80.5069 117.465 80.5069 115.261C80.5069 113.057 78.7135 111.263 76.5083 111.263Z" fill="#B28E6A"/>
<path d="M123.864 158.704C118.716 158.704 114.527 154.515 114.527 149.367C114.527 144.219 118.716 140.032 123.864 140.032C129.013 140.032 133.2 144.219 133.2 149.367C133.2 154.515 129.013 158.704 123.864 158.704ZM123.864 145.37C121.659 145.37 119.866 147.163 119.866 149.367C119.866 151.572 121.659 153.366 123.864 153.366C126.068 153.366 127.862 151.572 127.862 149.367C127.862 147.163 126.068 145.37 123.864 145.37Z" fill="#B28E6A"/>
<path d="M123.864 127.797C118.716 127.797 114.527 123.61 114.527 118.462C114.527 113.313 118.716 109.125 123.864 109.125C129.013 109.125 133.2 113.313 133.2 118.462C133.2 123.61 129.013 127.797 123.864 127.797ZM123.864 114.463C121.659 114.463 119.866 116.256 119.866 118.462C119.866 120.665 121.659 122.459 123.864 122.459C126.068 122.459 127.862 120.665 127.862 118.462C127.862 116.256 126.068 114.463 123.864 114.463Z" fill="#B28E6A"/>
<path d="M69.8418 100.721C64.6936 100.721 60.5061 96.5319 60.5061 91.3837C60.5061 86.2356 64.6936 82.048 69.8418 82.048C74.9899 82.048 79.1775 86.2356 79.1775 91.3837C79.1775 96.5319 74.9899 100.721 69.8418 100.721ZM69.8418 87.3864C67.6379 87.3864 65.8445 89.1798 65.8445 91.3837C65.8445 93.589 67.6379 95.3823 69.8418 95.3823C72.0457 95.3823 73.8391 93.589 73.8391 91.3837C73.8391 89.1798 72.0457 87.3864 69.8418 87.3864Z" fill="#B28E6A"/>
<path d="M99.9993 131.264C94.8512 131.264 90.6637 127.075 90.6637 121.927C90.6637 116.779 94.8512 112.591 99.9993 112.591C105.147 112.591 109.335 116.779 109.335 121.927C109.335 127.075 105.147 131.264 99.9993 131.264ZM99.9993 117.93C97.7954 117.93 96.0021 119.723 96.0021 121.927C96.0021 124.132 97.7954 125.926 99.9993 125.926C102.203 125.926 103.997 124.132 103.997 121.927C103.997 119.723 102.203 117.93 99.9993 117.93Z" fill="#B28E6A"/>
<path d="M99.9993 161.105C94.8512 161.105 90.6637 156.917 90.6637 151.769C90.6637 146.621 94.8512 142.432 99.9993 142.432C105.147 142.432 109.335 146.621 109.335 151.769C109.335 156.917 105.147 161.105 99.9993 161.105ZM99.9993 147.771C97.7954 147.771 96.0021 149.564 96.0021 151.769C96.0021 153.973 97.7954 155.767 99.9993 155.767C102.203 155.767 103.997 153.973 103.997 151.769C103.997 149.564 102.203 147.771 99.9993 147.771Z" fill="#B28E6A"/>
<path d="M69.8418 152.036C64.6936 152.036 60.5061 147.849 60.5061 142.701C60.5061 137.553 64.6936 133.364 69.8418 133.364C74.9899 133.364 79.1775 137.553 79.1775 142.701C79.1775 147.849 74.9899 152.036 69.8418 152.036ZM69.8418 138.702C67.6379 138.702 65.8445 140.496 65.8445 142.701C65.8445 144.905 67.6379 146.698 69.8418 146.698C72.0457 146.698 73.8391 144.905 73.8391 142.701C73.8391 140.496 72.0457 138.702 69.8418 138.702Z" fill="#B28E6A"/>
<path d="M49.3275 134.813C44.1794 134.813 39.9918 130.625 39.9918 125.477C39.9918 120.329 44.1794 116.14 49.3275 116.14C54.4756 116.14 58.6645 120.329 58.6645 125.477C58.6645 130.625 54.4756 134.813 49.3275 134.813ZM49.3275 121.479C47.1236 121.479 45.3302 123.272 45.3302 125.477C45.3302 127.681 47.1236 129.475 49.3275 129.475C51.5327 129.475 53.3261 127.681 53.3261 125.477C53.3261 123.272 51.5327 121.479 49.3275 121.479Z" fill="#B28E6A"/>
<path d="M42.661 109.336C37.5129 109.336 33.3253 105.148 33.3253 100C33.3253 94.8519 37.5129 90.6643 42.661 90.6643C47.8091 90.6643 51.9967 94.8519 51.9967 100C51.9967 105.148 47.8091 109.336 42.661 109.336ZM42.661 96.0027C40.4571 96.0027 38.6637 97.7961 38.6637 100C38.6637 102.204 40.4571 103.997 42.661 103.997C44.8649 103.997 46.6583 102.204 46.6583 100C46.6583 97.7961 44.8649 96.0027 42.661 96.0027Z" fill="#B28E6A"/>
<path d="M126.767 96.6817C121.619 96.6817 117.431 92.4942 117.431 87.346C117.431 82.1979 121.619 78.009 126.767 78.009C131.915 78.009 136.104 82.1979 136.104 87.346C136.104 92.4942 131.915 96.6817 126.767 96.6817ZM126.767 83.3475C124.563 83.3475 122.77 85.1408 122.77 87.346C122.77 89.55 124.563 91.3433 126.767 91.3433C128.972 91.3433 130.766 89.55 130.766 87.346C130.766 85.1408 128.972 83.3475 126.767 83.3475Z" fill="#B28E6A"/>
<path d="M93.3329 82.4599C88.1847 82.4599 83.9959 78.2723 83.9959 73.1242C83.9959 67.9761 88.1847 63.7872 93.3329 63.7872C98.481 63.7872 102.669 67.9761 102.669 73.1242C102.669 78.2723 98.481 82.4599 93.3329 82.4599ZM93.3329 69.1256C91.1276 69.1256 89.3343 70.919 89.3343 73.1242C89.3343 75.3281 91.1276 77.1215 93.3329 77.1215C95.5368 77.1215 97.3301 75.3281 97.3301 73.1242C97.3301 70.919 95.5368 69.1256 93.3329 69.1256Z" fill="#B28E6A"/>
<path d="M93.4319 51.6507C88.2838 51.6507 84.0962 47.4631 84.0962 42.315C84.0962 37.1668 88.2838 32.9793 93.4319 32.9793C98.58 32.9793 102.769 37.1668 102.769 42.315C102.769 47.4631 98.58 51.6507 93.4319 51.6507ZM93.4319 38.3177C91.228 38.3177 89.4346 40.111 89.4346 42.315C89.4346 44.5189 91.228 46.3122 93.4319 46.3122C95.6371 46.3122 97.4305 44.5189 97.4305 42.315C97.4305 40.111 95.6371 38.3177 93.4319 38.3177Z" fill="#B28E6A"/>
<path d="M144.718 78.7428C139.57 78.7428 135.381 74.5552 135.381 69.4071C135.381 64.259 139.57 60.0701 144.718 60.0701C149.866 60.0701 154.053 64.259 154.053 69.4071C154.053 74.5552 149.866 78.7428 144.718 78.7428ZM144.718 65.4085C142.512 65.4085 140.719 67.2019 140.719 69.4071C140.719 71.611 142.512 73.4044 144.718 73.4044C146.922 73.4044 148.715 71.611 148.715 69.4071C148.715 67.2019 146.922 65.4085 144.718 65.4085Z" fill="#B28E6A"/>
<path d="M72.4054 64.4714C67.2573 64.4714 63.0697 60.2839 63.0697 55.1357C63.0697 49.9876 67.2573 45.8 72.4054 45.8C77.5535 45.8 81.7424 49.9876 81.7424 55.1357C81.7424 60.2839 77.5535 64.4714 72.4054 64.4714ZM72.4054 51.1385C70.2015 51.1385 68.4081 52.9318 68.4081 55.1357C68.4081 57.3397 70.2015 59.133 72.4054 59.133C74.6106 59.133 76.404 57.3397 76.404 55.1357C76.404 52.9318 74.6106 51.1385 72.4054 51.1385Z" fill="#B28E6A"/>
<path d="M113.334 65.922C108.186 65.922 103.997 61.7345 103.997 56.5863C103.997 51.4382 108.186 47.2493 113.334 47.2493C118.482 47.2493 122.669 51.4382 122.669 56.5863C122.669 61.7345 118.482 65.922 113.334 65.922ZM113.334 52.5877C111.128 52.5877 109.335 54.3811 109.335 56.5863C109.335 58.7903 111.128 60.5836 113.334 60.5836C115.538 60.5836 117.331 58.7903 117.331 56.5863C117.331 54.3811 115.538 52.5877 113.334 52.5877Z" fill="#B28E6A"/>
<path d="M151.384 114.976C146.236 114.976 142.048 110.789 142.048 105.641C142.048 100.493 146.236 96.3038 151.384 96.3038C156.532 96.3038 160.72 100.493 160.72 105.641C160.72 110.789 156.532 114.976 151.384 114.976ZM151.384 101.642C149.18 101.642 147.387 103.436 147.387 105.641C147.387 107.845 149.18 109.638 151.384 109.638C153.588 109.638 155.381 107.845 155.381 105.641C155.381 103.436 153.588 101.642 151.384 101.642Z" fill="#B28E6A"/>
<path d="M144.718 145.37C139.57 145.37 135.381 141.181 135.381 136.033C135.381 130.885 139.57 126.697 144.718 126.697C149.866 126.697 154.053 130.885 154.053 136.033C154.053 141.181 149.866 145.37 144.718 145.37ZM144.718 132.036C142.512 132.036 140.719 133.829 140.719 136.033C140.719 138.238 142.512 140.032 144.718 140.032C146.922 140.032 148.715 138.238 148.715 136.033C148.715 133.829 146.922 132.036 144.718 132.036Z" fill="#B28E6A"/>
</g>
</svg>
