<svg width="216" height="175" viewBox="0 0 216 175" fill="none" xmlns="http://www.w3.org/2000/svg">
<path opacity="0.1" fill-rule="evenodd" clip-rule="evenodd" d="M40.6308 14.3409L46.5562 6.57295C48.4062 3.85634 51.184 1.90823 54.3684 1.09423C57.5527 0.280227 60.9247 0.6563 63.8514 2.15185C72.7575 6.18927 81.1165 11.4236 89.606 16.3489C101.149 23.0134 112.109 30.854 124.124 36.494C143.422 45.5711 163.382 53.2531 183.063 61.5426C186.328 62.7655 189.503 64.2137 192.566 65.8767C199.031 69.7769 203.647 74.9636 203.102 83.2688C202.926 85.9039 203.045 88.5662 203.065 91.651C214.957 99.9574 218.391 111.809 214.3 125.342C210.509 137.896 203.813 148.412 188.577 149.1C187.326 154.394 184.822 159.309 181.276 163.433C177.729 167.557 173.243 170.768 168.197 172.797C165.061 174.212 161.641 174.884 158.204 174.759C149.973 174.252 141.811 172.941 133.835 170.847C118.593 166.513 104.435 159.635 89.6782 154.213C68.2056 146.282 50.7972 132.101 32.6486 119.078C22.2878 111.343 14.5814 100.585 10.5917 88.287C8.87507 83.1392 9.23885 77.5242 11.6053 72.6409C13.3793 68.6949 12.5635 65.9909 10.3097 62.4086C4.74249 53.8266 1.46061 43.9643 0.775567 33.7577C-0.374443 20.9442 13.1836 4.90522 30.2352 10.5961C33.5676 11.7277 37.0102 13.043 40.6308 14.3409ZM145.51 110.909C144.747 112.972 143.876 114.994 142.901 116.966C140.947 120.739 138.737 124.372 136.286 127.842C135.023 129.59 133.263 130.916 131.234 131.647C129.206 132.378 127.004 132.479 124.916 131.938C120.681 130.957 120.211 126.989 119.919 123.627C119.349 117.295 119.32 110.939 119.066 104.31C114.311 102.357 109.466 100.352 105.024 98.6039C101.355 104.034 97.3744 109.248 93.1035 114.219C86.5895 120.927 78.6872 119.102 76.1984 109.814C74.8564 103.588 74.4115 97.2024 74.8772 90.8507C74.9788 87.1397 74.8031 84.325 71.6754 81.7989C65.8503 76.8751 60.3543 71.589 54.5335 66.2835C53.1805 68.4067 51.6641 70.4212 49.9982 72.3089C43.6209 78.4474 35.6917 76.2946 33.4604 67.683C32.948 64.5465 32.7083 61.3714 32.7443 58.1935C29.6582 55.5954 27.0067 56.7778 24.2115 58.9576C17.073 64.5846 12.6257 79.2327 14.9643 88.0743C17.6776 97.9522 23.5 106.694 31.5691 113.004C38.3791 118.593 45.5107 123.79 52.715 128.862C59.5544 133.651 66.1754 138.819 73.5673 142.318C88.279 149.275 103.316 155.628 118.525 161.431C129.718 165.709 141.145 169.497 153.331 170.265C159 170.887 164.72 169.68 169.655 166.82C180.304 160.435 185.08 150.707 186.002 138.921C186.171 135.43 185.596 131.943 184.316 128.691C183.035 125.439 181.077 122.496 178.573 120.058C177.428 118.57 175.79 117.541 173.953 117.154C172.116 116.767 170.202 117.048 168.554 117.947C166.923 118.734 163.755 119.066 162.861 118.118C158.274 113.212 151.663 113.933 145.541 110.855L145.51 110.909ZM124.963 127.74C131.013 129.239 133.917 125.706 136.015 122.115C138.811 117.27 140.78 111.948 143.566 107.122C146.255 102.241 149.395 97.6232 152.946 93.3287C156.97 88.6886 162.261 90.2545 163.446 96.2693C163.877 99.9544 164.078 103.663 164.047 107.373C164.159 109.839 164.765 112.158 165.212 114.961C174.782 109.033 178.459 100.999 176.627 91.3218L170.574 91.9087C169.874 88.0471 169.129 84.4716 168.619 80.8636C167.838 75.3948 163.582 73.3692 159.332 71.9962C157.444 71.219 155.339 71.1504 153.405 71.803C151.47 72.4556 149.837 73.7854 148.806 75.5473C146.026 79.4888 141.943 82.4857 138.124 86.1879C136.476 84.2241 135.267 81.931 134.576 79.4619C133.886 76.9929 133.731 74.4049 134.121 71.871C134.371 68.9293 133.952 65.9692 132.894 63.2128C131.836 60.4564 130.168 57.9754 128.014 55.956C126.594 54.3085 124.642 53.2089 122.497 52.8471C120.352 52.4853 118.147 52.884 116.265 53.9744C114.088 55.4207 112.09 57.1209 110.315 59.0393C106.596 62.4866 105.09 68.3398 99.4357 69.5655C95.2916 65.3482 95.3396 60.3576 96.1884 55.6853C97.0301 50.1509 96.386 44.4923 94.3218 39.2887C90.7796 29.08 80.5438 25.9316 71.9905 32.4705C69.5008 34.3706 67.4404 37.1908 62.6582 35.5343L62.0511 21.2815C58.7874 23.8152 56.0507 25.0204 54.5862 27.2243C49.3957 35.0084 44.3285 42.9117 39.8764 51.1221C38.3186 53.6403 37.338 56.4723 37.0051 59.4146C36.6723 62.3569 36.9954 65.3363 37.9513 68.1389C39.4782 72.1898 41.9876 73.3746 45.3373 70.6504C48.5352 67.8647 51.2089 64.5294 53.2322 60.802C56.1953 55.6697 58.8184 50.4611 64.2817 47.4445C68.7056 44.9805 73.0524 43.6483 77.8342 46.5532C82.616 49.458 83.0759 53.9014 82.4932 58.4872C81.3327 67.7337 79.7392 76.8982 78.2101 86.0759C76.8511 94.1273 76.6068 102.078 80.1582 109.651C82.6109 114.885 86.6819 115.818 91.0114 111.979C93.3747 109.824 95.4103 107.335 97.0538 104.591C100.528 98.865 103.425 92.8064 106.997 87.161C109.344 83.3023 112.19 79.7706 115.462 76.6575C116.47 75.8883 117.636 75.3524 118.877 75.0885C120.117 74.8246 121.4 74.8394 122.634 75.1316C124.179 75.6156 125.373 78.7057 125.851 80.8305C126.21 83.1968 126.166 85.6071 125.721 87.9588C124.922 93.5005 124.016 98.9799 123.076 104.56C121.665 112.303 122.327 120.281 124.995 127.686L124.963 127.74ZM66.0735 33.1122C71.7609 29.0004 76.1294 24.5114 82.6649 26.2918C88.2597 27.9132 93.3304 30.8168 95.9072 36.0022C98.4839 41.1875 99.6861 46.9239 101.78 53.3193C103.149 54.1095 105.486 55.2186 107.756 56.361C108.977 55.4095 109.844 54.7815 110.631 54.0834C117.83 47.7707 126.309 48.5126 132.006 56.1956C133.646 58.3126 134.861 60.7264 135.585 63.3043C136.099 65.7963 137.411 68.053 139.323 69.7327C141.234 71.4124 143.64 72.4237 146.178 72.6134C157.747 65.3425 167.592 68.1693 172.215 80.7068C172.691 82.0881 173.523 83.3195 174.627 84.2771C175.731 85.2346 177.067 85.8846 178.502 86.1614C184.652 87.6951 190.954 88.5484 197 89.638C201.521 79.3542 196.351 70.9668 185.471 66.4383C172.91 61.2034 160.189 56.1637 147.641 51.032C128.073 42.9903 109.32 33.0955 91.6362 21.4829C84.5176 16.8447 77.4566 12.0237 70.0053 7.96181C57.8635 1.33594 49.6069 4.94874 45.442 18.1512C47.6368 19.9226 49.8648 21.7612 52.4682 23.8645C55.8923 20.0548 59.8987 16.9415 64.8959 20.1387C69.4872 22.9576 65.72 27.3615 66.1047 33.0581L66.0735 33.1122ZM49.7538 28.7322C45.0807 21.6882 38.6315 18.4691 32.1276 15.3863C17.7068 8.54914 5.22617 21.8487 5.25117 32.4519C5.23475 43.1783 8.54476 53.6459 14.7253 62.4128C24.8544 52.4377 24.8544 52.4377 34.7073 52.3397L49.7538 28.7322ZM189.849 143.736C203.463 141.367 212.753 128.146 211.719 114.175C211.147 106.474 208.578 100.068 201.784 96.0738C196.109 92.9866 189.686 91.5398 183.235 91.8954L176.185 112.964C186.842 119.958 190.059 130.771 189.953 143.723L189.849 143.736ZM56.863 62.7062C63.2656 68.2516 69.5166 73.6854 75.7676 79.1193L77.6695 78.3205C78.2012 70.7039 79.2538 63.0999 79.1253 55.4623C79.0467 49.9425 75.6148 47.985 70.3127 49.558C67.118 50.3567 64.1954 51.9961 61.8484 54.306C59.5014 56.616 57.8156 59.5121 56.9662 62.6937L56.863 62.7062ZM106.498 93.7641C111.642 95.9174 115.877 97.6902 121.26 99.8858C121.417 91.8368 124.999 85.0927 121.256 77.6015C113.715 80.307 110.447 86.1756 106.632 93.6976L106.498 93.7641ZM160.731 93.8611C153.388 97.3052 150.447 102.066 147.243 107.491C151.71 108.654 155.589 109.669 160.021 110.811L160.731 93.8611ZM143.359 75.4998C140.555 74.8658 139.102 74.555 135.572 73.7655L137.935 81.2763L139.738 81.1889L143.359 75.4998ZM99.8429 56.8828C99.6496 59.1723 99.4698 60.149 99.4862 61.1189C99.5025 62.0887 99.671 63.6267 99.8137 65.75C100.986 64.9412 102.087 64.035 103.107 63.041C103.828 62.0374 104.471 60.9796 105.029 59.8772L99.8429 56.8828Z" fill="#B28E6A"/>
</svg>
