<svg width="122" height="111" viewBox="0 0 122 111" fill="none" xmlns="http://www.w3.org/2000/svg">
<g opacity="0.1">
<path d="M0.322679 44.875C3.89544 44.6169 6.73535 44.4503 9.56659 44.1963C12.4843 43.9361 14.9152 42.6533 15.6029 39.691C16.4004 36.2539 16.8159 32.5187 14.3254 29.622C13.3303 28.4647 11.1142 28.3565 8.56643 27.4569C9.72516 17.9768 15.6735 9.82707 16.9861 0.306507C28.1466 0.554765 38.0071 3.69397 47.9246 6.41087C63.8866 10.7826 79.8218 15.2529 95.7184 19.8623C103.265 22.0504 110.676 24.6986 118.184 27.0281C120.548 27.7626 121.655 29.518 121.757 31.5949C121.926 35.0679 122.302 38.7849 121.323 42.013C115.922 59.8238 110.14 77.5187 104.482 95.2519C103.291 98.9844 101.441 101.679 97.0127 102.451C94.063 102.966 91.4183 105.064 88.5452 106.219C81.9439 108.871 75.024 110.091 67.9281 110.154C64.5541 110.184 61.3958 109.522 59.094 106.568C49.7389 94.561 37.2392 85.7837 26.5953 75.0992C19.4436 67.9204 12.2551 60.7787 5.14015 53.563C2.99136 51.3768 0.865439 49.0961 0.322679 44.875ZM42.5657 26.325C40.6938 28.1133 39.4547 29.4746 38.0357 30.6143C33.8434 33.9773 29.9364 33.1904 27.2577 28.4996C25.4134 25.2648 25.3938 21.8816 26.1696 18.2894C26.5692 16.4342 26.7681 14.0736 25.9526 12.5268C24.7717 10.2847 22.5878 8.5708 20.6341 6.41405C18.3727 12.8185 16.3446 18.5627 14.2362 24.534C19.799 28.2916 19.9302 33.6262 19.183 39.151C18.3237 45.508 12.6998 46.9882 7.50486 49.4836C22.2928 63.8041 36.6568 77.7141 51.4177 92.0066C56.0182 82.6172 61.5439 75.7167 72.0889 75.9478C74.4246 69.3326 76.6041 63.1599 78.7373 57.1184C66.578 46.7652 54.8024 36.7424 42.5657 26.325ZM117.156 32.4145C104.383 26.9249 31.1097 5.9991 25.0298 6.21213C28.0289 10.1522 30.3957 14.2641 36.04 14.1659C37.0205 14.1487 38.0082 14.745 39.0005 15.0374C42.7456 16.1412 45.1861 18.0457 44.6885 22.5579C44.5445 23.8607 45.4818 25.756 46.5398 26.6458C56.1886 34.7483 65.9456 42.7232 75.7524 50.6392C77.3244 51.908 79.1952 53.2928 81.0899 53.5878C89.1138 54.8355 97.0906 55.0157 104.911 51.9093C115.893 47.5384 117.872 44.6634 117.156 32.4145ZM82.0174 58.3977C78.799 75.3595 68.3328 89.1591 64.7111 106.1C75.5143 105.719 85.2066 103.934 94.5304 100.471C96.2342 99.8376 97.9812 98.0525 98.7453 96.3656C104.293 84.108 109.136 71.5757 112.26 58.4467C112.62 56.9356 112.773 55.3753 113.176 52.8839C103.197 58.457 93.2005 59.3202 82.0174 58.3977ZM70.9573 78.914C62.1935 80.202 58.1322 85.2599 55.0075 91.2752C54.466 92.3166 54.5357 94.2822 55.1899 95.2189C56.7863 97.5076 58.8885 99.4455 61.2324 102.011C64.5643 94.0965 67.5574 86.9918 70.9573 78.914ZM29.6503 16.2711C29.2168 18.886 28.7436 20.4202 28.7534 21.9512C28.7761 25.5567 30.7568 29.4348 32.7788 29.593C36.135 29.8589 37.7672 27.4513 39.5075 24.4393C36.535 21.9755 33.6028 19.547 29.6503 16.2711ZM41.9914 23.0883C41.3592 17.8823 41.3592 17.8823 35.2804 17.2793C37.5269 19.226 39.3062 20.7655 41.9914 23.0883Z" fill="#B28E6A"/>
<path d="M51.1333 40.3242C55.2662 43.7903 56.4129 47.7479 55.2742 51.9573C54.1583 56.08 52.4558 60.1114 50.4739 63.9045C49.192 66.3568 46.7455 67.8553 43.6441 66.6444C40.8273 65.5445 39.3415 63.3976 39.4368 60.4052C39.7107 51.753 43.2603 44.9817 51.1333 40.3242ZM50.5178 43.6412C46.0369 47.4633 43.8626 51.8759 43.0013 57.0154C42.8003 58.2112 42.5752 59.5276 42.8838 60.6452C43.1732 61.6902 43.9867 63.0335 44.8806 63.3439C45.7307 63.6361 47.2406 63.0447 48.014 62.3459C52.3719 58.4173 53.6978 49.6942 50.5178 43.6412Z" fill="#B28E6A"/>
<path d="M103.712 29.9088C104.715 30.4472 106.757 31.4266 108.679 32.6081C110.343 33.6303 111.919 35.2164 110.61 37.1482C109.725 38.4529 107.746 39.8372 106.309 39.7827C102.421 39.6347 98.4787 39.0459 94.7195 38.0346C91.9757 37.2949 89.3461 35.8213 86.943 34.2512C85.7379 33.4649 84.1371 31.1589 84.4857 30.5445C85.2672 29.1666 87.1123 27.6479 88.6037 27.5636C91.8532 27.3783 95.1602 27.9771 98.4238 28.4157C99.8444 28.6065 101.212 29.1868 103.712 29.9088ZM107.59 37.2299C107.711 33.0748 105.04 32.5477 102.757 31.8893C97.6244 30.4115 92.5 27.978 86.1486 30.9816C92.8739 36.1531 99.6226 37.9618 107.59 37.2299Z" fill="#B28E6A"/>
<path d="M63.6116 18.9235C65.4419 20.1992 67.9372 21.6201 69.9803 23.524C70.7924 24.2821 71.1715 26.3859 70.6991 27.3806C70.248 28.33 68.4002 29.1998 67.2304 29.1265C61.4946 28.7605 56.4573 26.5131 52.4121 22.3959C51.6915 21.6622 51.1487 20.022 51.4816 19.1836C51.8185 18.3413 53.388 17.439 54.3561 17.5017C57.2025 17.6824 60.0177 18.3314 63.6116 18.9235ZM53.3883 20.1755C57.2996 24.9407 62.2292 26.3072 67.9359 26.8526C66.131 21.0298 61.4798 18.9345 53.3883 20.1755Z" fill="#B28E6A"/>
<path d="M93.1996 68.8403C91.5014 70.7558 89.804 72.669 87.6707 75.0787C87.0191 69.3233 87.3105 68.9232 92.1262 67.8003C92.4853 68.1483 92.842 68.4955 93.1996 68.8403Z" fill="#B28E6A"/>
<path d="M101.421 72.2436C101.844 69.3301 102.27 66.415 102.823 62.6178C104.571 66.835 104.509 67.7953 102.638 72.5997C102.232 72.4826 101.827 72.3631 101.421 72.2436Z" fill="#B28E6A"/>
<path d="M86.5715 83.9873C84.3384 86.2617 82.1053 88.5362 79.8722 90.8106C80.4456 86.8072 83.4825 85.0983 85.8894 82.8089C86.1173 83.2002 86.3444 83.5937 86.5715 83.9873Z" fill="#B28E6A"/>
<path d="M87.0755 90.1381C85.9397 91.1619 84.8064 92.1865 83.6721 93.2134C83.3602 92.8663 83.0489 92.5167 82.737 92.1696C83.8882 91.1618 85.0385 90.1563 86.1897 89.1485C86.4839 89.4789 86.7781 89.8093 87.0755 90.1381Z" fill="#B28E6A"/>
</g>
</svg>
