<svg width="151" height="144" viewBox="0 0 151 144" fill="none" xmlns="http://www.w3.org/2000/svg">
<g opacity="0.1">
<path fill-rule="evenodd" clip-rule="evenodd" d="M21.4075 46.4833C27.7493 41.1504 33.9931 35.8026 40.3654 30.5258C45.0593 26.6468 48.3457 22.3811 48.599 15.734C48.8523 9.08699 53.3652 4.55444 59.6785 2.02362C71.2815 -2.6424 80.78 2.26225 90.3366 8.14382C103.172 16.0336 112.955 27.279 123.76 37.3951C133.209 46.1929 141.014 56.6055 146.806 68.144C153.105 80.789 151.915 87.5616 143.481 95.3043C139.99 98.3727 135.83 100.582 131.333 101.754C123.641 103.509 116.619 107.446 111.11 113.093C104.365 120.249 97.3864 127.198 90.1728 133.754C86.5724 136.943 82.5525 139.625 78.225 141.724C74.11 143.787 69.7197 143.244 65.2366 141.503C57.7467 138.598 51.8089 133.381 45.2296 129.112C34.9368 122.499 26.2471 113.927 17.3785 105.709C10.3314 99.0122 4.91755 90.7857 1.55506 81.6645C0.235138 78.5879 -0.135695 75.1871 0.490163 71.8984C1.11603 68.6096 2.71002 65.5828 5.06772 63.2061C10.2293 57.5506 15.8314 52.0996 21.4075 46.4833ZM26.5199 45.9832L26.6561 46.1312C23.7533 48.8032 20.7456 51.3614 17.959 54.1368C14.1878 57.9445 10.4263 61.7855 6.93902 65.8787C5.09337 67.8652 3.89071 70.3628 3.48856 73.0444C3.0864 75.726 3.50347 78.4666 4.68521 80.9071C8.31836 89.4232 13.0248 97.1407 20.1307 103.238C22.8376 105.562 25.3028 108.172 28.0097 110.496C33.8473 115.49 39.2951 120.906 46.0761 124.8C53.7667 129.203 61.1383 129.146 68.1132 123.862C72.6157 120.348 76.8747 116.533 80.8608 112.443C87.1891 106.113 93.1174 99.3947 99.4658 93.1096C102.087 90.4027 105.239 88.2653 108.723 86.8308C112.208 85.3963 115.95 84.6955 119.718 84.7721C122.204 84.7479 124.671 84.348 127.038 83.586C129.674 82.9206 131.983 81.3288 133.543 79.1015C135.103 76.8742 135.809 74.16 135.533 71.4549C135.415 64.6019 133.224 57.9454 129.25 52.361C125.241 46.8722 120.886 41.6447 116.211 36.7103C111.749 32.0908 106.18 28.5315 101.864 23.8195C95.5767 16.9893 87.9866 12.0104 80.5849 6.71075C77.6821 4.55238 74.2539 3.21149 70.6571 2.82762C67.0602 2.44375 63.4262 3.03095 60.1333 4.52809C55.0632 6.65049 51.125 10.5279 51.3917 16.7804C51.7121 22.7942 48.494 26.9971 44.4127 30.6277C38.5774 35.8939 32.4915 40.865 26.5199 45.9832Z" fill="#B28E6A"/>
<path fill-rule="evenodd" clip-rule="evenodd" d="M62.0429 58.6223C60.579 59.8647 57.1961 59.3195 55.7765 57.6401C55.4528 57.2836 55.2052 56.8649 55.0488 56.4095C54.8924 55.9541 54.8304 55.4717 54.8667 54.9915C54.903 54.5114 55.0367 54.0437 55.2598 53.617C55.4829 53.1903 55.7905 52.8135 56.1641 52.5097C57.0552 51.8977 58.1436 51.6424 59.2139 51.7942C60.2842 51.9459 61.2587 52.4938 61.9445 53.3294C63.2184 54.8275 63.2802 57.5676 62.0429 58.6223Z" fill="#B28E6A"/>
<path fill-rule="evenodd" clip-rule="evenodd" d="M38.019 63.3875C37.2146 64.131 36.1676 64.557 35.0727 64.5862C33.9777 64.6154 32.9094 64.2458 32.0666 63.5462C30.6343 62.1729 30.3129 59.3565 31.4977 58.2448C32.989 56.8721 36.0092 57.1833 37.7263 58.8203C38.0628 59.0893 38.3394 59.4256 38.5384 59.8077C38.7374 60.1898 38.8544 60.6093 38.882 61.0392C38.9095 61.4691 38.847 61.9001 38.6984 62.3045C38.5498 62.7088 38.3184 63.0777 38.019 63.3875Z" fill="#B28E6A"/>
<path fill-rule="evenodd" clip-rule="evenodd" d="M76.8263 28.9915C75.764 29.7097 74.477 30.0177 73.2047 29.8582C71.9324 29.6988 70.7612 29.0828 69.909 28.1247C68.7603 26.5114 68.5782 24.8285 70.3632 23.5008C70.845 23.1891 71.3839 22.9762 71.9487 22.8745C72.5134 22.7728 73.0927 22.7844 73.653 22.9084C74.2133 23.0325 74.7433 23.2666 75.2123 23.5972C75.6813 23.9278 76.08 24.3482 76.3852 24.8342C77.0227 26.0979 78.0899 27.8284 76.8263 28.9915Z" fill="#B28E6A"/>
<path fill-rule="evenodd" clip-rule="evenodd" d="M102.798 55.1963C102.421 55.6731 101.94 56.0583 101.393 56.3228C100.845 56.5873 100.245 56.7242 99.6367 56.7233C99.0286 56.7224 98.4287 56.5836 97.882 56.3174C97.3352 56.0512 96.856 55.6646 96.4802 55.1865C95.0866 53.6725 94.9122 52.0666 96.4622 50.5978C96.8959 50.2186 97.4044 49.9346 97.9548 49.7644C98.5052 49.5941 99.0852 49.5414 99.6573 49.6094C100.229 49.6775 100.781 49.8649 101.276 50.1596C101.771 50.4542 102.199 50.8495 102.531 51.3199C103.253 52.401 103.709 54.358 102.798 55.1963Z" fill="#B28E6A"/>
<path fill-rule="evenodd" clip-rule="evenodd" d="M69.1151 102.036C68.1453 102.687 66.9698 102.958 65.813 102.797C64.6562 102.636 63.5992 102.054 62.8441 101.163C61.4841 99.3659 62.1432 97.7288 63.4805 96.3716C63.8501 95.9801 64.2937 95.6658 64.7856 95.4469C65.2775 95.2281 65.808 95.109 66.3463 95.0967C66.8846 95.0844 67.4199 95.1789 67.9214 95.375C68.4228 95.5711 68.8803 95.8647 69.2675 96.2389C70.0085 97.0315 70.408 98.0839 70.3794 99.1687C70.3509 100.253 69.8967 101.283 69.1151 102.036Z" fill="#B28E6A"/>
<path fill-rule="evenodd" clip-rule="evenodd" d="M98.4757 69.6682C98.7511 70.0023 98.9576 70.3877 99.0833 70.802C99.2091 71.2164 99.2515 71.6515 99.2082 72.0824C99.1649 72.5132 99.0368 72.9312 98.8311 73.3123C98.6255 73.6933 98.3464 74.0299 98.01 74.3026C97.6691 74.6561 97.2614 74.9386 96.8105 75.1334C96.3597 75.3283 95.8747 75.4319 95.3835 75.438C94.8924 75.4441 94.4049 75.3528 93.9494 75.1692C93.4938 74.9857 93.0791 74.7136 92.7295 74.3686C92.3938 74.1382 92.1159 73.8333 91.9173 73.4778C91.7188 73.1223 91.6049 72.7258 91.5847 72.3192C91.5644 71.9125 91.6383 71.5067 91.8006 71.1332C91.9629 70.7598 92.2091 70.4289 92.5202 70.1662C93.2652 69.3442 94.2943 68.8356 95.3998 68.7432C96.5052 68.6507 97.6046 68.9813 98.4757 69.6682Z" fill="#B28E6A"/>
<path fill-rule="evenodd" clip-rule="evenodd" d="M26.7766 81.0333C24.567 78.8614 24.8859 77.2431 26.139 76.0686C27.3921 74.8941 29.0647 73.9012 30.8123 75.5941C31.5214 76.276 31.9537 77.1958 32.0262 78.1769C32.0988 79.158 31.8065 80.1313 31.2054 80.9101C30.5937 81.4363 29.8194 81.7357 29.0129 81.7582C28.2063 81.7806 27.4166 81.5247 26.7766 81.0333Z" fill="#B28E6A"/>
<path fill-rule="evenodd" clip-rule="evenodd" d="M81.8678 49.5008C82.1613 49.7769 82.3882 50.1159 82.5316 50.4924C82.6749 50.869 82.7309 51.2731 82.6953 51.6744C82.6597 52.0757 82.5334 52.4637 82.3261 52.8091C82.1187 53.1545 81.8356 53.4483 81.4982 53.6684C80.7414 54.2888 79.7704 54.5855 78.7961 54.4939C77.8219 54.4023 76.9231 53.9298 76.2953 53.1792C75.8046 52.5412 75.5818 51.737 75.6742 50.9374C75.7666 50.1378 76.1669 49.4057 76.7902 48.8964C77.142 48.5557 77.5652 48.2976 78.0293 48.1409C78.4933 47.9843 78.9864 47.9331 79.4728 47.991C79.9591 48.0489 80.4264 48.2144 80.8407 48.4756C81.255 48.7368 81.6059 49.087 81.8678 49.5008Z" fill="#B28E6A"/>
<path fill-rule="evenodd" clip-rule="evenodd" d="M55.0554 39.8826C52.8692 37.9415 52.8647 36.7259 54.0445 35.4717C54.3276 35.1296 54.6811 34.8525 55.0808 34.6591C55.4805 34.4657 55.9172 34.3606 56.3611 34.3509C56.8051 34.3412 57.2459 34.4272 57.6537 34.603C58.0614 34.7789 58.4266 35.0404 58.7243 35.3698C60.2049 36.6356 61.1996 40.1151 59.6762 40.6761C58.1529 41.2372 56.6742 41.7782 55.0554 39.8826Z" fill="#B28E6A"/>
<path fill-rule="evenodd" clip-rule="evenodd" d="M76.5122 78.0881C76.8056 78.3641 77.0326 78.7032 77.1759 79.0797C77.3193 79.4562 77.3753 79.8604 77.3397 80.2617C77.3041 80.663 77.1778 81.0509 76.9704 81.3964C76.7631 81.7418 76.48 82.0356 76.1425 82.2557C75.3875 82.8801 74.4154 83.1792 73.4399 83.0875C72.4644 82.9958 71.5652 82.5207 70.9397 81.7665C70.4509 81.1305 70.228 80.3297 70.3182 79.5326C70.4084 78.7356 70.8046 78.0048 71.4232 77.4942C71.7743 77.1508 72.1977 76.8902 72.6625 76.7316C73.1273 76.5729 73.6216 76.5201 74.1094 76.577C74.5972 76.6339 75.0661 76.7992 75.4818 77.0606C75.8976 77.3221 76.2496 77.6731 76.5122 78.0881Z" fill="#B28E6A"/>
<path fill-rule="evenodd" clip-rule="evenodd" d="M51.7577 77.2165C52.0512 77.4925 52.2782 77.8316 52.4215 78.2081C52.5648 78.5846 52.6208 78.9888 52.5852 79.3901C52.5496 79.7914 52.4234 80.1793 52.216 80.5247C52.0086 80.8701 51.7256 81.164 51.3881 81.384C51.0151 81.6951 50.5842 81.9294 50.1202 82.0732C49.6563 82.2171 49.1685 82.2678 48.6849 82.2223C48.2013 82.1768 47.7314 82.0361 47.3024 81.8083C46.8735 81.5805 46.4938 81.27 46.1853 80.8949C45.6964 80.2589 45.4736 79.458 45.5638 78.661C45.654 77.864 46.0502 77.1332 46.6688 76.6225C48.1646 75.1406 50.2647 75.4574 51.7577 77.2165Z" fill="#B28E6A"/>
</g>
</svg>
