<svg width="150" height="126" viewBox="0 0 150 126" fill="none" xmlns="http://www.w3.org/2000/svg">
<g opacity="0.1">
<path d="M6.27651 125.017C5.50613 117.823 4.52682 110.846 4.06111 103.835C3.25156 91.649 2.77715 79.4387 2.11123 67.2415C2.02853 65.7038 1.9328 64.0592 1.34522 62.6785C-0.593786 58.1329 -0.802717 58.0064 3.15365 55.1359C8.56808 51.2076 14.0021 47.2531 19.7473 43.8527C43.2831 29.9215 66.9647 16.2345 90.5245 2.34257C93.5364 0.567086 96.6526 0.617252 99.6536 1.18654C115.048 4.11369 128.671 10.9059 140.514 21.1357C142.144 22.5425 143.35 24.9636 143.807 27.1186C145.894 36.9252 147.87 46.7689 149.415 56.6715C150.135 61.2956 150.079 66.1008 149.835 70.7968C149.589 75.5344 147.426 77.2837 142.029 78.01C140.78 86.0542 139.515 94.1835 138.158 102.915C130.234 104.747 122.515 107.271 114.606 108.233C80.8272 112.34 47.2699 117.758 13.8541 124.14C11.3471 124.62 8.89233 127.091 6.27651 125.017ZM4.0568 57.5941C10.1894 58.2398 12.037 61.481 13.4145 65.4617C14.6963 69.1653 16.3002 72.7883 18.1043 76.2673C19.5601 79.0766 21.4339 81.6831 25.2683 81.5065C29.2835 81.3232 30.3128 78.1736 31.4815 75.2835C32.957 71.6344 34.0472 67.8239 35.5771 64.201C36.5607 61.8693 37.7424 59.4983 39.3507 57.5767C43.7445 52.3266 48.963 53.2361 51.6594 59.5986C52.3427 61.2127 52.458 63.0667 53.1174 64.6961C54.8083 68.8687 56.2055 73.2572 58.5558 77.0372C61.7919 82.2393 67.5284 83.4194 73.0451 80.8499C78.0351 78.5248 80.7315 74.1777 82.7053 69.3769C84.801 64.2817 86.2721 58.9181 88.5441 53.9101C89.8738 50.9786 91.7562 47.901 94.2327 45.9772C98.8855 42.3586 103.434 44.1275 105.142 49.8008C106.219 53.3736 106.659 57.1339 107.68 60.7285C108.641 64.1137 109.59 67.608 111.255 70.666C114.271 76.2084 120.469 76.758 124.262 71.7348C126.587 68.6593 128.293 64.9993 129.72 61.3829C132.245 54.9833 134.299 48.3961 136.671 41.9311C137.078 40.8208 138.088 39.9331 139.361 38.2078C139.955 40.2254 140.549 41.2898 140.53 42.3411C140.451 46.2782 139.957 50.213 140.016 54.1413C140.096 59.4285 140.286 64.7462 140.969 69.9789C141.235 72.0118 142.973 73.8549 144.04 75.7809C147.35 74.1799 147.933 71.8765 147.805 69.4663C147.463 62.9926 147.28 56.4796 146.371 50.0778C145.433 43.4732 143.476 37.0169 142.421 30.4231C141.737 26.1633 139.888 22.9286 136.216 20.9568C126.53 15.7525 116.798 10.6333 106.972 5.69723C104.742 4.5761 102.071 4.3209 99.5949 3.70363C96.1718 2.85078 93.1751 3.57058 90.0936 5.43985C78.8208 12.2735 67.3608 18.7974 56.0401 25.5547C41.5095 34.2293 27.0333 42.9933 12.5658 51.7726C10.061 53.295 7.71502 55.0792 4.0568 57.5941ZM9.40589 122.133C12.1283 121.708 14.0848 121.49 16.0042 121.091C50.8825 113.814 85.9391 107.726 121.49 104.754C126.254 104.354 130.911 102.642 135.344 101.602C136.155 95.7387 136.863 90.6216 137.655 84.8917C133.389 86.8547 129.89 88.4623 125.168 90.6369C128.761 90.8637 131.015 91.0055 133.268 91.1473C131.816 92.3055 130.232 92.9686 128.626 93.0231C116.637 93.4223 104.568 94.6917 92.6702 93.7734C76.7011 92.5411 61.8354 94.9862 47.2525 101.405C41.5835 103.901 35.2964 105.286 29.1486 106.313C22.4284 107.436 15.5428 107.559 8.14152 108.165C8.54412 112.608 8.94453 117.031 9.40589 122.133ZM76.4008 82.488C83.5235 84.0039 89.8498 85.3388 96.1696 86.6999C109.756 89.627 123.07 90.0872 135.692 82.8195C139.187 80.8063 140.919 77.4887 139.496 73.7436C136.828 66.7159 136.736 59.5136 137.548 52.1935C137.679 51.0135 137.568 49.8073 137.568 48.612C135.213 53.0573 133.629 57.653 132.225 62.3055C130.832 66.9209 128.693 71.0913 125.29 74.5114C120.624 79.201 112.918 78.6491 109.564 72.9693C107.51 69.4903 106.363 65.4115 105.192 61.4854C104.126 57.9126 103.782 54.1239 102.744 50.5402C101.523 46.3305 98.5743 45.4406 95.1641 48.25C93.7148 49.4431 92.5701 51.1967 91.7431 52.9155C90.5549 55.3868 89.7105 58.0347 88.8509 60.6543C86.2134 68.7095 83.3886 76.649 76.4008 82.488ZM62.3163 84.1675C55.0325 79.9644 52.2209 73.1329 50.3297 65.73C49.9881 64.3951 49.938 62.9031 49.2851 61.7493C48.358 60.1134 47.283 58.0042 45.7575 57.4C43.4833 56.4992 41.5834 58.5102 40.6411 60.4297C38.6543 64.4758 37.0678 68.7204 35.3051 72.8777C34.2322 75.4079 33.4422 78.1213 31.9885 80.4093C28.8613 85.3344 23.127 86.0411 18.8224 82.115C17.2556 80.6863 15.8497 78.8825 14.9335 76.9783C13.149 73.2703 11.7998 69.3551 10.1981 65.5576C9.22529 63.2543 8.51369 60.4929 4.38541 61.5595C5.39952 72.6508 6.41582 83.7531 7.44299 94.9884C17.2882 98.3888 26.9963 98.2296 36.4563 94.8379C45.0807 91.7471 53.4265 87.8733 62.3163 84.1675ZM8.18071 105.334C11.1578 105.334 13.4972 105.388 15.8345 105.325C27.7405 105.007 39.1918 102.736 50.0577 97.6407C61.2892 92.3753 73.119 90.0611 85.5474 90.8572C89.1817 91.0906 92.8443 90.8921 96.496 90.8921C86.9076 86.75 77.0058 84.2722 66.8646 86.8787C59.1282 88.8658 51.6028 91.8758 44.2102 94.9753C34.1974 99.1741 24.078 101.501 13.2382 99.2133C11.5713 98.86 9.85421 98.7335 7.65405 98.4324C7.83468 100.773 7.97614 102.646 8.18071 105.334Z" fill="#B28E6A"/>
<path d="M12.9793 55.6441C54.0358 47.4101 94.8552 38.1619 136.014 30.6128C130.271 34.4953 22.448 56.5034 12.9793 55.6441Z" fill="#B28E6A"/>
<path d="M90.8532 14.2627C89.9936 19.2598 86.3962 22.2349 82.6336 25.0857C83.7978 20.3155 86.973 17.0284 90.8532 14.2627Z" fill="#B28E6A"/>
<path d="M92.7594 22.6798C93.0466 19.3252 95.1359 17.144 98.0477 14.1732C98.2087 19.1463 95.4905 20.9174 92.7594 22.6798Z" fill="#B28E6A"/>
<path d="M101.138 101.689C100.32 100.576 99.4121 99.8763 99.4208 99.1914C99.4295 98.6243 100.576 97.5795 101.116 97.6428C101.76 97.7169 102.676 98.6985 102.759 99.3768C102.833 99.9592 101.902 100.666 101.138 101.689Z" fill="#B28E6A"/>
<path d="M15.1316 116.03C14.4722 115.075 13.7257 114.462 13.8084 113.997C13.9064 113.437 14.7094 112.998 15.2055 112.508C15.6626 112.987 16.4591 113.45 16.4852 113.949C16.5113 114.484 15.8062 115.055 15.1316 116.03Z" fill="#B28E6A"/>
<path d="M52.1861 110.9C51.5767 109.98 50.7476 109.179 50.9021 108.871C51.2394 108.197 52.075 107.777 52.7061 107.251C53.0696 107.818 53.7616 108.418 53.7094 108.946C53.6528 109.519 52.9086 110.028 52.1861 110.9Z" fill="#B28E6A"/>
<path d="M75.2192 103.024C74.3204 103.172 73.4238 103.321 72.525 103.469C72.4858 102.972 72.3205 102.077 72.4271 102.042C73.3041 101.765 74.2333 101.648 75.1452 101.482C75.1691 101.997 75.1952 102.511 75.2192 103.024Z" fill="#B28E6A"/>
<path d="M99.0726 73.3772C97.83 74.3195 97.1206 75.0742 96.2523 75.4057C95.9193 75.5322 95.2186 74.6903 94.6854 74.2889C95.3666 73.5626 95.9585 72.6945 96.7746 72.1884C97.0531 72.0139 97.891 72.7403 99.0726 73.3772Z" fill="#B28E6A"/>
<path d="M128.038 80.4421C127.289 79.5064 126.408 78.8411 126.517 78.4507C126.724 77.7113 127.411 76.998 128.086 76.5683C128.273 76.4483 129.618 77.4582 129.559 77.7876C129.416 78.5837 128.752 79.2839 128.038 80.4421Z" fill="#B28E6A"/>
<path d="M39.1853 89.8932C37.7664 87.5331 36.7936 86.5363 36.9982 86.1263C37.3899 85.3389 38.4476 84.8874 39.231 84.2963C39.675 85.0379 40.4519 85.7664 40.478 86.5233C40.5063 87.3717 39.8578 88.2442 39.1853 89.8932Z" fill="#B28E6A"/>
<path d="M9.55826 90.2857C9.71495 88.2157 10.6812 87.1731 12.8183 87.5963C13.1708 87.6661 13.7105 88.6651 13.5778 89.0053C12.8879 90.7852 11.5691 91.228 9.55826 90.2857Z" fill="#B28E6A"/>
<path d="M44.8304 76.8975C45.3636 75.9967 45.8532 75.0588 46.4887 74.2365C46.5692 74.134 47.4289 74.6378 47.9294 74.8603C47.3462 75.8244 46.7629 76.7863 46.1797 77.7504C45.7292 77.4668 45.2787 77.1833 44.8304 76.8975Z" fill="#B28E6A"/>
<path d="M38.4324 38.2819C37.7904 39.9985 37.1484 41.7129 36.5064 43.4295C36.1365 44.4154 37.7143 44.8429 38.0799 43.8635C38.7218 42.1469 39.3638 40.4325 40.0058 38.7159C40.3757 37.73 38.798 37.3047 38.4324 38.2819Z" fill="#B28E6A"/>
<path d="M41.2462 37.3723C40.3039 39.2634 39.3594 41.1567 38.4171 43.0478C37.9492 43.9878 39.3572 44.8167 39.8273 43.8744C40.7696 41.9833 41.7141 40.0901 42.6564 38.199C43.1243 37.2589 41.7162 36.43 41.2462 37.3723Z" fill="#B28E6A"/>
<path d="M49.8292 27.592C47.5289 33.1736 45.2264 38.7553 42.924 44.3391C42.5236 45.3119 44.1013 45.7351 44.4974 44.7732C46.7998 39.1915 49.1001 33.6099 51.4025 28.026C51.8051 27.0532 50.2274 26.6301 49.8292 27.592Z" fill="#B28E6A"/>
<path d="M53.248 28.5865C51.1458 33.1626 49.3678 37.8543 47.9228 42.6791C47.6203 43.689 49.1958 44.1209 49.4961 43.1132C50.902 38.4236 52.6147 33.8606 54.6582 29.411C55.0934 28.4643 53.6876 27.6311 53.248 28.5865Z" fill="#B28E6A"/>
<path d="M60.7234 22.9045C58.3709 29.2452 56.2992 35.6688 54.5038 42.1906C54.223 43.207 55.7986 43.641 56.0772 42.6246C57.8725 36.1029 59.9443 29.6793 62.2968 23.3386C62.6624 22.3527 61.0868 21.9252 60.7234 22.9045Z" fill="#B28E6A"/>
<path d="M67.5328 17.7614C64.6884 24.7674 62.0683 31.8497 59.6701 39.0214C59.3349 40.0226 60.9105 40.4501 61.2435 39.4554C63.6416 32.2859 66.2618 25.2014 69.1061 18.1954C69.5022 17.2205 67.9245 16.7973 67.5328 17.7614Z" fill="#B28E6A"/>
<path d="M73.6195 13.6803C70.6555 22.1564 67.6915 30.6325 64.7275 39.1085C64.4207 39.9897 65.7743 40.5416 66.2182 39.7389C66.4119 39.3877 66.6077 39.0344 66.8036 38.6832C67.3128 37.7606 65.9049 36.9361 65.3934 37.8565C65.1976 38.2099 65.0039 38.5611 64.808 38.9144C65.3042 39.1238 65.8025 39.3354 66.2987 39.5448C69.2627 31.0687 72.2267 22.5926 75.1907 14.1165C75.5411 13.1197 73.9656 12.6922 73.6195 13.6803Z" fill="#B28E6A"/>
<path d="M77.1103 13.6106C75.4498 21.0048 73.5108 28.3205 71.2954 35.5685C70.9864 36.5762 72.562 37.0081 72.8688 36.0026C75.0864 28.7545 77.0232 21.4388 78.6837 14.0446C78.9165 13.0216 77.3431 12.5832 77.1103 13.6106Z" fill="#B28E6A"/>
<path d="M84.7075 8.67447C82.5618 18.6621 79.959 28.5167 76.8927 38.2622C76.6207 39.1282 78.0113 39.7542 78.3834 38.8926C78.5901 38.4149 78.7969 37.9372 79.0014 37.4596C79.4149 36.5042 78.0091 35.6688 77.5912 36.6351C77.3845 37.1127 77.1778 37.5904 76.9732 38.0681C77.4694 38.2775 77.9677 38.4891 78.4639 38.6985C81.5302 28.9529 84.1308 19.0983 86.2787 9.1107C86.5029 8.08118 84.9295 7.64277 84.7075 8.67447Z" fill="#B28E6A"/>
<path d="M89.791 7.20455C88.0153 17.2424 85.8804 27.1951 83.3865 37.078C83.1297 38.0988 84.703 38.5351 84.9598 37.5121C87.4538 27.6292 89.5865 17.6764 91.3644 7.6386C91.5472 6.60909 89.9739 6.1663 89.791 7.20455Z" fill="#B28E6A"/>
<path d="M96.7789 4.78331C94.0325 14.3107 92.2567 23.9712 91.4146 33.8498C91.3253 34.8989 92.9575 34.8924 93.0467 33.8498C93.8759 24.1173 95.6473 14.5986 98.3523 5.21955C98.6461 4.2053 97.0705 3.77124 96.7789 4.78331Z" fill="#B28E6A"/>
<path d="M101.863 5.50958C99.8322 14.6422 97.8018 23.7748 95.7714 32.9053C95.5429 33.9304 97.1163 34.3688 97.3448 33.3393C99.3752 24.2067 101.406 15.0763 103.436 5.94364C103.665 4.91848 102.093 4.48006 101.863 5.50958Z" fill="#B28E6A"/>
<path d="M107.066 7.72998C104.892 14.7447 103.001 21.827 101.39 28.9922C101.16 30.0173 102.733 30.4557 102.964 29.4262C104.574 22.261 106.465 15.1765 108.639 8.16185C108.953 7.15632 107.377 6.72663 107.066 7.72998Z" fill="#B28E6A"/>
<path d="M111.492 9.20033C110.147 16.3502 108.104 23.2559 105.342 29.9848C104.942 30.9576 106.522 31.3808 106.916 30.4189C109.675 23.6899 111.719 16.7843 113.066 9.63438C113.262 8.60705 111.688 8.16645 111.492 9.20033Z" fill="#B28E6A"/>
<path d="M115.751 11.3749C114.2 18.9567 112.648 26.5363 111.094 34.1181C110.883 35.1455 112.456 35.5861 112.667 34.5522C114.219 26.9704 115.771 19.3908 117.325 11.809C117.536 10.7838 115.962 10.3432 115.751 11.3749Z" fill="#B28E6A"/>
<path d="M122.182 17.0198C120.7 23.0137 119.379 29.0425 118.219 35.1083C118.023 36.1379 119.594 36.5785 119.792 35.5424C120.952 29.4765 122.273 23.4499 123.755 17.4538C124.01 16.433 122.437 15.9968 122.182 17.0198Z" fill="#B28E6A"/>
<path d="M127.805 18.734C126.671 22.7561 125.431 26.7433 124.082 30.7C123.74 31.699 125.318 32.1265 125.655 31.1341C127.004 27.1796 128.245 23.1924 129.379 19.1681C129.666 18.1538 128.09 17.722 127.805 18.734Z" fill="#B28E6A"/>
<path d="M132.721 21.1967C131.427 24.4641 130.321 27.786 129.396 31.1756C129.12 32.192 130.693 32.6261 130.97 31.6096C131.892 28.2201 133 24.8959 134.295 21.6285C134.682 20.6535 133.104 20.2282 132.721 21.1967Z" fill="#B28E6A"/>
<path d="M35.588 35.1431C32.2366 40.4325 28.8852 45.7219 25.5339 51.0091C24.968 51.9012 26.3804 52.7213 26.9441 51.8336C30.2954 46.5442 33.6468 41.2548 37.0004 35.9676C37.5618 35.0777 36.1494 34.2576 35.588 35.1431Z" fill="#B28E6A"/>
<path d="M26.794 41.2548C24.509 45.1286 21.9214 48.7777 19.0075 52.2044C18.3307 53.0005 19.4797 54.1631 20.1609 53.3604C23.1619 49.829 25.8473 46.073 28.202 42.0793C28.7374 41.1719 27.3272 40.3474 26.794 41.2548Z" fill="#B28E6A"/>
<path d="M18.7854 46.1733C16.1369 50.2129 12.9031 53.7355 9.12955 56.7433C8.30694 57.3977 9.46904 58.5494 10.2829 57.8994C14.1653 54.8064 17.4731 51.153 20.1934 47C20.7723 46.1166 19.3599 45.2965 18.7854 46.1733Z" fill="#B28E6A"/>
<path d="M14.5701 62.2358C14.8204 67.0584 15.1534 71.8745 15.5669 76.684C15.6561 77.7244 17.2904 77.7353 17.199 76.684C16.7855 71.8723 16.4526 67.0562 16.2023 62.2358C16.1479 61.1888 14.5157 61.1823 14.5701 62.2358Z" fill="#B28E6A"/>
<path d="M18.4198 59.806C18.1956 64.5326 17.8649 69.2723 17.965 74.0076C18.015 76.3459 17.5972 80.7279 19.1706 82.6866C19.3338 82.8916 19.7212 82.9919 19.9649 82.896C20.0389 82.8676 20.1107 82.8393 20.1847 82.8109C21.1531 82.4357 20.7331 80.8522 19.7516 81.2339C20.4088 80.9787 19.5885 70.9278 19.6189 69.6627C19.6994 66.3757 19.8953 63.0886 20.0519 59.806C20.102 58.7524 18.4698 58.7568 18.4198 59.806Z" fill="#B28E6A"/>
<path d="M23.0965 59.3064C22.6178 67.3266 22.8245 75.2988 23.7211 83.2841C23.8364 84.318 25.4708 84.3311 25.3532 83.2841C24.4566 75.301 24.2499 67.3266 24.7287 59.3064C24.7918 58.2551 23.1596 58.2594 23.0965 59.3064Z" fill="#B28E6A"/>
<path d="M29.2465 61.0273C28.5762 66.2207 28.1519 71.4294 27.9756 76.6642C27.9408 77.7177 29.573 77.7155 29.6078 76.6642C29.7841 71.4294 30.2084 66.2207 30.8787 61.0273C31.0114 59.9869 29.3793 59.9956 29.2465 61.0273Z" fill="#B28E6A"/>
<path d="M48.7389 51.7266C48.4386 54.4117 48.136 57.0945 47.8357 59.7796C47.7182 60.8244 49.3526 60.8156 49.4679 59.7796C49.7704 57.0945 50.0707 54.4117 50.371 51.7266C50.4886 50.684 48.8542 50.6906 48.7389 51.7266Z" fill="#B28E6A"/>
<path d="M52.382 50.4987C52.2753 58.1175 52.3188 65.7321 52.5125 73.3488C52.5321 74.1362 53.6311 74.4917 54.0337 73.761C54.5212 72.8776 54.4929 72.9867 54.6844 71.9964C54.8846 70.9669 53.3112 70.5285 53.111 71.5624C52.9478 72.0204 52.7867 72.4785 52.6235 72.9365C53.1306 73.0739 53.6376 73.2113 54.1447 73.3488C53.9532 65.7321 53.9097 58.1154 54.0141 50.4987C54.0272 49.4473 52.395 49.4452 52.382 50.4987Z" fill="#B28E6A"/>
<path d="M57.4524 53.4347C57.4959 58.9509 57.707 64.4606 58.1575 69.9616C58.41 73.0414 58.1793 76.6796 60.151 79.212C60.7973 80.0408 61.9442 78.8761 61.3044 78.0559C59.1847 75.3316 59.6657 68.6987 59.4655 65.3789C59.2261 61.4004 59.1151 57.4219 59.0825 53.4369C59.0759 52.3812 57.4437 52.379 57.4524 53.4347Z" fill="#B28E6A"/>
<path d="M63.7744 49.0286C63.4392 59.8211 63.8048 70.5656 64.8734 81.308C64.9756 82.3462 66.61 82.3571 66.5055 81.308C65.437 70.5634 65.0714 59.8189 65.4065 49.0286C65.4392 47.9773 63.807 47.9773 63.7744 49.0286Z" fill="#B28E6A"/>
<path d="M69.4456 49.5193C69.8678 59.7251 70.4706 69.92 71.2584 80.1039C71.3389 81.1465 72.9711 81.1552 72.8905 80.1039C72.1028 69.92 71.5 59.7251 71.0778 49.5193C71.0343 48.4702 69.4021 48.4658 69.4456 49.5193Z" fill="#B28E6A"/>
<path d="M74.6358 49.526C74.1897 59.1189 74.5619 68.6463 75.7566 78.1737C75.885 79.2032 77.5194 79.2163 77.3888 78.1737C76.194 68.6441 75.8197 59.1189 76.268 49.526C76.3181 48.4725 74.6859 48.4747 74.6358 49.526Z" fill="#B28E6A"/>
<path d="M79.4562 54.1698C78.799 59.3152 78.738 64.4366 79.2712 69.5951C79.3779 70.6311 81.0122 70.6421 80.9034 69.5951C80.368 64.4366 80.429 59.313 81.0884 54.1698C81.2212 53.1293 79.5868 53.1381 79.4562 54.1698Z" fill="#B28E6A"/>
<path d="M84.5724 48.0514C84.8423 52.0495 84.8314 56.0389 84.542 60.0349C84.4658 61.0862 86.098 61.0796 86.1741 60.0349C86.4636 56.0367 86.4745 52.0495 86.2046 48.0514C86.1328 47.0066 84.5006 47.0001 84.5724 48.0514Z" fill="#B28E6A"/>
<path d="M102.903 40.474C102.718 43.2528 102.746 46.0229 102.992 48.7974C103.083 49.8378 104.718 49.8487 104.624 48.7974C104.378 46.0229 104.35 43.2528 104.535 40.474C104.607 39.4227 102.975 39.427 102.903 40.474Z" fill="#B28E6A"/>
<path d="M106.681 37.7868C106.485 43.1634 106.289 48.5422 106.095 53.9188C106.026 55.8644 104.777 60.0087 106.707 61.289C107.586 61.8714 108.404 60.4558 107.529 59.8756C106.755 59.363 107.875 49.792 107.91 48.8235C108.043 45.1439 108.178 41.4642 108.311 37.7868C108.35 36.7332 106.718 36.7354 106.681 37.7868Z" fill="#B28E6A"/>
<path d="M110.885 43.1635C111.364 54.3508 112.108 65.5184 113.12 76.6708C113.214 77.7112 114.848 77.72 114.752 76.6708C113.74 65.5184 112.996 54.3508 112.517 43.1635C112.472 42.1143 110.84 42.1078 110.885 43.1635Z" fill="#B28E6A"/>
<path d="M117.033 41.944C116.833 52.309 116.941 62.6631 117.364 73.0215C117.388 73.6192 118.045 74.0707 118.591 73.7282C119.346 73.2528 119.442 73.1219 119.725 72.2734C120.058 71.2722 118.482 70.8425 118.151 71.8393C119.564 67.6035 118.628 62.0807 118.578 57.4872C118.524 52.3068 118.563 47.1265 118.663 41.9462C118.687 40.8905 117.055 40.8905 117.033 41.944Z" fill="#B28E6A"/>
<path d="M122.249 35.5947C123.751 48.8432 124.517 62.1135 124.547 75.4471C124.55 76.4984 126.182 76.5006 126.18 75.4471C126.149 62.1135 125.383 48.8432 123.881 35.5947C123.764 34.5608 122.132 34.5477 122.249 35.5947Z" fill="#B28E6A"/>
<path d="M129.248 38.271C128.967 44.7186 128.996 51.1553 129.329 57.6007C129.383 58.6476 131.015 58.6542 130.961 57.6007C130.628 51.1553 130.602 44.7186 130.88 38.271C130.926 37.2175 129.294 37.2197 129.248 38.271Z" fill="#B28E6A"/>
<path d="M136.071 36.5587C135.755 39.1696 135.711 41.7739 135.938 44.3935C136.027 45.434 137.661 45.4449 137.57 44.3935C137.341 41.7717 137.387 39.1696 137.703 36.5587C137.829 35.5161 136.195 35.5248 136.071 36.5587Z" fill="#B28E6A"/>
<path d="M140.506 37.9918C140.752 39.704 140.997 41.4162 141.243 43.1285C141.391 44.1667 142.965 43.7261 142.817 42.6944C142.571 40.9822 142.325 39.2699 142.079 37.5599C141.931 36.5195 140.358 36.9622 140.506 37.9918Z" fill="#B28E6A"/>
</g>
</svg>
