<svg width="187" height="168" viewBox="0 0 187 168" fill="none" xmlns="http://www.w3.org/2000/svg">
<g opacity="0.1">
<path d="M186.056 102.673C186.491 95.9858 177.708 91.6031 171.971 92.4858C171.902 92.4947 171.834 92.5161 171.772 92.5492C180.023 61.8695 167.643 28.8092 139.705 12.2037C123.435 2.54123 102.444 -0.357401 83.7329 0.869902C67.3535 2.02175 51.8269 8.60688 39.6137 19.5817C26.5317 31.4449 18.3966 47.7991 16.8276 65.3891C13.3817 62.0471 8.24834 59.0771 4.03047 62.8075C0.541125 65.8961 1.55072 70.5744 4.76304 72.8528C-2.9339 77.4924 0.645475 90.7318 9.69924 89.0462C9.68721 89.1291 9.67011 89.2113 9.64804 89.2922C9.53191 89.2441 9.40507 89.2277 9.28054 89.2449C9.15601 89.262 9.03828 89.312 8.93945 89.3897C-1.18741 97.1284 0.680599 109.51 8.81459 116.336C5.7527 129.535 7.33687 141.542 21.1163 147.42C28.4995 150.566 36.5742 152.352 44.3089 154.37C53.939 156.903 63.6356 159.154 73.3986 161.124C83.1616 163.094 92.9665 164.769 102.813 166.149C110.75 167.252 118.835 168.317 126.816 167.411C139.694 165.962 152.527 158.448 154.983 144.854C155.006 144.712 155.008 144.567 154.991 144.424C165.719 140.299 174.333 128.617 166.083 117.696C167.11 117.694 168.126 117.485 169.069 117.081C170.221 116.621 171.199 115.81 171.863 114.763C172.527 113.715 172.844 112.485 172.768 111.247C178.278 113.642 185.681 108.51 186.056 102.673ZM48.5441 16.4706C66.4778 3.78858 87.7132 2.03661 108.94 5.14763C129.717 8.17674 148.328 18.0814 160.12 35.8066C166.01 44.8114 169.697 55.0767 170.883 65.7713C172.068 76.466 170.718 87.2896 166.943 97.3656C166.872 97.5359 166.834 97.718 166.831 97.9024C155.635 102.257 144.471 102.255 132.517 100.946C118.829 99.4502 105.142 97.8189 91.4561 96.0516C65.7578 92.7333 41.3654 87.1201 19.0688 73.5669C19.9629 51.1089 29.9932 29.5958 48.5441 16.4706ZM78.809 107.267C79.5436 108.09 80.4711 108.716 81.5081 109.091C82.545 109.465 83.6589 109.576 84.7494 109.413C85.8398 109.25 86.8726 108.818 87.7547 108.157C88.6367 107.495 89.3404 106.625 89.8023 105.624C91.5342 106.964 93.5273 107.927 95.6535 108.451C95.7759 114.31 91.3644 118.747 85.6215 119.546C81.3429 120.149 77.8153 118.657 73.97 117.121C70.4797 115.73 67.8524 114.845 64.4863 116.781C63.9035 117.115 63.7644 118.007 63.2087 118.323C58.2182 121.17 56.7647 119.409 53.9924 116.137C52.8911 114.633 51.6067 113.273 50.169 112.086C48.6262 111.066 46.9004 110.354 45.087 109.99C43.9688 109.758 41.973 109.762 41.0285 109.087L37.3864 101.026C38.3855 99.3941 39.8241 98.0763 41.5376 97.2239C42.7671 98.1584 44.178 98.8264 45.6801 99.1852C47.1822 99.544 48.7426 99.5858 50.2618 99.3079C49.9359 100.936 50.1141 102.625 50.7726 104.149C51.4311 105.674 52.5388 106.961 53.9477 107.84C55.3566 108.718 56.9999 109.147 58.6585 109.068C60.3171 108.989 61.9122 108.406 63.2311 107.397C65.0213 111.071 68.2069 114.487 72.6546 114.024C74.3592 113.924 75.957 113.161 77.1068 111.898C78.2566 110.636 78.8675 108.974 78.809 107.267ZM90.0327 102.498C89.8576 102.345 89.6457 102.24 89.4177 102.192C89.1896 102.145 88.9533 102.158 88.7317 102.229C88.51 102.301 88.3107 102.428 88.153 102.6C87.9954 102.771 87.8847 102.98 87.832 103.207C86.9361 107.512 82.4745 108.602 79.5266 105.445C79.4299 105.355 79.3137 105.289 79.1871 105.251C79.0605 105.214 78.927 105.206 78.7969 105.229C78.6668 105.251 78.5437 105.304 78.4372 105.382C78.3308 105.46 78.2437 105.561 78.183 105.679C77.7026 105.52 77.0626 105.737 77.018 106.288C76.7081 110.412 74.0667 111.612 70.5458 110.704C67.0249 109.796 66.015 108.594 64.6954 105.182C64.6267 105.004 64.5144 104.846 64.369 104.722C64.2235 104.599 64.0494 104.514 63.8626 104.475C63.6757 104.436 63.4821 104.444 63.2995 104.5C63.1168 104.555 62.9509 104.655 62.8168 104.791C58.2115 109.374 49.921 105.093 52.6087 98.233C52.685 98.0491 52.7079 97.8474 52.6751 97.6511C52.6422 97.4547 52.5548 97.2716 52.4229 97.1225C52.2909 96.9734 52.1197 96.8644 51.9288 96.8079C51.7379 96.7514 51.5349 96.7497 51.3431 96.803C45.2193 98.2001 39.8593 94.413 41.0279 88.4615C57.4756 94.8594 75.7177 97.5126 92.7651 99.6839L101.172 100.769C101.042 100.987 100.989 101.243 101.021 101.495C101.721 108.781 92.7856 104.518 90.0281 102.521L90.0327 102.498ZM2.96622 82.3835C2.71451 81.5045 2.64399 80.5836 2.75893 79.6765C2.87387 78.7695 3.17187 77.8953 3.63486 77.1069C4.09785 76.3185 4.7162 75.6324 5.45236 75.0902C6.18851 74.548 7.02714 74.161 7.91738 73.9526C9.15425 73.6151 8.77654 72.0665 7.78227 71.7429C3.52884 67.9645 3.77787 65.4226 8.52937 64.1171C9.59295 64.0006 10.6673 64.1998 11.6183 64.6899C13.4378 65.426 15.1359 66.4323 16.6552 67.6748C16.5508 69.578 16.507 71.4705 16.5637 73.3839C16.4442 73.5755 16.399 73.8041 16.4364 74.0268C16.4739 74.2495 16.5915 74.4508 16.7671 74.5928C23.5587 80.1041 31.1508 84.548 39.2816 87.7714C39.2491 87.928 39.1359 88.0794 39.0698 88.229C38.4543 87.8792 37.6063 88.0294 37.5166 88.909C36.8188 95.9618 27.3905 97.9895 24.9007 90.6699C24.8243 90.4702 24.6863 90.3001 24.5066 90.1842C24.3269 90.0683 24.115 90.0127 23.9016 90.0256C23.6882 90.0384 23.4844 90.1189 23.3199 90.2555C23.1554 90.3921 23.0387 90.5775 22.9868 90.7849C20.8114 98.8835 11.0634 95.9448 11.3871 88.6158C11.5346 88.5366 11.651 88.41 11.7175 88.2563C11.7839 88.1027 11.7965 87.931 11.7531 87.7693C11.7098 87.6076 11.613 87.4654 11.4786 87.3656C11.3442 87.2658 11.18 87.2144 11.0127 87.2196C7.61449 87.2357 4.00683 85.9599 2.96622 82.3835ZM118.827 164.71C103.853 164.347 88.5988 161.184 73.9608 158.254C59.144 155.287 44.4304 151.712 29.9417 147.448C23.6639 145.605 16.5223 143.372 12.6738 137.648C8.82526 131.924 9.34171 124.005 10.0103 117.261C12.0497 118.728 14.3376 119.812 16.7635 120.463C28.2819 123.584 40.2874 125.429 51.9654 127.895C63.1473 130.222 74.3291 132.549 85.4947 134.954C96.6603 137.36 107.826 139.765 118.952 142.081C129.15 144.203 140.14 147.505 150.629 145.652C151.078 145.57 151.517 145.475 151.959 145.369C148.496 160.105 132.437 165.011 118.86 164.717L118.827 164.71ZM172.906 109.071C172.775 109 172.63 108.96 172.481 108.955C172.332 108.951 172.184 108.981 172.049 109.044C171.945 108.871 171.852 108.7 171.734 108.536C170.99 107.459 169.013 108.273 169.58 109.581C171.38 113.712 166.576 115.384 163.127 114.187C161.202 113.369 159.439 112.212 157.923 110.771C157.772 110.64 157.593 110.545 157.4 110.493C157.206 110.44 157.004 110.432 156.807 110.468C156.61 110.505 156.424 110.585 156.262 110.703C156.101 110.821 155.968 110.973 155.873 111.149C153.539 117.488 147.733 111.695 145.444 109.691C145.363 109.608 145.253 109.559 145.138 109.553C145.022 109.548 144.909 109.587 144.821 109.662C144.732 109.737 144.676 109.842 144.663 109.957C144.649 110.072 144.68 110.188 144.749 110.281C147.181 114.625 154.158 118.83 157.454 113.812C159.269 115.43 161.393 116.666 163.697 117.444C163.512 117.544 163.351 117.683 163.226 117.851C163.1 118.019 163.013 118.213 162.97 118.419C162.927 118.624 162.93 118.837 162.978 119.041C163.026 119.246 163.118 119.437 163.248 119.602C168.249 126.29 165.147 134.977 158.495 139.192C151.469 143.633 142.685 143.123 134.86 141.763C118.175 138.862 101.559 135.066 84.9625 131.682C68.5783 128.342 52.1689 125.067 35.7917 121.694C28.0427 120.081 17.4352 119.647 10.8973 114.961C2.68198 109.087 3.21038 98.1953 9.56323 91.2694C10.271 98.1831 20.5438 100.169 24.0524 93.4566C27.7061 98.8835 35.6844 98.6656 38.5946 93.1466C38.9647 94.3962 39.6484 95.5304 40.5805 96.4414C35.3508 98.6429 31.1777 104.681 36.3678 109.564C39.9344 112.943 45.6386 111.937 49.5238 114.962C52.6765 117.415 53.9189 121.255 58.0535 122.465C61.7054 123.529 62.3586 121.623 64.9253 119.941C70.6443 116.173 76.0777 121.457 82.0076 121.944C90.2857 122.64 98.0598 117.293 97.8409 108.592C98.5194 108.512 99.1822 108.331 99.8073 108.056C101.206 107.471 102.36 106.422 103.074 105.084C103.902 106.476 105.171 107.552 106.679 108.143C108.187 108.733 109.848 108.805 111.402 108.346C111.282 109.535 111.504 110.733 112.043 111.8C112.581 112.867 113.413 113.758 114.441 114.368C117.451 116.161 120.725 115.232 123.342 113.362C124.1 118.688 128.135 123.459 133.977 123.532C140.597 123.615 145.542 117.399 144.987 111.1C144.967 110.787 144.823 110.494 144.588 110.286C144.352 110.079 144.043 109.973 143.73 109.993C143.416 110.013 143.123 110.156 142.916 110.392C142.708 110.628 142.603 110.936 142.622 111.25C142.761 123.423 124.66 123.623 125.703 111.042C125.738 110.784 125.692 110.523 125.571 110.292C125.451 110.062 125.262 109.875 125.031 109.756C124.8 109.638 124.537 109.594 124.28 109.631C124.023 109.667 123.783 109.783 123.595 109.962C120.775 113.645 117.644 112.655 114.203 106.992C114.358 106.764 114.425 106.488 114.392 106.214C114.359 105.94 114.228 105.688 114.023 105.503C113.819 105.318 113.554 105.214 113.279 105.209C113.003 105.204 112.735 105.299 112.524 105.476L106.239 101.426C116.248 102.716 126.278 103.964 136.322 104.864C147.518 105.888 159.857 106.076 169.759 99.9232C169.921 99.8121 170.059 99.6699 170.166 99.5048C170.273 99.3396 170.346 99.1549 170.381 98.9614C170.416 98.7679 170.412 98.5694 170.369 98.3774C170.327 98.1854 170.247 98.0037 170.133 97.843C170.557 96.6479 170.936 95.4435 171.29 94.2456C171.372 94.3164 171.46 94.378 171.555 94.4291C175.379 96.1814 180.183 95.4663 182.548 99.7967C185.367 104.863 177.82 111.529 172.94 109.078L172.906 109.071Z" fill="#B28E6A"/>
<path d="M57.3578 19.4131C56.7341 19.0965 56.0248 18.9898 55.3356 19.1092C54.6464 19.2286 54.0142 19.5675 53.5334 20.0755C52.4509 21.0168 51.0824 22.7153 51.1713 24.2504C51.1759 24.6115 51.2909 24.9627 51.5008 25.2566C51.7107 25.5505 52.0055 25.7732 52.3456 25.8947C52.7904 25.995 53.2536 25.9783 53.69 25.8463C54.1264 25.7142 54.5211 25.4714 54.8357 25.1413C55.9853 24.214 57.5461 22.2639 57.2746 20.5974C57.3888 20.5505 57.4876 20.4727 57.5599 20.3726C57.6321 20.2725 57.6751 20.1542 57.6837 20.0311C57.6923 19.908 57.6664 19.7848 57.6088 19.6757C57.5512 19.5665 57.4643 19.4755 57.3578 19.4131ZM54.6418 22.4294C54.3251 22.8302 53.8881 23.1359 53.5849 23.5278L53.4298 23.6005C53.8298 22.4704 54.563 21.4881 55.5327 20.7832C55.278 21.3538 54.9801 21.9041 54.6418 22.4294Z" fill="#B28E6A"/>
<path d="M71.5109 15.9305C71.1606 14.0261 69.4379 12.6059 67.8593 11.6707C66.8203 11.0578 65.7663 12.6468 66.7038 13.3552C65.8473 14.8919 65.1367 16.6806 66.0241 18.3585C66.1865 18.7116 66.419 19.028 66.7074 19.2884C66.9958 19.5489 67.3342 19.748 67.702 19.8737C68.0697 19.9993 68.4592 20.0488 68.8467 20.0193C69.2342 19.9898 69.6116 19.8817 69.9561 19.7018C70.5574 19.2958 71.0256 18.7214 71.3022 18.0506C71.5787 17.3798 71.6513 16.6424 71.5109 15.9305ZM69.4413 17.6348C68.8098 18.7633 67.6617 18.0577 67.3065 17.0738C67.0706 16.0581 67.226 14.9908 67.7419 14.0846C68.9446 14.9765 70.2391 16.1559 69.4413 17.6348Z" fill="#B28E6A"/>
<path d="M67.2972 30.2896C67.219 29.3339 66.9512 28.4033 66.5094 27.5522C66.0676 26.7011 65.4606 25.9465 64.724 25.3326C63.8549 24.4634 62.7388 25.3978 62.8411 26.364C61.672 27.7773 60.6655 29.5861 61.2469 31.4453C61.3374 31.8375 61.5043 32.2079 61.738 32.5354C61.9718 32.863 62.2679 33.1412 62.6093 33.3542C62.9507 33.5672 63.3308 33.7108 63.7278 33.7768C64.1248 33.8427 64.5308 33.8298 64.9228 33.7386C65.6261 33.4791 66.2319 33.0083 66.657 32.3907C67.0822 31.7732 67.3058 31.0393 67.2972 30.2896ZM64.6861 31.6245C63.6483 32.5751 62.6934 30.9414 62.6825 30.0409C62.7562 29.1562 63.0459 28.3032 63.5262 27.5566C64.631 28.6381 66.1698 30.3816 64.7644 31.6408L64.6861 31.6245Z" fill="#B28E6A"/>
<path d="M161.07 88.3621C161.012 88.1585 160.889 87.9797 160.719 87.8536C160.549 87.7275 160.342 87.6611 160.13 87.6649C160.093 87.5195 160.022 87.3849 159.923 87.272C159.824 87.1591 159.7 87.0709 159.56 87.0147C159.421 86.9585 159.271 86.9358 159.121 86.9483C158.971 86.9609 158.827 87.0084 158.699 87.087C156.934 88.1663 155.002 89.4326 154.283 91.4878C153.99 92.3899 154.003 93.3634 154.318 94.2578C154.634 95.1522 155.235 95.9177 156.03 96.4361C156.402 96.6608 156.817 96.8066 157.248 96.8644C157.679 96.9223 158.117 96.891 158.536 96.7724C158.954 96.6539 159.344 96.4506 159.68 96.1753C160.017 95.8999 160.294 95.5583 160.493 95.1717C161.086 94.1498 161.446 93.0091 161.546 91.8317C161.645 90.6542 161.483 89.4693 161.07 88.3621ZM159.151 92.9324C158.784 94.0227 157.76 95.4662 156.709 94.0692C155.299 92.1542 157.491 90.3121 159.084 89.162C159.508 90.3793 159.532 91.7008 159.151 92.9324Z" fill="#B28E6A"/>
<path d="M164.421 78.9332C163.008 77.1165 161.183 75.6613 159.098 74.6872C158.899 74.5972 158.674 74.5826 158.465 74.6461C158.256 74.7096 158.077 74.8468 157.961 75.0324C157.845 75.2179 157.801 75.439 157.836 75.6547C157.871 75.8705 157.984 76.0661 158.152 76.2053C158.605 78.221 159.519 80.1044 160.822 81.7073C161.749 82.857 163.582 84.8716 165.139 83.3874C166.419 82.1139 165.306 80.0623 164.421 78.9332ZM163.786 81.9858C163.355 82.3162 161.123 79.6467 160.841 79.3197C160.293 78.5877 159.831 77.7949 159.466 76.957C160.255 77.4143 160.991 77.9587 161.66 78.5801C162.038 78.8922 164.513 81.4606 163.864 82.0021L163.786 81.9858Z" fill="#B28E6A"/>
<path d="M157.77 81.8538C156.548 80.2352 154.758 79.1411 152.76 78.793C152.366 78.6899 151.954 78.6719 151.552 78.7401C151.15 78.8083 150.767 78.9611 150.428 79.1885C150.09 79.4158 149.803 79.7126 149.588 80.0589C149.373 80.4053 149.234 80.7935 149.18 81.1977C149.11 81.9766 149.293 82.7574 149.704 83.4232C150.114 84.089 150.729 84.604 151.456 84.8913C153.415 85.6256 155.362 84.6776 157.054 83.7231C157.145 83.6762 157.221 83.6043 157.272 83.5158C157.324 83.4273 157.349 83.3259 157.345 83.2236C157.475 83.1758 157.592 83.0987 157.688 82.9981C157.784 82.8976 157.855 82.7763 157.896 82.6438C157.937 82.5113 157.947 82.3711 157.925 82.234C157.903 82.097 157.85 81.9669 157.77 81.8538ZM151.47 81.6277C151.492 80.6288 152.846 81.0157 153.472 81.2043C154.399 81.5077 155.242 82.0227 155.935 82.7086C154.411 83.138 151.427 83.8002 151.47 81.6277Z" fill="#B28E6A"/>
<path d="M134.887 23.0771L134.336 23.1489C134.197 23.1352 134.057 23.154 133.927 23.204C131.129 23.5379 128.538 24.8497 126.612 26.908C126.474 27.0654 126.38 27.2559 126.338 27.4608C126.295 27.6656 126.307 27.8779 126.371 28.077C126.436 28.276 126.551 28.4549 126.705 28.5964C126.859 28.7378 127.047 28.837 127.251 28.8841C128.157 29.0616 129.09 29.0582 129.995 28.8742C130.9 28.6903 131.76 28.3292 132.525 27.812C133.453 27.1651 134.986 25.6292 135.021 24.2833C135.724 24.1028 135.66 23.0047 134.887 23.0771Z" fill="#B28E6A"/>
<path d="M143.301 29.1213C143.493 27.1314 142.12 25.3758 140.863 24.0175C140.743 23.8896 140.586 23.8017 140.414 23.7659C140.242 23.7301 140.063 23.7481 139.901 23.8174C139.796 23.7418 139.671 23.6984 139.541 23.6924C139.411 23.6863 139.282 23.7179 139.17 23.7833C139.058 23.8487 138.967 23.9451 138.908 24.0609C138.85 24.1768 138.826 24.3071 138.839 24.4363C138.982 26.2159 137.627 27.6838 137.474 29.4253C137.43 29.7892 137.462 30.1584 137.569 30.509C137.676 30.8596 137.856 31.1837 138.097 31.4604C138.337 31.737 138.633 31.96 138.965 32.1149C139.298 32.2698 139.659 32.3531 140.025 32.3594C140.866 32.2946 141.657 31.9336 142.256 31.3407C142.856 30.7478 143.226 29.9613 143.301 29.1213ZM140.552 30.0541C140.036 30.4018 139.553 30.3129 139.403 29.6868C139.381 28.7881 139.566 27.8964 139.945 27.0814C139.997 26.8354 140.046 26.6006 140.094 26.3658C140.584 26.9317 140.936 27.6039 141.121 28.3293C141.207 28.6408 141.199 28.971 141.098 29.2781C140.997 29.5851 140.807 29.8552 140.552 30.0541Z" fill="#B28E6A"/>
<path d="M94.8718 54.1342C94.4285 53.237 93.3165 53.9272 93.2682 54.6638C93.3206 55.8667 93.1766 57.0701 92.8418 58.2266C92.5722 58.9054 90.7264 61.7762 90.0702 60.613C89.5906 59.7782 90.7778 57.7737 91.189 57.031C91.9222 55.8123 92.8062 54.691 93.8201 53.6937C93.9573 53.5478 94.0356 53.3562 94.04 53.156C94.0444 52.9558 93.9745 52.7611 93.8438 52.6093C93.7132 52.4575 93.5309 52.3595 93.3323 52.334C93.1336 52.3086 92.9326 52.3575 92.7679 52.4714C90.8511 53.8341 84.5501 61.8557 89.6193 63.004C93.8097 63.9461 96.3623 57.1743 94.8718 54.1342Z" fill="#B28E6A"/>
<path d="M103.58 56.2383C102.245 54.5255 99.8238 53.9399 97.7524 53.8588L97.7016 53.7666C97.6272 53.659 97.5199 53.5785 97.3958 53.537C97.2718 53.4956 97.1376 53.4954 97.0134 53.5365C96.8893 53.5777 96.7818 53.658 96.7071 53.7653C96.6323 53.8727 96.5944 54.0014 96.5989 54.1321C96.9316 55.7376 97.6533 57.2369 98.7008 58.4983C99.7482 59.7598 101.089 60.7449 102.606 61.3671C102.806 61.4623 103.032 61.4917 103.25 61.4512C103.468 61.4106 103.667 61.3022 103.82 61.1413C104.342 60.4183 104.604 59.5389 104.56 58.6478C104.516 57.7567 104.171 56.907 103.58 56.2383ZM101.37 56.7117C101.766 56.9643 102.087 57.3175 102.302 57.7352C102.516 58.1529 102.616 58.62 102.59 59.0889C101.134 58.2891 99.8828 57.1621 98.9357 55.7967C99.7997 55.9378 100.627 56.2488 101.37 56.7117Z" fill="#B28E6A"/>
<path d="M98.155 62.5173C98.1068 62.3919 98.0302 62.2794 97.9311 62.1887C97.8321 62.0979 97.7133 62.0314 97.5842 61.9944C97.4551 61.9573 97.3191 61.9507 97.187 61.9752C97.0549 61.9996 96.9303 62.0543 96.8229 62.1351C96.7054 62.0725 96.5711 62.0488 96.4393 62.0675C96.3075 62.0862 96.1851 62.1463 96.0896 62.2391C94.1962 64.05 89.7186 71.2144 94.8035 72.0627C99.8884 72.911 99.441 65.3632 98.155 62.5173ZM95.7647 70.0228C93.8742 70.586 94.5692 67.9191 94.843 66.9961C95.2015 65.8357 95.7522 64.7436 96.472 63.7653C96.6858 65.933 98.0143 69.3594 95.7647 70.0228Z" fill="#B28E6A"/>
<path d="M33.0695 62.2945C33.0592 62.0401 32.9642 61.7965 32.7996 61.6022C32.635 61.408 32.4102 61.2743 32.161 61.2225C31.9117 61.1706 31.6523 61.2035 31.4239 61.3159C31.1954 61.4284 31.0111 61.6139 30.9002 61.8431C30.5333 63.1437 30.0217 64.399 29.3747 65.5854C29.0684 66.292 28.6222 66.9293 28.0632 67.459L27.5405 67.8403C27.2471 67.4878 27.0914 67.0409 27.1023 66.5825C26.9555 63.8687 29.1393 62.7366 30.6 60.9873C30.6637 60.9159 30.7077 60.8291 30.7274 60.7355C30.7472 60.6419 30.7422 60.5447 30.7128 60.4536C30.6834 60.3626 30.6306 60.2808 30.5598 60.2165C30.489 60.1521 30.4025 60.1074 30.3091 60.0868C26.4146 59.6846 23.3857 65.774 25.2676 68.8955C28.3883 74.0248 32.7225 64.8589 33.0695 62.2945Z" fill="#B28E6A"/>
<path d="M37.1433 63.7957C36.9871 63.7671 36.8261 63.7793 36.6759 63.831C36.5257 63.8827 36.3913 63.9722 36.2858 64.0909C36.1802 64.2095 36.107 64.3534 36.0731 64.5086C36.0393 64.6638 36.0459 64.8251 36.0925 64.9769C36.1062 65.0457 36.1274 65.1127 36.1559 65.1768C35.2507 66.581 34.9221 68.2802 35.2386 69.9207C35.5679 71.6458 36.9959 74.0896 39.0737 73.9154C43.3146 73.5497 40.0105 64.3691 37.1433 63.7957ZM38.694 71.4797C38.1387 72.0175 37.1277 69.2522 37.046 68.8036C36.9375 68.1382 36.9719 67.4574 37.1467 66.8063C37.4003 67.1079 37.6257 67.432 37.8202 67.7747C38.1357 68.3887 39.2916 70.9625 38.694 71.4797Z" fill="#B28E6A"/>
</g>
</svg>
