<svg width="205" height="126" viewBox="0 0 205 126" fill="none" xmlns="http://www.w3.org/2000/svg">
<g opacity="0.1">
<path d="M101.04 123.14C91.0071 120.473 80.8304 118.357 70.9779 115.003C58.4939 110.752 47.7786 103.075 40.7023 90.0673C37.0536 83.3586 32.0113 79.3615 25.3822 76.8885C17.9183 74.1054 10.7849 70.1374 3.58805 66.4739C-0.53303 64.3769 -1.31871 59.3539 2.35631 56.4976C5.71475 53.8856 9.68324 51.8812 13.6332 50.7513C26.2682 47.1384 39.2572 46.4906 52.1833 46.8749C96.6989 48.2006 139.675 58.3299 180.933 77.5277C185.979 79.8751 190.787 82.9876 195.482 86.1762C198.081 87.9402 200.462 90.3377 202.503 92.9033C206.459 97.8758 205.729 102.517 200.261 104.534C191.736 107.682 183.09 110.794 174.283 112.469C163.206 114.576 152.283 116.546 142.048 122.307C135.194 126.165 127.621 126.349 120.113 125.254C113.8 124.334 107.516 123.169 101.219 122.112C101.159 122.455 101.1 122.797 101.04 123.14ZM2.69161 61.0348C15.0273 67.2337 26.2646 74.2135 38.234 78.5781C54.9174 84.6592 71.9612 90.0206 89.1941 93.4408C112.742 98.116 136.581 101.01 160.361 103.971C169.245 105.077 178.317 104.354 187.301 104.222C192.644 104.144 197.54 102.277 202.314 97.4975C199.788 94.8106 197.717 91.7925 195.031 89.9288C189.805 86.3034 184.422 82.7995 178.777 80.164C138.728 61.4716 96.8699 52.1251 53.7564 50.4346C41.7798 49.9646 29.7022 51.8582 17.7164 53.2095C12.5632 53.7924 7.37862 55.3826 2.69161 61.0348ZM172.97 109.038C128.047 105.531 83.9323 98.7563 40.8427 83.5944C45.043 91.5335 49.4172 98.8041 56.3243 103.762C65.224 110.149 75.0137 113.633 85.1683 115.835C95.2972 118.033 105.555 119.437 115.699 121.55C125.741 123.64 135.213 122.367 144.505 117.423C149.032 115.015 153.952 113.437 158.814 112.018C163.453 110.664 168.245 110.003 172.97 109.038Z" fill="#B28E6A"/>
<path d="M24.6545 61.2057C29.6832 56.7111 33.7946 56.8961 37.6209 56.5881C52.5272 55.3894 67.4301 55.678 82.2734 57.8219C103.623 60.9079 124.954 64.1883 145.237 72.9814C149.728 74.928 154.075 77.3781 158.332 79.9379C160.428 81.1974 162.401 82.9839 164.015 84.9702C167.563 89.3315 166.576 94.0419 161.472 94.9006C155.463 95.9124 149.246 96.0066 143.163 95.6057C122.738 94.2577 102.591 90.516 82.6824 85.2163C70.3074 81.9214 57.857 78.7863 45.7633 74.4159C39.4222 72.1237 33.7714 67.3369 27.8267 63.6385C26.8608 63.0362 25.9943 62.2407 24.6545 61.2057ZM30.235 60.472C40.8461 70.5374 40.807 69.498 49.9263 67.2855C60.6347 64.687 70.6556 65.3263 80.6796 70.7146C89.1089 75.2427 98.1731 77.1617 107.602 75.9663C116.895 74.7905 125.362 77.5819 133.414 82.8068C138.168 85.8904 143.144 88.5485 148.108 91.187C153.161 93.8756 158.133 93.1873 163.447 90.2836C161.719 85.9901 158.806 83.9434 155.712 82.0588C146.154 76.2409 135.908 72.5658 125.432 69.7821C99.2728 62.8307 72.8058 58.7057 45.875 59.3989C41.1299 59.5202 36.393 60.0378 30.235 60.472ZM138.725 91.0375C129.457 83.633 119.552 78.2921 107.892 79.5982C100.098 80.473 92.59 79.5128 85.2546 76.5836C81.9518 75.2641 78.6868 73.7883 75.4982 72.1453C66.8242 67.6788 58.0814 68.5018 49.1593 71.9552C78.4749 81.5294 108.213 88.4614 138.725 91.0375Z" fill="#B28E6A"/>
<path d="M76.303 9.43466C82.0696 14.701 73.052 20.3889 70.7434 23.072C69.2629 24.7914 68.2273 26.598 67.6416 28.9452C66.3888 33.9636 67.6858 38.9998 70.6969 42.7834C71.3949 43.6608 72.7077 42.5608 72.0017 41.6772C68.3113 37.0419 67.6106 30.0003 71.2945 25.0199C73.3978 22.1773 76.6074 20.6506 78.4206 17.4742C80.3273 14.1335 80.0687 10.4969 77.3189 7.98488C76.5008 7.23992 75.4852 8.68725 76.303 9.43466Z" fill="#B28E6A"/>
<path d="M90.3243 2.04614C92.1401 5.93418 94.2165 10.4536 94.7283 14.8979C96.2545 28.1818 92.5251 27.0257 87.3793 33.7011C85.412 36.254 84.0809 38.4136 83.7888 41.9003C83.3327 47.3374 86.6187 52.1499 86.9007 57.4233C87.0506 60.2541 84.7776 63.8509 86.5547 66.1696C86.7385 66.4105 87.0117 66.6039 87.3077 66.5361C87.5359 66.4843 87.7661 66.4329 87.9945 66.3788C89.0133 66.1472 88.826 64.3029 87.7959 64.5376C89.5715 64.1329 88.0623 54.8277 87.8972 53.9323C86.2256 44.8323 82.9965 43.6902 90.246 33.2346C92.0377 30.6497 92.3876 31.7437 94.1305 29.0781C99.6263 20.6761 95.6745 9.5706 91.8387 1.35516C91.3466 0.30984 89.8313 0.990671 90.3243 2.04614Z" fill="#B28E6A"/>
<path d="M110.704 5.91712C111.877 8.43934 113.199 11.0218 114.024 13.7358C117.21 24.2152 115.036 28.2638 109.463 34.7048C107.336 37.1635 105.196 38.4945 104.114 41.9638C100.837 52.4585 111.471 60.5973 104.953 70.6482C104.332 71.609 105.6 72.7697 106.224 71.8092C108.19 68.7784 109.806 66.1416 109.588 62.2417C109.455 59.8738 107.435 56.9567 106.725 54.8821C103.657 45.9178 108.096 41.2868 112.581 34.2731C119.196 23.9309 117.453 16.4893 112.215 5.22541C111.729 4.17873 110.214 4.85956 110.704 5.91712Z" fill="#B28E6A"/>
<path d="M133.085 8.69839C128.79 11.1081 125.708 15.1443 125.286 20.8097C124.975 24.9859 126.65 27.64 128.031 31.3076C130.868 38.8377 131.344 40.9931 128.04 49.913C127.391 51.6644 126.511 53.0271 125.877 54.8286C125.489 55.9362 126.977 56.686 127.366 55.5761C129.388 49.8166 132.803 46.2565 132.304 39.7239C131.493 29.1156 119.946 18.1306 133.691 10.4181C134.625 9.89467 134.026 8.16869 133.085 8.69839Z" fill="#B28E6A"/>
<path d="M144.765 28.603C147.051 33.7276 149.284 39.241 147.107 44.8269C145.877 47.9862 143.991 49.6075 142.381 52.4129C140.191 56.2362 139.687 60.3275 140.802 64.6631C141.098 65.8079 142.604 65.108 142.313 63.9713C139.949 54.7802 147.349 51.8764 149.388 44.6196C151.021 38.8125 148.534 32.9763 146.276 27.9113C145.805 26.8546 144.289 27.5354 144.765 28.603Z" fill="#B28E6A"/>
<path d="M56.981 68.9421C60.1781 72.6769 63.447 76.3313 66.7856 79.9048C67.5504 80.7233 68.5626 79.2679 67.8036 78.4553C64.4651 74.8818 61.198 71.2302 57.999 67.4926C57.2672 66.6396 56.2589 68.0982 56.981 68.9421Z" fill="#B28E6A"/>
<path d="M64.6569 68.4503C67.906 72.2413 71.1554 76.03 74.4066 79.8214C75.1384 80.6744 76.1467 79.2158 75.4246 78.3719C72.1755 74.5809 68.9261 70.7923 65.6749 67.0009C64.9431 66.1479 63.9348 67.6064 64.6569 68.4503Z" fill="#B28E6A"/>
<path d="M72.862 70.6377C76.2526 75.2177 80.1198 79.1975 84.4774 82.5545C84.8564 82.8457 85.3102 82.8119 85.6209 82.4089C86.1524 81.723 86.1682 81.4981 86.162 80.5944C86.1557 79.4031 84.5403 79.6369 84.5476 80.8209C84.4811 80.9623 84.4164 81.1065 84.35 81.2479C84.7311 81.1994 85.1123 81.1508 85.4932 81.1047C81.2492 77.8368 77.4717 73.9945 74.1669 69.5315C73.495 68.621 72.1865 69.7217 72.862 70.6377Z" fill="#B28E6A"/>
<path d="M84.2771 75.2717C87.1535 79.6228 90.5715 83.3623 94.5129 86.4443C95.3733 87.1164 96.395 85.6725 95.5309 84.9948C91.7009 82.0015 88.3778 78.393 85.5844 74.1633C84.9532 73.2097 83.6462 74.3156 84.2771 75.2717Z" fill="#B28E6A"/>
<path d="M96.4419 78.5314C99.055 81.9832 102.314 86.211 105.933 88.2888C107.503 89.1899 109.226 87.4087 107.49 86.2097C106.597 85.5921 105.951 87.2966 106.835 87.9075C106.745 86.8897 106.329 86.1698 105.586 85.7449C105.167 85.392 104.752 85.0324 104.342 84.6635C103.625 84.018 102.928 83.3509 102.245 82.6612C100.638 81.0336 99.1498 79.2785 97.747 77.4227C97.0672 76.5234 95.7562 77.6262 96.4419 78.5314Z" fill="#B28E6A"/>
<path d="M107.465 79.9991C110.493 82.6153 113.524 85.2294 116.554 87.8459C117.388 88.5661 118.406 87.1191 117.572 86.3964C114.542 83.7799 111.513 81.1662 108.483 78.5496C107.647 77.8291 106.629 79.2761 107.465 79.9991Z" fill="#B28E6A"/>
<path d="M117.114 81.6187C118.736 83.0487 120.356 84.4783 121.978 85.9084C123.238 87.02 124.578 88.6828 126.02 89.4175C127.197 90.0176 128.798 88.9236 127.762 87.4568C127.105 86.529 125.797 87.6321 126.457 88.5631C126.851 87.874 126.71 87.4003 126.036 87.1395C125.63 86.7814 125.225 86.4233 124.819 86.0677C124.11 85.4411 123.399 84.8167 122.691 84.1902C121.171 82.8499 119.652 81.5095 118.132 80.1692C117.301 79.4372 116.285 80.887 117.114 81.6187Z" fill="#B28E6A"/>
<path d="M127.088 85.3058C129.054 87.8239 131.176 90.153 133.469 92.2807C133.786 92.574 134.372 92.5548 134.613 92.1351C135.161 91.1794 135.465 90.2853 135.53 89.136C135.598 87.952 133.989 87.672 133.921 88.8658C133.875 89.6608 133.734 90.2923 133.342 90.974C133.723 90.9255 134.104 90.8769 134.485 90.8309C132.298 88.8009 130.269 86.5999 128.393 84.1971C127.702 83.3135 126.389 84.4135 127.088 85.3058Z" fill="#B28E6A"/>
<path d="M180.311 91.1613C177.689 92.434 175.375 94.241 173.358 96.5355C172.615 97.3786 173.894 98.5309 174.629 97.6965C176.44 95.6351 178.569 94.027 180.92 92.8838C181.881 92.4175 181.279 90.6936 180.311 91.1613Z" fill="#B28E6A"/>
<path d="M183.945 95.2121C181.144 96.3923 178.419 97.7677 175.767 99.3381C174.846 99.8836 175.443 101.612 176.374 101.06C179.026 99.4899 181.749 98.1141 184.552 96.9343C185.535 96.5192 184.929 94.797 183.945 95.2121Z" fill="#B28E6A"/>
<path d="M42.0175 89.0503C55.22 99.1506 71.5281 102.448 86.8185 106.207C106.48 111.043 126.342 114.517 146.344 116.879C147.383 117.001 147.624 115.166 146.581 115.043C129.341 113.007 112.198 110.162 95.1977 106.299C77.7309 102.329 58.0719 99.1042 43.0355 87.6009C42.1692 86.9404 41.1475 88.3842 42.0175 89.0503Z" fill="#B28E6A"/>
<path d="M49.9349 95.7278C51.5425 98.2556 52.7714 101 53.6436 103.959C53.9777 105.091 55.486 104.396 55.154 103.265C54.239 100.161 52.926 97.2701 51.2422 94.6194C50.6239 93.6505 49.3188 94.7592 49.9349 95.7278Z" fill="#B28E6A"/>
<path d="M54.6062 97.1621C55.2258 99.6841 55.9331 102.171 56.7299 104.628C57.0939 105.749 58.6018 105.057 58.2403 103.933C57.4435 101.477 56.7362 98.9899 56.1166 96.4679C55.8328 95.3201 54.3261 96.0198 54.6062 97.1621Z" fill="#B28E6A"/>
<path d="M58.7175 97.8398C59.4967 101.214 60.2762 104.585 61.0555 107.959C61.1905 108.545 61.9222 108.685 62.2955 108.358C62.6098 108.08 62.9237 107.805 63.2401 107.528C64.0708 106.8 63.1011 105.31 62.2701 106.04C61.9559 106.318 61.6419 106.592 61.3255 106.869C61.7382 107.001 62.1529 107.136 62.5656 107.268C61.7863 103.894 61.0067 100.522 60.2275 97.1481C59.9621 95.9933 58.4551 96.6955 58.7175 97.8398Z" fill="#B28E6A"/>
<path d="M64.5851 102.273C65.1955 104.458 65.8058 106.644 66.4162 108.829C66.734 109.968 68.2426 109.271 67.9262 108.137C67.3159 105.952 66.7055 103.767 66.0974 101.582C65.7773 100.443 64.2687 101.14 64.5851 102.273Z" fill="#B28E6A"/>
<path d="M71.2367 102.107C71.1961 105.343 71.4565 108.507 72.0678 111.671C72.2914 112.826 73.9086 112.612 73.6822 111.444C73.1028 108.459 72.8067 105.436 72.8438 102.379C72.8601 101.199 71.2503 100.914 71.2367 102.107Z" fill="#B28E6A"/>
<path d="M76.4832 103.417C76.2851 106.21 76.0293 109.007 75.8873 111.807C75.8247 113.039 75.8529 114.451 77.0514 114.9C78.0384 115.271 78.7025 113.574 77.7068 113.202C76.9541 112.918 78.0187 104.72 78.0906 103.687C78.1754 102.504 76.5668 102.226 76.4832 103.417Z" fill="#B28E6A"/>
<path d="M80.8888 107.387C80.2297 109.657 79.8206 111.962 79.692 114.351C79.6272 115.532 81.2374 115.815 81.3016 114.621C81.4212 112.403 81.7672 110.248 82.3794 108.138C82.7023 107.012 81.217 106.255 80.8888 107.387Z" fill="#B28E6A"/>
<path d="M85.1241 108.754C84.8659 110.058 84.6073 111.365 84.3491 112.669C84.1481 113.683 83.7286 114.861 83.7837 115.895C83.8413 116.995 84.7786 118.21 85.7178 117.32C86.522 116.56 85.5547 115.067 84.7478 115.832C85.304 115.99 85.56 115.773 85.5162 115.178C85.5534 114.992 85.5906 114.806 85.6278 114.619C85.7582 113.966 85.8861 113.315 86.0164 112.662C86.2562 111.449 86.496 110.237 86.7358 109.024C86.965 107.86 85.3548 107.595 85.1241 108.754Z" fill="#B28E6A"/>
<path d="M89.9561 109.572C89.6286 112.11 89.301 114.648 88.9735 117.186C88.8209 118.368 90.4305 118.639 90.583 117.456C90.9106 114.918 91.2381 112.38 91.5657 109.842C91.7182 108.66 90.1087 108.39 89.9561 109.572Z" fill="#B28E6A"/>
<path d="M94.999 109.316C94.2712 112.169 94.0799 115.028 94.4923 117.965C94.6564 119.14 96.2742 118.922 96.1068 117.739C95.7434 115.152 95.8468 112.584 96.4878 110.063C96.7764 108.932 95.2914 108.172 94.999 109.316Z" fill="#B28E6A"/>
<path d="M101.871 109.192C100.665 112.165 99.7663 115.242 99.1473 118.441C98.9221 119.609 100.532 119.874 100.757 118.711C101.344 115.674 102.215 112.763 103.36 109.942C103.8 108.855 102.309 108.11 101.871 109.192Z" fill="#B28E6A"/>
<path d="M106.553 110.838C105.322 113.359 104.447 116.01 103.88 118.821C103.645 119.984 105.255 120.249 105.49 119.091C106.024 116.445 106.885 113.957 108.043 111.588C108.553 110.543 107.059 109.802 106.553 110.838Z" fill="#B28E6A"/>
<path d="M111.431 114.257C110.157 116.751 109.327 119.412 108.901 122.256C108.725 123.435 110.334 123.705 110.51 122.527C110.913 119.844 111.721 117.356 112.919 115.007C113.447 113.975 111.95 113.236 111.431 114.257Z" fill="#B28E6A"/>
<path d="M117.81 115.37C116.555 117.82 115.981 120.489 115.99 123.319C115.994 124.51 117.61 124.274 117.605 123.092C117.595 120.6 118.199 118.264 119.298 116.12C119.829 115.086 118.334 114.35 117.81 115.37Z" fill="#B28E6A"/>
<path d="M124.37 117.051C123.255 118.762 122.517 120.654 122.138 122.741C121.926 123.91 123.536 124.175 123.748 123.011C124.067 121.249 124.7 119.655 125.639 118.21C126.264 117.254 124.994 116.091 124.37 117.051Z" fill="#B28E6A"/>
<path d="M130.111 116.075C129.431 117.961 128.754 119.848 128.074 121.734C127.677 122.838 129.166 123.588 129.563 122.482C130.243 120.595 130.92 118.709 131.6 116.822C131.997 115.719 130.508 114.969 130.111 116.075Z" fill="#B28E6A"/>
<path d="M134.921 116.69C134.625 118.238 133.952 119.528 132.966 120.632C132.218 121.467 133.496 122.619 134.237 121.793C135.433 120.454 136.177 118.823 136.531 116.962C136.754 115.792 135.144 115.527 134.921 116.69Z" fill="#B28E6A"/>
</g>
</svg>
