<svg width="227" height="249" viewBox="0 0 227 249" fill="none" xmlns="http://www.w3.org/2000/svg">
<path opacity="0.1" d="M157.191 143.996C185.407 174.651 209.728 207.719 226.232 249C226.582 244.944 227.381 242.893 226.786 241.391C223.277 232.556 220.131 223.477 215.592 215.169C203.395 192.854 188.341 172.451 171.804 153.127C169.204 150.09 166.592 147.057 164.098 144.154C174.657 129.18 171.967 113.251 171.132 96.5101C161.943 104.367 156.637 116.519 154.774 133.354C149.534 127.559 144.794 122.313 139.798 116.791C151.559 103.953 145.638 87.3093 148.82 70.5848C135.849 79.079 129.468 91.926 129.455 108.874C122.112 102.483 115.685 96.8998 108.485 90.6348C123.314 76.854 120.299 60.0402 117.491 43.1045C107.197 53.7304 99.1609 65.1846 99.9026 82.7618C90.4727 76.2693 83.0029 69.7078 74.7426 63.2803C81.3321 47.0146 74.9097 30.8219 76.0263 13.7401C66.409 21.6821 60.7609 37.1196 61.5596 52.488C54.5137 47.8186 45.7929 45.9629 45.0879 35.67C45.0023 34.4153 43.7021 33.0755 42.6671 32.0807C29.9485 19.8266 15.1927 10.3742 0.155411 0C-1.94328 21.6862 17.6336 43.7298 33.5022 45.5732C46.3634 47.0715 46.347 47.1973 56.0988 55.6712C44.4684 60.9294 33.0824 66.0738 21.183 71.4497C39.8716 82.6603 53.2951 81.0727 69.8116 65.55C76.6538 71.0274 83.6469 76.6266 91.3693 82.8105C84.1278 87.0617 77.8683 90.6591 71.6863 94.3825C65.7814 97.9393 59.9499 101.626 53.5683 105.577C74.9587 114.347 84.4782 112.049 103.774 93.5339C110.27 99.0194 116.859 104.582 123.469 110.165C109.402 117.469 96.0107 124.425 82.6198 131.376C82.9907 132.351 83.3615 133.329 83.7324 134.304C100.779 132.164 120.331 141.442 133.294 121.359C138.144 126.699 142.639 131.644 146.844 136.277C137.602 139.688 127.019 143.598 115.983 147.67C130.417 157.521 143.674 156.392 157.191 143.996ZM4.05521 8.33584C16.5048 17.4432 29.806 24.9507 41.1675 36.478C36.2773 38.0616 32.5445 40.5708 29.4393 39.9496C25.3845 39.1375 21.4316 36.3156 18.1471 33.5302C10.4532 27.0012 6.24763 18.2431 4.05521 8.33584ZM65.6552 104.915C72.9619 95.4625 88.3617 87.9346 97.539 89.3314C90.9454 103.331 83.1171 107.156 65.6552 104.915ZM63.5196 63.061C55.5079 75.0756 45.8376 77.6579 30.8329 70.8691C42.6223 68.0755 50.797 58.0871 63.5196 63.061ZM107.258 85.1939C102.258 72.8789 105.465 61.6521 115.877 53.7304C115.563 64.8436 118.167 76.1434 107.258 85.1939ZM129.244 116.889C122.85 129.273 116.378 131.798 97.3964 128.392C108.909 123.272 116.92 115.403 129.244 116.889ZM137.94 113.137C131.68 100.12 133.237 92.5188 143.661 82.4978C143.853 93.0385 144.884 102.897 137.94 113.137ZM70.476 30.0465C74.2455 39.2472 74.4126 48.7443 70.9406 56.4427C63.5035 46.8035 63.4178 41.8986 70.476 30.0465ZM162.529 136.699C158.177 126.386 159.4 119.902 167.473 110.441C168.854 123.495 167.664 129.829 162.529 136.699ZM151.355 141.799C144.652 151.235 139.391 152.474 128.473 147.187C135.988 144.146 142.659 139.655 151.355 141.799Z" fill="#B28E6A"/>
</svg>
