<svg width="205" height="126" viewBox="0 0 205 126" fill="none" xmlns="http://www.w3.org/2000/svg">
<g opacity="0.1">
<path d="M120.83 21.3645C118.148 16.2357 120.101 12.4834 123.57 9.26561C125.438 7.53018 127.473 5.93163 129.61 4.53967C135.629 0.614307 141.729 -0.586534 148.663 2.8714C174.334 15.6779 193.608 34.2149 202.462 62.2167C205.173 70.7879 206.075 79.6252 203.375 88.3849C202.295 91.8919 200.751 95.4428 198.62 98.3972C193.266 105.824 185.677 107.699 177.758 103.183C173.653 100.84 170.133 101.101 165.848 101.987C135.781 108.187 105.766 114.734 75.519 119.907C58.1458 122.877 40.3759 123.551 22.7708 125.11C17.2254 125.601 11.6182 126.032 6.07797 125.738C-0.304893 125.397 -1.82008 121.967 2.29258 117.115C5.73268 113.055 9.74741 109.388 13.9193 106.067C24.1262 97.9375 34.6913 90.2598 44.8983 82.1302C69.5046 62.5369 93.9899 42.7939 118.527 23.1128C119.253 22.5266 120.008 21.9843 120.83 21.3645ZM62.6218 114.669C57.9629 111.733 53.1803 109.716 47.7328 112.629C52.7654 113.161 57.4501 116.653 62.8151 114.455C60.6866 114.959 58.5221 115.997 56.44 115.85C52.5515 115.573 48.7249 114.535 44.8519 113.957C42.2518 113.569 39.5564 113.257 37.1574 116.8C47.0293 117.198 55.9736 121.154 65.9718 117.678C64.3226 116.152 63.4928 115.387 62.6218 114.669ZM125.417 21.1682C120.905 24.9128 120.905 24.9128 121.243 29.0551C122.152 40.2476 118.65 45.5107 107.838 48.7078C104.73 49.6271 101.393 50.6859 98.2674 50.4225C91.3254 49.8337 86.3985 53.1057 81.4844 57.2609C74.2203 63.402 66.6984 69.2411 59.9522 74.6746C59.9522 79.1268 60.5449 82.7035 59.8388 85.9987C57.8598 95.2285 49.9643 101.775 39.693 102.591C34.6862 102.989 29.5918 102.266 23.5928 102.01C18.2433 106.609 12.1722 111.705 6.26866 116.991C4.68132 118.411 2.34412 119.889 4.09895 123.496C11.0101 123.083 18.1789 122.781 25.3116 122.12C26.6335 121.996 27.8163 120.418 29.0738 119.524C33.2251 116.575 37.0492 112.903 41.5999 110.834C52.1521 106.039 62.0833 108.805 69.2083 117.928C104.668 113.21 139.675 105.181 174.452 96.6773C172.896 91.6802 171.602 87.525 170.319 83.4008C166.392 82.5253 162.16 82.1121 158.344 80.6272C147.996 76.6037 144.372 67.2758 148.704 57.4546C149.48 55.6934 149.601 53.537 149.611 51.5614C149.652 42.2877 144.908 36.3145 136.583 32.7532C131.504 30.5891 127.427 27.2216 125.417 21.1682ZM127.455 17.3358C129.806 25.2227 130.447 26.421 138.448 30.3464C146.601 34.3466 151.992 39.9506 152.531 49.4515C152.874 55.4661 156.288 59.8537 160.645 63.5906C163.294 65.8632 166.425 67.6709 168.703 70.2508C170.932 72.7738 173.916 76.0639 173.826 78.9279C173.581 86.6882 177.81 93.0618 178.642 100.158C187.161 103.802 192.132 102.591 196.85 95.3989C201.089 88.9376 202.439 81.6576 201.607 74.0109C200.398 62.8933 196.304 52.7803 190.261 43.5041C179.065 26.3203 164.392 12.9895 145.465 4.85216C137.067 1.24185 125.281 7.89171 122.462 17.6664C124.136 17.5553 125.621 17.4572 127.455 17.3358ZM53.59 93.6145C35.8535 92.9043 35.8535 92.9043 32.617 96.8761C35.5185 97.0905 39.2859 96.2615 40.7598 97.7335C42.9759 99.9519 44.4757 99.0609 46.1506 98.2138C48.7403 96.8994 51.1214 95.1691 53.59 93.6145ZM154.664 73.9024C158.885 79.2223 164.186 80.9448 170.95 79.5116C168.087 69.1584 160.251 74.7314 154.664 73.9024ZM39.5874 91.2592C44.9189 90.8719 49.3124 90.5904 53.6982 90.2159C56.3627 89.9886 56.9811 88.341 56.6281 85.6243C50.5828 86.0116 44.2051 83.8992 39.5874 91.2592ZM118.179 37.4869C112.703 36.1259 108.023 35.7747 104.212 40.6427C112.669 42.4117 112.669 42.4117 118.179 37.4869ZM163.026 70.8783C159.656 65.7625 154.907 67.9421 149.258 67.3894C153.428 74.1942 158.787 70.4651 163.026 70.8783ZM151.441 57.8936C150.462 60.6414 149.815 62.4569 148.946 64.8896C152.013 65.2769 154.185 65.5533 157.525 65.9742C155.283 62.994 153.783 61.0004 151.441 57.8936ZM32.282 121.782C35.838 121.335 39.3941 120.888 42.9527 120.439C39.2034 119.71 35.2222 115.586 32.282 121.782ZM50.2298 82.094C50.4359 82.5434 50.6421 82.9953 50.8482 83.4447C53.1803 83.2742 55.5123 83.1064 58.0376 82.923C57.7567 80.6246 57.5789 79.1836 57.2775 76.7276C54.3398 78.9641 52.2835 80.5291 50.2298 82.094ZM118.88 34.6075C115.074 31.6738 114.901 31.6763 110.904 34.6075C113.664 34.6075 115.994 34.6075 118.88 34.6075ZM100.994 43.7572C104.305 44.4622 107.632 47.1092 112.198 43.7572C107.609 43.7572 104.3 43.7572 100.994 43.7572ZM94.6985 48.9195C97.4068 48.434 100.115 47.9485 102.823 47.4656C99.8342 46.3035 96.8734 45.2989 94.6985 48.9195ZM115.233 29.7085C115.434 30.1036 115.635 30.4961 115.836 30.8913C116.743 30.4212 117.666 29.9745 118.527 29.4347C118.591 29.3934 118.228 28.6678 118.063 28.2623C117.12 28.7427 116.177 29.2256 115.233 29.7085Z" fill="#B28E6A"/>
<path d="M85.5408 108.91C80.9257 108.1 77.6531 107.834 74.5712 106.919C68.0852 104.998 66.1758 99.3475 70.2292 93.9243C71.8603 91.7421 74.0661 89.8595 76.3312 88.31C81.4307 84.8134 87.2673 83.3052 93.3899 82.9875C94.9721 82.9049 96.6883 83.0263 98.1571 83.5686C103.293 85.4616 107.493 90.642 107.333 94.8463C107.125 100.3 103.355 103.182 98.9173 104.915C94.2326 106.744 89.2618 107.828 85.5408 108.91ZM71.0357 100.404C80.4232 100.096 89.1793 99.784 97.938 99.5283C104.834 99.3269 105.048 99.0428 103.262 91.2747C96.0157 90.7659 88.6717 90.1694 81.3174 89.7795C78.4184 89.6271 75.9781 90.6936 74.5248 94.2058C82.8815 94.2058 90.777 94.2058 98.6699 94.2058C91.2769 95.2543 83.8865 95.3189 76.4961 95.2233C73.342 95.182 70.9996 95.7992 71.0357 100.404ZM97.1908 102.312C89.4911 102.312 81.5338 102.312 72.7132 102.312C80.3175 107.79 90.1328 107.449 97.1908 102.312ZM98.5153 88.3513C98.6467 87.7625 98.7781 87.1711 98.9121 86.5823C97.3325 86.0013 95.7735 85.0044 94.1681 84.9218C90.5528 84.7359 86.8782 86.2492 84.3838 88.3513C89.0582 88.3513 93.7867 88.3513 98.5153 88.3513Z" fill="#B28E6A"/>
<path d="M102.749 76.2137C101.551 75.9839 98.9455 75.8186 96.5877 74.9664C91.5861 73.1587 90.3157 68.7943 93.4955 64.4583C94.704 62.8107 96.2991 61.1398 98.1003 60.298C103.532 57.7542 109.052 55.3086 114.736 53.4234C118.501 52.1735 122.096 53.1496 124.317 57.0543C126.456 60.8144 126.144 65.2434 122.959 68.6574C117.888 74.0935 111.379 76.1647 102.749 76.2137ZM121.284 66.0956C112.309 65.3544 103.586 67.1338 94.6035 67.9447C94.887 71.8674 97.1469 71.6634 99.1749 71.5369C104.725 71.1882 110.271 70.7518 115.816 70.3102C118.543 70.0933 120.753 69.1532 121.145 66C121.939 64.8508 122.735 63.7017 124.521 61.1166C114.979 61.7002 107.037 62.1237 99.1156 62.7668C98.3245 62.8313 97.6416 64.2156 95.9023 66.0465C103.409 65.2124 109.498 64.5693 115.579 63.8463C117.929 63.5673 120.279 63.0483 121.284 66.0956ZM122.227 59.172C117.339 53.7643 112.392 54.335 105.04 60.7137C110.902 60.1869 116.074 59.7246 122.227 59.172Z" fill="#B28E6A"/>
<path d="M170.288 63.5879C174.117 59.5928 178.668 60.5561 183.25 61.7673C178.931 62.3742 174.61 62.9811 170.288 63.5879Z" fill="#B28E6A"/>
<path d="M172.952 64.887C174.978 64.7604 177.003 64.6339 179.026 64.5073C179.073 64.9076 179.119 65.3053 179.163 65.7056C177.158 66.0517 175.153 66.4003 173.148 66.7463C173.086 66.1265 173.019 65.5068 172.952 64.887Z" fill="#B28E6A"/>
<path d="M176.918 75.989C179.129 75.989 181.34 75.989 183.551 75.989C183.574 76.3557 183.598 76.7225 183.618 77.0892C181.451 77.2286 179.284 77.3707 177.117 77.5101C177.05 77.0039 176.983 76.4952 176.918 75.989Z" fill="#B28E6A"/>
</g>
</svg>
