<svg width="53" height="53" viewBox="0 0 53 53" fill="none" xmlns="http://www.w3.org/2000/svg">
<rect width="53" height="53" rx="12" fill="#B28E6A"/>
<path d="M27 14C33.6276 14 39 19.3724 39 26C39 32.6276 33.6276 38 27 38C20.3724 38 15 32.6276 15 26C15 19.3724 20.3724 14 27 14ZM27 16.4C24.4539 16.4 22.0121 17.4114 20.2118 19.2118C18.4114 21.0121 17.4 23.4539 17.4 26C17.4 28.5461 18.4114 30.9879 20.2118 32.7882C22.0121 34.5886 24.4539 35.6 27 35.6C29.5461 35.6 31.9879 34.5886 33.7882 32.7882C35.5886 30.9879 36.6 28.5461 36.6 26C36.6 23.4539 35.5886 21.0121 33.7882 19.2118C31.9879 17.4114 29.5461 16.4 27 16.4ZM27 18.8C27.2939 18.8 27.5776 18.9079 27.7972 19.1033C28.0169 19.2986 28.1572 19.5677 28.1916 19.8596L28.2 20V25.5032L31.4484 28.7516C31.6636 28.9676 31.7886 29.2573 31.7979 29.5621C31.8072 29.8668 31.7001 30.1637 31.4985 30.3923C31.2969 30.621 31.0157 30.7644 30.7122 30.7933C30.4087 30.8222 30.1056 30.7345 29.8644 30.548L29.7516 30.4484L26.1516 26.8484C25.9651 26.6617 25.8453 26.4188 25.8108 26.1572L25.8 26V20C25.8 19.6817 25.9264 19.3765 26.1515 19.1515C26.3765 18.9264 26.6817 18.8 27 18.8Z" fill="white"/>
</svg>
